<svg width="28" height="23" viewBox="0 0 28 23" fill="none" xmlns="http://www.w3.org/2000/svg">
<path d="M22.0071 7.1298V21.1684C21.583 20.8981 21.1588 20.6249 20.7319 20.3546C20.6095 20.2778 20.4842 20.1981 20.3476 20.1583C20.2081 20.1185 20.0487 20.1213 19.9263 20.1981C19.8295 20.2607 19.764 20.3632 19.7156 20.4684C19.6786 20.5424 19.6473 20.6164 19.616 20.6932C19.4281 21.3562 19.0267 21.9281 18.4944 22.3378C18.4773 22.3492 18.4603 22.3634 18.4432 22.3748C18.3379 22.4544 18.2268 22.5284 18.1101 22.591C18.1073 22.591 18.1016 22.5996 18.0959 22.6024C18.0959 22.6024 18.093 22.6024 18.0902 22.6052C17.982 22.6622 17.871 22.7162 17.7543 22.7617C17.7287 22.7731 17.7031 22.7817 17.6774 22.7902C17.5892 22.8243 17.4953 22.8556 17.4013 22.8812C17.37 22.8898 17.3359 22.8983 17.3045 22.9068C17.2134 22.9268 17.1195 22.9438 17.0256 22.9581C16.9943 22.9638 16.9629 22.9694 16.9316 22.9723C16.8092 22.9865 16.6868 22.995 16.5616 22.995H3.13127C1.40053 22.995 0 21.5952 0 19.8652V4H10.5695C10.6947 4 10.8171 4.00854 10.9395 4.02276C10.9708 4.02561 11.0021 4.0313 11.0363 4.03699C11.1274 4.05121 11.2213 4.06829 11.3124 4.09105C11.3437 4.09674 11.3779 4.10528 11.4121 4.11666C11.5031 4.14226 11.5971 4.17072 11.6853 4.20486C11.711 4.2134 11.7394 4.22193 11.765 4.23331C11.8789 4.27884 11.9928 4.3329 12.0981 4.39265H12.1038C12.1038 4.39265 12.1152 4.40118 12.1209 4.40403C12.2347 4.46947 12.3457 4.5406 12.4511 4.62027C12.4681 4.63165 12.4852 4.64588 12.5023 4.6601C13.0375 5.06698 13.436 5.63888 13.6267 6.30183C13.6552 6.37865 13.6865 6.45263 13.7235 6.5266C13.7747 6.63188 13.8374 6.73431 13.937 6.7969C14.0566 6.87373 14.216 6.87657 14.3555 6.83674C14.4921 6.7969 14.6173 6.71724 14.7397 6.64041C15.3688 6.23923 15.9979 5.83805 16.6242 5.43686C16.6299 5.43402 16.6327 5.43117 16.6356 5.42833L16.6555 5.41695C16.6555 5.41695 16.6612 5.41695 16.6641 5.41126C16.7238 5.37427 16.7836 5.33443 16.8462 5.2946H16.8519C16.8889 5.26615 16.9259 5.24338 16.9658 5.21778C17.1821 5.07836 17.4013 4.94179 17.6234 4.79952C18.6396 4.1508 19.8693 4.23331 20.766 4.81944C21.4378 5.25761 21.9217 5.97177 21.9958 6.87088C22.0014 6.95624 22.0071 7.0416 22.0071 7.1298Z" fill="#6D4AFF"/>
<path d="M22.0071 7.1298V21.1684C21.583 20.8981 21.1588 20.6249 20.7319 20.3546C20.6095 20.2778 20.4842 20.1981 20.3476 20.1583C20.2081 20.1185 20.0487 20.1213 19.9263 20.1981C19.8295 20.2607 19.764 20.3632 19.7156 20.4684C19.6786 20.5424 19.6473 20.6164 19.616 20.6932C19.4281 21.3562 19.0267 21.9281 18.4944 22.3378C18.4773 22.3492 18.4603 22.3634 18.4432 22.3748C18.3379 22.4544 18.2268 22.5284 18.1101 22.591C18.1073 22.591 18.1016 22.5996 18.0959 22.6024C18.0959 22.6024 18.093 22.6024 18.0902 22.6052C17.982 22.6622 17.871 22.7162 17.7543 22.7617C17.7287 22.7731 17.7031 22.7817 17.6774 22.7902C17.5892 22.8243 17.4953 22.8556 17.4013 22.8812C17.37 22.8898 17.3359 22.8983 17.3045 22.9068C17.2134 22.9268 17.1195 22.9438 17.0256 22.9581C16.9943 22.9638 16.9629 22.9694 16.9316 22.9723C16.8092 22.9865 16.6868 22.995 16.5616 22.995H3.13127C1.40053 22.995 0 21.5952 0 19.8652V4H10.5695C10.6947 4 10.8171 4.00854 10.9395 4.02276C10.9708 4.02561 11.0021 4.0313 11.0363 4.03699C11.1274 4.05121 11.2213 4.06829 11.3124 4.09105C11.3437 4.09674 11.3779 4.10528 11.4121 4.11666C11.5031 4.14226 11.5971 4.17072 11.6853 4.20486C11.711 4.2134 11.7394 4.22193 11.765 4.23331C11.8789 4.27884 11.9928 4.3329 12.0981 4.39265H12.1038C12.1038 4.39265 12.1152 4.40118 12.1209 4.40403C12.2347 4.46947 12.3457 4.5406 12.4511 4.62027C12.4681 4.63165 12.4852 4.64588 12.5023 4.6601C13.0375 5.06698 13.436 5.63888 13.6267 6.30183C13.6552 6.37865 13.6865 6.45263 13.7235 6.5266C13.7747 6.63188 13.8374 6.73431 13.937 6.7969C14.0566 6.87373 14.216 6.87657 14.3555 6.83674C14.4921 6.7969 14.6173 6.71724 14.7397 6.64041C15.3688 6.23923 15.9979 5.83805 16.6242 5.43686C16.6299 5.43402 16.6327 5.43117 16.6356 5.42833L16.6555 5.41695C16.6555 5.41695 16.6612 5.41695 16.6641 5.41126C16.7238 5.37427 16.7836 5.33443 16.8462 5.2946H16.8519C16.8889 5.26615 16.9259 5.24338 16.9658 5.21778C17.1821 5.07836 17.4013 4.94179 17.6234 4.79952C18.6396 4.1508 19.8693 4.23331 20.766 4.81944C21.4378 5.25761 21.9217 5.97177 21.9958 6.87088C22.0014 6.95624 22.0071 7.0416 22.0071 7.1298Z" fill="url(#paint0_radial_6625_24122)"/>
<g style="mix-blend-mode:multiply">
<path d="M22.0071 7.1298V21.1684C21.583 20.8981 21.1588 20.6249 20.7319 20.3546C20.6095 20.2778 20.4842 20.1981 20.3476 20.1583C20.2081 20.1185 20.0487 20.1213 19.9263 20.1981C19.8295 20.2607 19.764 20.3632 19.7156 20.4684C19.6786 20.5424 19.6473 20.6164 19.616 20.6932C19.4281 21.3562 19.0267 21.9281 18.4944 22.3378C18.4773 22.3492 18.4603 22.3634 18.4432 22.3748C18.3379 22.4544 18.2268 22.5284 18.1101 22.591C18.1073 22.591 18.1016 22.5996 18.0959 22.6024C18.0959 22.6024 18.093 22.6024 18.0902 22.6052C17.982 22.6622 17.871 22.7162 17.7543 22.7617C17.7287 22.7731 17.7031 22.7817 17.6774 22.7902C17.5892 22.8243 17.4953 22.8556 17.4013 22.8812C17.37 22.8898 17.3359 22.8983 17.3045 22.9068C17.2134 22.9268 17.1195 22.9438 17.0256 22.9581C16.9943 22.9638 16.9629 22.9694 16.9316 22.9723C16.8092 22.9865 16.6868 22.995 16.5616 22.995H3.13127C1.40053 22.995 0 21.5952 0 19.8652V4H10.5695C10.6947 4 10.8171 4.00854 10.9395 4.02276C10.9708 4.02561 11.0021 4.0313 11.0363 4.03699C11.1274 4.05121 11.2213 4.06829 11.3124 4.09105C11.3437 4.09674 11.3779 4.10528 11.4121 4.11666C11.5031 4.14226 11.5971 4.17072 11.6853 4.20486C11.711 4.2134 11.7394 4.22193 11.765 4.23331C11.8789 4.27884 11.9928 4.3329 12.0981 4.39265H12.1038C12.1038 4.39265 12.1152 4.40118 12.1209 4.40403C12.2347 4.46947 12.3457 4.5406 12.4511 4.62027C12.4681 4.63165 12.4852 4.64588 12.5023 4.6601C13.0375 5.06698 13.436 5.63888 13.6267 6.30183C13.6552 6.37865 13.6865 6.45263 13.7235 6.5266C13.7747 6.63188 13.8374 6.73431 13.937 6.7969C14.0566 6.87373 14.216 6.87657 14.3555 6.83674C14.4921 6.7969 14.6173 6.71724 14.7397 6.64041C15.3688 6.23923 15.9979 5.83805 16.6242 5.43686C16.6299 5.43402 16.6327 5.43117 16.6356 5.42833L16.6555 5.41695C16.6555 5.41695 16.6612 5.41695 16.6641 5.41126C16.7238 5.37427 16.7836 5.33443 16.8462 5.2946H16.8519C16.8889 5.26615 16.9259 5.24338 16.9658 5.21778C17.1821 5.07836 17.4013 4.94179 17.6234 4.79952C18.6396 4.1508 19.8693 4.23331 20.766 4.81944C21.4378 5.25761 21.9217 5.97177 21.9958 6.87088C22.0014 6.95624 22.0071 7.0416 22.0071 7.1298Z" fill="#1B1340" fill-opacity="0.1"/>
</g>
<path opacity="0.2" d="M22.0071 7.1298V21.1684C21.583 20.8981 21.1588 20.6249 20.7319 20.3546C20.6095 20.2778 20.4842 20.1981 20.3476 20.1583C20.2081 20.1185 20.0487 20.1213 19.9263 20.1981C19.8295 20.2607 19.764 20.3632 19.7156 20.4684C19.6786 20.5424 19.6473 20.6164 19.616 20.6932C19.4281 21.3562 19.0267 21.9281 18.4944 22.3378C18.4773 22.3492 18.4603 22.3634 18.4432 22.3748C18.3379 22.4544 18.2268 22.5284 18.1101 22.591C18.1073 22.591 18.1016 22.5996 18.0959 22.6024C18.0959 22.6024 18.093 22.6024 18.0902 22.6052C17.982 22.6622 17.871 22.7162 17.7543 22.7617C17.7287 22.7731 17.7031 22.7817 17.6774 22.7902C17.5892 22.8243 17.4953 22.8556 17.4013 22.8812C17.37 22.8898 17.3359 22.8983 17.3045 22.9068C17.2134 22.9268 17.1195 22.9438 17.0256 22.9581C16.9943 22.9638 16.9629 22.9694 16.9316 22.9723C16.8092 22.9865 16.6868 22.995 16.5616 22.995H3.13127C1.40053 22.995 0 21.5952 0 19.8652V4H10.5695C10.6947 4 10.8171 4.00854 10.9395 4.02276C10.9708 4.02561 11.0021 4.0313 11.0363 4.03699C11.1274 4.05121 11.2213 4.06829 11.3124 4.09105C11.3437 4.09674 11.3779 4.10528 11.4121 4.11666C11.5031 4.14226 11.5971 4.17072 11.6853 4.20486C11.711 4.2134 11.7394 4.22193 11.765 4.23331C11.8789 4.27884 11.9928 4.3329 12.0981 4.39265H12.1038C12.1038 4.39265 12.1152 4.40118 12.1209 4.40403C12.2347 4.46947 12.3457 4.5406 12.4511 4.62027C12.4681 4.63165 12.4852 4.64588 12.5023 4.6601C13.0375 5.06698 13.436 5.63888 13.6267 6.30183C13.6552 6.37865 13.6865 6.45263 13.7235 6.5266C13.7747 6.63188 13.8374 6.73431 13.937 6.7969C14.0566 6.87373 14.216 6.87657 14.3555 6.83674C14.4921 6.7969 14.6173 6.71724 14.7397 6.64041C15.3688 6.23923 15.9979 5.83805 16.6242 5.43686C16.6299 5.43402 16.6327 5.43117 16.6356 5.42833L16.6555 5.41695C16.6555 5.41695 16.6612 5.41695 16.6641 5.41126C16.7238 5.37427 16.7836 5.33443 16.8462 5.2946H16.8519C16.8889 5.26615 16.9259 5.24338 16.9658 5.21778C17.1821 5.07836 17.4013 4.94179 17.6234 4.79952C18.6396 4.1508 19.8693 4.23331 20.766 4.81944C21.4378 5.25761 21.9217 5.97177 21.9958 6.87088C22.0014 6.95624 22.0071 7.0416 22.0071 7.1298Z" fill="#6D4AFF"/>
<path d="M22.6163 1.43686L16.9658 5.21823C16.9259 5.24384 16.8889 5.2666 16.8519 5.29221H16.8462C16.7836 5.33489 16.7238 5.37472 16.6641 5.41171C16.6612 5.41456 16.6584 5.41456 16.6555 5.4174L16.6356 5.42878C16.6356 5.42878 16.6299 5.43447 16.6242 5.43732C15.9979 5.8385 15.3688 6.23969 14.7397 6.64087C14.6173 6.71769 14.4921 6.79736 14.3555 6.83719C14.216 6.87703 14.0566 6.87418 13.937 6.79736C13.8374 6.73476 13.7747 6.63233 13.7235 6.52706C13.6865 6.45308 13.6552 6.3791 13.6267 6.30228C13.436 5.63933 13.0375 5.06743 12.5023 4.66056C12.4852 4.64633 12.4681 4.63211 12.4511 4.62072C12.3457 4.54106 12.2347 4.46993 12.1209 4.40448C12.1152 4.40448 12.1095 4.39595 12.1038 4.3931H12.0981C11.9928 4.33335 11.8789 4.27929 11.765 4.23377C11.7394 4.22239 11.711 4.21385 11.6853 4.20531C11.5971 4.17117 11.5031 4.14272 11.4121 4.11711C11.3779 4.10573 11.3437 4.09719 11.3124 4.0915C11.2213 4.06874 11.1274 4.05167 11.0363 4.03744C11.0021 4.03175 10.9708 4.02606 10.9395 4.02322C10.8171 4.00899 10.6947 4.00046 10.5695 4.00046H0V3.1298C0 1.40272 1.40053 0 3.13127 0H16.5616C16.6868 0 16.8092 0.00853582 16.9316 0.0227622C16.9629 0.0284527 16.9943 0.0341433 17.0256 0.0369886C17.1195 0.0512149 17.2134 0.0682866 17.3045 0.0910488C17.3359 0.0995846 17.37 0.10812 17.4013 0.116656C17.4953 0.142264 17.5892 0.173562 17.6774 0.20486C17.7031 0.216241 17.7287 0.224777 17.7543 0.233312C17.871 0.281682 17.982 0.332897 18.0902 0.392648C18.093 0.392648 18.0959 0.395493 18.0959 0.395493C18.1016 0.398338 18.1073 0.401184 18.1101 0.404029C18.2268 0.46947 18.3379 0.543447 18.4432 0.62027C18.4603 0.634496 18.4773 0.645877 18.4944 0.660103C19.0267 1.06982 19.4281 1.64172 19.616 2.30183C19.6473 2.37865 19.6786 2.45547 19.7156 2.5266C19.764 2.63188 19.8295 2.73431 19.9263 2.7969C20.0487 2.87657 20.2081 2.87942 20.3476 2.83674C20.4842 2.7969 20.6095 2.72008 20.7319 2.64041C21.361 2.24208 21.9872 1.83805 22.6163 1.43686Z" fill="url(#paint1_linear_6625_24122)"/>
<path d="M27.9983 3.13061V19.8665C27.9983 19.9547 27.9926 20.0401 27.9869 20.1254C27.8133 22.2252 25.388 23.332 23.6145 22.1968L22.6267 21.568C22.6267 21.568 22.6211 21.5623 22.6154 21.5594C22.4133 21.4286 22.2083 21.3005 22.0062 21.1696V7.13106C22.0062 7.04286 22.0005 6.9575 21.9948 6.87214C21.9208 5.97303 21.4369 5.25887 20.7651 4.8207C19.8684 4.23457 18.6387 4.15206 17.6224 4.80078C17.4004 4.94305 17.1812 5.07962 16.9648 5.21904L22.6154 1.43767L22.6267 1.43198L22.7008 1.38361C22.7862 1.32955 22.8716 1.27549 22.957 1.22143C23.1733 1.08201 23.3925 0.942591 23.6145 0.800327C25.388 -0.332092 27.8133 0.771874 27.9869 2.87169C27.9926 2.95704 27.9983 3.0424 27.9983 3.13061Z" fill="url(#paint2_linear_6625_24122)"/>
<g style="mix-blend-mode:multiply" opacity="0.1">
<path d="M16.5615 0.00195312C16.6867 0.00195644 16.8093 0.011167 16.9316 0.0253906C16.9629 0.0310645 16.9942 0.0362217 17.0254 0.0390625C17.1193 0.0532889 17.2136 0.0700112 17.3047 0.0927734C17.336 0.101296 17.3701 0.110618 17.4014 0.119141C17.4952 0.144736 17.5896 0.17576 17.6777 0.207031C17.7031 0.218293 17.7285 0.226886 17.7539 0.235352C17.8705 0.283677 17.9818 0.33485 18.0898 0.394531C18.0923 0.394531 18.0951 0.396917 18.0957 0.397461C18.1014 0.400306 18.1075 0.403405 18.1104 0.40625C18.227 0.471651 18.3381 0.545312 18.4434 0.62207C18.4604 0.636249 18.4771 0.647948 18.4941 0.662109C19.0264 1.0718 19.4283 1.64367 19.6162 2.30371C19.6475 2.38046 19.6789 2.45725 19.7158 2.52832C19.7642 2.63347 19.8292 2.73621 19.9258 2.79883C20.0482 2.8785 20.2082 2.88155 20.3477 2.83887C20.4841 2.79904 20.6092 2.72216 20.7314 2.64258C21.3605 2.24428 21.9872 1.8406 22.6162 1.43945L22.6172 1.43848L22.6279 1.43262L22.7021 1.38477C22.7875 1.33071 22.8736 1.27672 22.959 1.22266C23.1753 1.08327 23.3942 0.943009 23.6162 0.800781C25.3896 -0.331345 27.8146 0.773345 27.9883 2.87305C27.994 2.95826 28 3.04378 28 3.13184V19.8672C28 19.9553 27.994 20.0407 27.9883 20.126C27.8146 22.2258 25.3896 23.3325 23.6162 22.1973L22.6279 21.5693C22.6279 21.5693 22.6228 21.5634 22.6172 21.5605C22.4151 21.4297 22.2099 21.3017 22.0078 21.1709V7.13184C22.0078 7.04368 22.0018 6.95836 21.9961 6.87305C21.9221 5.97395 21.4384 5.25946 20.7666 4.82129C19.8699 4.23527 18.6402 4.15308 17.624 4.80176C17.4021 4.94394 17.183 5.08039 16.9668 5.21973L16.9658 5.2207C16.926 5.24629 16.8885 5.26835 16.8516 5.29395H16.8457C16.7831 5.3366 16.7238 5.37709 16.6641 5.41406C16.6612 5.41688 16.6581 5.41709 16.6553 5.41992L16.6357 5.43066C16.6357 5.43066 16.6297 5.43661 16.624 5.43945C15.9978 5.84063 15.3683 6.2414 14.7393 6.64258C14.617 6.71934 14.492 6.79902 14.3555 6.83887C14.216 6.8787 14.0561 6.87663 13.9365 6.7998C13.837 6.73724 13.7748 6.63447 13.7236 6.5293C13.6867 6.45543 13.6554 6.38139 13.627 6.30469C13.4362 5.64175 13.0371 5.06996 12.502 4.66309C12.485 4.64892 12.4682 4.6344 12.4512 4.62305C12.3459 4.5434 12.2349 4.47168 12.1211 4.40625C12.1154 4.40625 12.1092 4.39835 12.1035 4.39551H12.0977C11.9924 4.33579 11.8785 4.28183 11.7646 4.23633C11.7391 4.22499 11.7111 4.21554 11.6855 4.20703C11.5973 4.1729 11.5032 4.14474 11.4121 4.11914C11.378 4.10778 11.3438 4.09944 11.3125 4.09375C11.2214 4.07099 11.1272 4.05427 11.0361 4.04004C11.002 4.03435 10.9707 4.02824 10.9395 4.02539C10.817 4.01116 10.6946 4.00293 10.5693 4.00293H0V3.13184C6.32035e-05 1.4049 1.40029 0.00210877 3.13086 0.00195312H16.5615Z" fill="#6D4AFF"/>
</g>
<defs>
<radialGradient id="paint0_radial_6625_24122" cx="0" cy="0" r="1" gradientTransform="matrix(9.50712 -16.5441 20.3143 15.5256 4.00683 22.5069)" gradientUnits="userSpaceOnUse">
<stop stop-color="#B8C6E5"/>
<stop offset="0.418768" stop-color="#9388F2"/>
<stop offset="0.716275" stop-color="#6D4AFF"/>
</radialGradient>
<linearGradient id="paint1_linear_6625_24122" x1="1.60195" y1="-2.30821" x2="7.28617" y2="9.99816" gradientUnits="userSpaceOnUse">
<stop stop-color="#6652F5"/>
<stop offset="0.33754" stop-color="#9A9CF9"/>
<stop offset="0.868809" stop-color="#D9DAFC"/>
</linearGradient>
<linearGradient id="paint2_linear_6625_24122" x1="19.3468" y1="-1.41678" x2="32.4751" y2="2.62916" gradientUnits="userSpaceOnUse">
<stop stop-color="#6652F5"/>
<stop offset="0.33754" stop-color="#9A9CF9"/>
<stop offset="0.868809" stop-color="#D9DAFC"/>
</linearGradient>
</defs>
</svg>
