<svg width="20" height="20" viewBox="0 0 20 20" fill="none" xmlns="http://www.w3.org/2000/svg">
<path d="M14.1427 5.31803C11.6871 3.14291 7.92942 3.23015 5.57829 5.57974C4.40783 6.74945 3.79867 8.2661 3.7501 9.79901C3.73917 10.1439 3.45054 10.4146 3.10542 10.4037C2.76031 10.3928 2.48939 10.1044 2.50032 9.75947C2.55855 7.92162 3.29006 6.0993 4.69412 4.69615C7.53857 1.85355 12.0987 1.77045 15.0434 4.44684V3.1937C15.0434 2.84852 15.3232 2.5687 15.6684 2.5687C16.0136 2.5687 16.2934 2.84852 16.2934 3.1937V5.69303C16.2934 6.17628 15.9017 6.56803 15.4184 6.56803H12.9173C12.5721 6.56803 12.2923 6.2882 12.2923 5.94303C12.2923 5.59785 12.5721 5.31803 12.9173 5.31803H14.1427Z" fill="#81819A"/>
<path d="M17.5022 9.92317C17.4987 9.57813 17.2161 9.30119 16.8708 9.30462C16.5255 9.30805 16.2484 9.59054 16.2518 9.93559C16.268 11.5565 15.6577 13.1804 14.4208 14.4165C12.0696 16.7662 8.31181 16.8533 5.85623 14.6781H6.91549C7.26067 14.6781 7.54049 14.3982 7.54049 14.0531C7.54049 13.7079 7.26067 13.4281 6.91549 13.4281H4.41437C3.93112 13.4281 3.53937 13.8198 3.53937 14.3031V16.8024C3.53937 17.1476 3.81919 17.4274 4.16437 17.4274C4.50955 17.4274 4.78937 17.1476 4.78937 16.8024L4.78937 15.3936C7.72629 18.228 12.4064 18.1968 15.305 15.3001C16.789 13.817 17.5215 11.866 17.5022 9.92317Z" fill="#81819A"/>
</svg>
