<svg width="29" height="23" viewBox="0 0 29 23" fill="none" xmlns="http://www.w3.org/2000/svg">
<path d="M23.1015 1.43147L17.3298 5.19866C17.2891 5.22417 17.2513 5.24685 17.2135 5.27236H17.2076C17.1437 5.31488 17.0826 5.35456 17.0215 5.39141C17.0186 5.39425 17.0157 5.39425 17.0128 5.39708L16.9925 5.40842C16.9925 5.40842 16.9867 5.41409 16.9808 5.41692C16.3411 5.8166 15.6986 6.21628 15.056 6.61596C14.9309 6.69249 14.803 6.77186 14.6634 6.81155C14.5209 6.85123 14.3581 6.8484 14.236 6.77186C14.1342 6.7095 14.0703 6.60746 14.0179 6.50257C13.9801 6.42888 13.9481 6.35518 13.9191 6.27864C13.7242 5.61818 13.3172 5.04842 12.7705 4.64308C12.7531 4.6289 12.7356 4.61473 12.7182 4.60339C12.6106 4.52402 12.4972 4.45316 12.3809 4.38796C12.3751 4.38796 12.3693 4.37946 12.3634 4.37662H12.3576C12.25 4.3171 12.1337 4.26324 12.0174 4.21789C11.9913 4.20655 11.9622 4.19804 11.936 4.18954C11.8459 4.15553 11.7499 4.12718 11.6569 4.10167C11.622 4.09033 11.5871 4.08183 11.5551 4.07616C11.4621 4.05348 11.3661 4.03647 11.2731 4.0223C11.2382 4.01663 11.2062 4.01096 11.1742 4.00813C11.0492 3.99395 10.9241 3.98545 10.7962 3.98545H0V3.11806C0 1.39746 1.43058 0 3.19845 0H16.9169C17.0448 0 17.1698 0.0085038 17.2949 0.0226768C17.3269 0.028346 17.3588 0.0340152 17.3908 0.0368498C17.4868 0.0510228 17.5827 0.0680304 17.6758 0.0907072C17.7078 0.099211 17.7426 0.107715 17.7746 0.116219C17.8706 0.14173 17.9665 0.172911 18.0567 0.204091C18.0828 0.21543 18.109 0.223933 18.1352 0.232437C18.2544 0.280626 18.3678 0.331648 18.4783 0.391175C18.4812 0.391175 18.4841 0.39401 18.4841 0.39401C18.4899 0.396844 18.4957 0.399679 18.4986 0.402513C18.6179 0.467709 18.7313 0.541409 18.8388 0.617943C18.8563 0.632116 18.8737 0.643454 18.8912 0.657627C19.4349 1.06581 19.8449 1.63556 20.0368 2.29319C20.0688 2.36973 20.1008 2.44626 20.1386 2.51713C20.188 2.62201 20.2549 2.72405 20.3537 2.78641C20.4788 2.86578 20.6416 2.86862 20.7841 2.8261C20.9236 2.78641 21.0516 2.70988 21.1766 2.63051C21.8192 2.23367 22.4589 1.83115 23.1015 1.43147Z" fill="url(#paint0_linear_6261_4977)"/>
<path d="M22.4793 7.10244V21.0884C22.046 20.8191 21.6128 20.5469 21.1766 20.2777C21.0516 20.2011 20.9237 20.1218 20.7841 20.0821C20.6416 20.0424 20.4788 20.0452 20.3537 20.1218C20.2549 20.1841 20.188 20.2862 20.1386 20.391C20.1008 20.4647 20.0688 20.5384 20.0368 20.615C19.8449 21.2754 19.4349 21.8452 18.8912 22.2534C18.8737 22.2647 18.8563 22.2789 18.8388 22.2902C18.7313 22.3696 18.6179 22.4433 18.4986 22.5057C18.4957 22.5057 18.4899 22.5142 18.4841 22.517C18.4841 22.517 18.4812 22.517 18.4783 22.5198C18.3678 22.5765 18.2544 22.6304 18.1352 22.6757C18.109 22.6871 18.0828 22.6956 18.0567 22.7041C17.9665 22.7381 17.8706 22.7693 17.7746 22.7948C17.7427 22.8033 17.7078 22.8118 17.6758 22.8203C17.5827 22.8401 17.4868 22.8572 17.3908 22.8713C17.3588 22.877 17.3269 22.8827 17.2949 22.8855C17.1698 22.8997 17.0448 22.9082 16.9169 22.9082H3.19845C1.43058 22.9082 0 21.5135 0 19.7901V3.98438H10.7962C10.9241 3.98438 11.0492 3.99288 11.1742 4.00705C11.2062 4.00989 11.2382 4.01556 11.2731 4.02122C11.3661 4.0354 11.4621 4.05241 11.5551 4.07508C11.5871 4.08075 11.622 4.08926 11.6569 4.10059C11.7499 4.12611 11.8459 4.15445 11.936 4.18847C11.9622 4.19697 11.9913 4.20547 12.0174 4.21681C12.1337 4.26217 12.25 4.31602 12.3576 4.37555H12.3634C12.3634 4.37555 12.3751 4.38405 12.3809 4.38689C12.4972 4.45208 12.6106 4.52295 12.7182 4.60232C12.7356 4.61366 12.7531 4.62783 12.7705 4.642C13.3172 5.04735 13.7242 5.61711 13.9191 6.27757C13.9481 6.3541 13.9801 6.4278 14.0179 6.5015C14.0703 6.60638 14.1342 6.70843 14.236 6.77079C14.3581 6.84732 14.5209 6.85016 14.6634 6.81047C14.803 6.77079 14.9309 6.69142 15.056 6.61488C15.6986 6.21521 16.3412 5.81553 16.9808 5.41585C16.9867 5.41301 16.9896 5.41018 16.9925 5.40734L17.0128 5.39601C17.0128 5.39601 17.0186 5.39601 17.0215 5.39034C17.0826 5.35349 17.1437 5.3138 17.2076 5.27412H17.2135C17.2513 5.24577 17.2891 5.2231 17.3298 5.19758C17.5507 5.05869 17.7746 4.92263 18.0014 4.7809C19.0395 4.13461 20.2956 4.21681 21.2115 4.80074C21.8977 5.23727 22.392 5.94875 22.4676 6.84449C22.4734 6.92953 22.4793 7.01456 22.4793 7.10244Z" fill="#6D4AFF"/>
<path d="M22.4793 7.10244V21.0884C22.046 20.8191 21.6128 20.5469 21.1766 20.2777C21.0516 20.2011 20.9237 20.1218 20.7841 20.0821C20.6416 20.0424 20.4788 20.0452 20.3537 20.1218C20.2549 20.1841 20.188 20.2862 20.1386 20.391C20.1008 20.4647 20.0688 20.5384 20.0368 20.615C19.8449 21.2754 19.4349 21.8452 18.8912 22.2534C18.8737 22.2647 18.8563 22.2789 18.8388 22.2902C18.7313 22.3696 18.6179 22.4433 18.4986 22.5057C18.4957 22.5057 18.4899 22.5142 18.4841 22.517C18.4841 22.517 18.4812 22.517 18.4783 22.5198C18.3678 22.5765 18.2544 22.6304 18.1352 22.6757C18.109 22.6871 18.0828 22.6956 18.0567 22.7041C17.9665 22.7381 17.8706 22.7693 17.7746 22.7948C17.7427 22.8033 17.7078 22.8118 17.6758 22.8203C17.5827 22.8401 17.4868 22.8572 17.3908 22.8713C17.3588 22.877 17.3269 22.8827 17.2949 22.8855C17.1698 22.8997 17.0448 22.9082 16.9169 22.9082H3.19845C1.43058 22.9082 0 21.5135 0 19.7901V3.98438H10.7962C10.9241 3.98438 11.0492 3.99288 11.1742 4.00705C11.2062 4.00989 11.2382 4.01556 11.2731 4.02122C11.3661 4.0354 11.4621 4.05241 11.5551 4.07508C11.5871 4.08075 11.622 4.08926 11.6569 4.10059C11.7499 4.12611 11.8459 4.15445 11.936 4.18847C11.9622 4.19697 11.9913 4.20547 12.0174 4.21681C12.1337 4.26217 12.25 4.31602 12.3576 4.37555H12.3634C12.3634 4.37555 12.3751 4.38405 12.3809 4.38689C12.4972 4.45208 12.6106 4.52295 12.7182 4.60232C12.7356 4.61366 12.7531 4.62783 12.7705 4.642C13.3172 5.04735 13.7242 5.61711 13.9191 6.27757C13.9481 6.3541 13.9801 6.4278 14.0179 6.5015C14.0703 6.60638 14.1342 6.70843 14.236 6.77079C14.3581 6.84732 14.5209 6.85016 14.6634 6.81047C14.803 6.77079 14.9309 6.69142 15.056 6.61488C15.6986 6.21521 16.3412 5.81553 16.9808 5.41585C16.9867 5.41301 16.9896 5.41018 16.9925 5.40734L17.0128 5.39601C17.0128 5.39601 17.0186 5.39601 17.0215 5.39034C17.0826 5.35349 17.1437 5.3138 17.2076 5.27412H17.2135C17.2513 5.24577 17.2891 5.2231 17.3298 5.19758C17.5507 5.05869 17.7746 4.92263 18.0014 4.7809C19.0395 4.13461 20.2956 4.21681 21.2115 4.80074C21.8977 5.23727 22.392 5.94875 22.4676 6.84449C22.4734 6.92953 22.4793 7.01456 22.4793 7.10244Z" fill="url(#paint1_radial_6261_4977)"/>
<path d="M28.6002 3.11821V19.7913C28.6002 19.8792 28.5944 19.9642 28.5886 20.0493C28.4112 22.1412 25.9339 23.2439 24.1224 22.1129L23.1134 21.4864C23.1134 21.4864 23.1076 21.4808 23.1018 21.4779C22.8954 21.3475 22.686 21.22 22.4796 21.0896V7.10366C22.4796 7.01579 22.4738 6.93075 22.4679 6.84571C22.3923 5.94998 21.898 5.23849 21.2118 4.80197C20.2959 4.21804 19.0398 4.13584 18.0018 4.78212C17.775 4.92385 17.5511 5.05991 17.3301 5.19881L23.1018 1.43163L23.1134 1.42596L23.189 1.37777C23.2763 1.32391 23.3635 1.27005 23.4507 1.2162C23.6717 1.0773 23.8956 0.938406 24.1224 0.796676C25.9339 -0.331495 28.4112 0.76833 28.5886 2.86026C28.5944 2.9453 28.6002 3.03034 28.6002 3.11821Z" fill="url(#paint2_linear_6261_4977)"/>
<defs>
<linearGradient id="paint0_linear_6261_4977" x1="1.63631" y1="-2.29955" x2="7.20723" y2="10.0666" gradientUnits="userSpaceOnUse">
<stop stop-color="#6652F5"/>
<stop offset="0.33754" stop-color="#9A9CF9"/>
<stop offset="0.868809" stop-color="#D9DAFC"/>
</linearGradient>
<radialGradient id="paint1_radial_6261_4977" cx="0" cy="0" r="1" gradientTransform="matrix(9.71108 -16.482 20.7501 15.4673 4.09279 22.4219)" gradientUnits="userSpaceOnUse">
<stop stop-color="#B8C6E5"/>
<stop offset="0.418768" stop-color="#9388F2"/>
<stop offset="0.716275" stop-color="#6D4AFF"/>
</radialGradient>
<linearGradient id="paint2_linear_6261_4977" x1="19.7632" y1="-1.41212" x2="33.1137" y2="2.80643" gradientUnits="userSpaceOnUse">
<stop stop-color="#6652F5"/>
<stop offset="0.33754" stop-color="#9A9CF9"/>
<stop offset="0.868809" stop-color="#D9DAFC"/>
</linearGradient>
</defs>
</svg>
