<svg width="16" height="16" viewBox="0 0 16 16" fill="none" xmlns="http://www.w3.org/2000/svg">
<g clip-path="url(#clip0_9137_41757)">
<path d="M12.5756 5.50331V13.5254C12.3332 13.3709 12.0908 13.2149 11.8468 13.0604C11.7769 13.0165 11.7053 12.971 11.6272 12.9482C11.5475 12.9255 11.4564 12.9271 11.3865 12.971C11.3312 13.0067 11.2938 13.0653 11.2661 13.1254C11.245 13.1677 11.2271 13.21 11.2092 13.2539C11.1018 13.6327 10.8725 13.9595 10.5683 14.1936C10.5585 14.2001 10.5488 14.2083 10.539 14.2148C10.4788 14.2603 10.4154 14.3026 10.3487 14.3383C10.3471 14.3383 10.3438 14.3432 10.3406 14.3448C10.3406 14.3448 10.3389 14.3448 10.3373 14.3465C10.2755 14.379 10.2121 14.4099 10.1454 14.4359C10.1307 14.4424 10.1161 14.4473 10.1015 14.4522C10.051 14.4717 9.99735 14.4896 9.94367 14.5042C9.92578 14.5091 9.90626 14.5139 9.88836 14.5188C9.83631 14.5302 9.78263 14.54 9.72895 14.5481C9.71106 14.5513 9.69317 14.5546 9.67527 14.5562C9.60533 14.5643 9.53538 14.5692 9.46381 14.5692H1.78931C0.800308 14.5692 0 13.7693 0 12.7808V3.71484H6.03973C6.1113 3.71484 6.18124 3.71972 6.25119 3.72785C6.26908 3.72948 6.28698 3.73273 6.3065 3.73598C6.35855 3.74411 6.41223 3.75386 6.46428 3.76687C6.48217 3.77012 6.50169 3.775 6.52121 3.7815C6.57326 3.79614 6.62694 3.8124 6.67737 3.83191C6.69201 3.83678 6.70828 3.84166 6.72292 3.84817C6.78798 3.87418 6.85305 3.90507 6.91323 3.93922H6.91649C6.91649 3.93922 6.92299 3.94409 6.92625 3.94572C6.99131 3.98311 7.05475 4.02376 7.11494 4.06929C7.1247 4.07579 7.13446 4.08392 7.14422 4.09205C7.45003 4.32455 7.67776 4.65135 7.78674 5.03018C7.80301 5.07408 7.8209 5.11635 7.84205 5.15863C7.87133 5.21878 7.90711 5.27731 7.96404 5.31308C8.03236 5.35698 8.12346 5.35861 8.20316 5.33585C8.28124 5.31308 8.35281 5.26756 8.42276 5.22366C8.78225 4.99441 9.14173 4.76516 9.4996 4.53591C9.50285 4.53429 9.50448 4.53266 9.5061 4.53104L9.51749 4.52453C9.51749 4.52453 9.52074 4.52453 9.52237 4.52128C9.55653 4.50014 9.59069 4.47738 9.62647 4.45462H9.62973C9.65087 4.43836 9.67202 4.42535 9.69479 4.41072C9.81842 4.33105 9.94367 4.25301 10.0705 4.17172C10.6513 3.80102 11.354 3.84817 11.8664 4.1831C12.2502 4.43348 12.5268 4.84158 12.5691 5.35536C12.5723 5.40413 12.5756 5.45291 12.5756 5.50331Z" fill="#6D4AFF"/>
<path d="M12.5756 5.50331V13.5254C12.3332 13.3709 12.0908 13.2149 11.8468 13.0604C11.7769 13.0165 11.7053 12.971 11.6272 12.9482C11.5475 12.9255 11.4564 12.9271 11.3865 12.971C11.3312 13.0067 11.2938 13.0653 11.2661 13.1254C11.245 13.1677 11.2271 13.21 11.2092 13.2539C11.1018 13.6327 10.8725 13.9595 10.5683 14.1936C10.5585 14.2001 10.5488 14.2083 10.539 14.2148C10.4788 14.2603 10.4154 14.3026 10.3487 14.3383C10.3471 14.3383 10.3438 14.3432 10.3406 14.3448C10.3406 14.3448 10.3389 14.3448 10.3373 14.3465C10.2755 14.379 10.2121 14.4099 10.1454 14.4359C10.1307 14.4424 10.1161 14.4473 10.1015 14.4522C10.051 14.4717 9.99735 14.4896 9.94367 14.5042C9.92578 14.5091 9.90626 14.5139 9.88836 14.5188C9.83631 14.5302 9.78263 14.54 9.72895 14.5481C9.71106 14.5513 9.69317 14.5546 9.67527 14.5562C9.60533 14.5643 9.53538 14.5692 9.46381 14.5692H1.78931C0.800308 14.5692 0 13.7693 0 12.7808V3.71484H6.03973C6.1113 3.71484 6.18124 3.71972 6.25119 3.72785C6.26908 3.72948 6.28698 3.73273 6.3065 3.73598C6.35855 3.74411 6.41223 3.75386 6.46428 3.76687C6.48217 3.77012 6.50169 3.775 6.52121 3.7815C6.57326 3.79614 6.62694 3.8124 6.67737 3.83191C6.69201 3.83678 6.70828 3.84166 6.72292 3.84817C6.78798 3.87418 6.85305 3.90507 6.91323 3.93922H6.91649C6.91649 3.93922 6.92299 3.94409 6.92625 3.94572C6.99131 3.98311 7.05475 4.02376 7.11494 4.06929C7.1247 4.07579 7.13446 4.08392 7.14422 4.09205C7.45003 4.32455 7.67776 4.65135 7.78674 5.03018C7.80301 5.07408 7.8209 5.11635 7.84205 5.15863C7.87133 5.21878 7.90711 5.27731 7.96404 5.31308C8.03236 5.35698 8.12346 5.35861 8.20316 5.33585C8.28124 5.31308 8.35281 5.26756 8.42276 5.22366C8.78225 4.99441 9.14173 4.76516 9.4996 4.53591C9.50285 4.53429 9.50448 4.53266 9.5061 4.53104L9.51749 4.52453C9.51749 4.52453 9.52074 4.52453 9.52237 4.52128C9.55653 4.50014 9.59069 4.47738 9.62647 4.45462H9.62973C9.65087 4.43836 9.67202 4.42535 9.69479 4.41072C9.81842 4.33105 9.94367 4.25301 10.0705 4.17172C10.6513 3.80102 11.354 3.84817 11.8664 4.1831C12.2502 4.43348 12.5268 4.84158 12.5691 5.35536C12.5723 5.40413 12.5756 5.45291 12.5756 5.50331Z" fill="url(#paint0_radial_9137_41757)"/>
<path d="M12.5756 5.50331V13.5254C12.3332 13.3709 12.0908 13.2149 11.8468 13.0604C11.7769 13.0165 11.7053 12.971 11.6272 12.9482C11.5475 12.9255 11.4564 12.9271 11.3865 12.971C11.3312 13.0067 11.2938 13.0653 11.2661 13.1254C11.245 13.1677 11.2271 13.21 11.2092 13.2539C11.1018 13.6327 10.8725 13.9595 10.5683 14.1936C10.5585 14.2001 10.5488 14.2083 10.539 14.2148C10.4788 14.2603 10.4154 14.3026 10.3487 14.3383C10.3471 14.3383 10.3438 14.3432 10.3406 14.3448C10.3406 14.3448 10.3389 14.3448 10.3373 14.3465C10.2755 14.379 10.2121 14.4099 10.1454 14.4359C10.1307 14.4424 10.1161 14.4473 10.1015 14.4522C10.051 14.4717 9.99735 14.4896 9.94367 14.5042C9.92578 14.5091 9.90626 14.5139 9.88836 14.5188C9.83631 14.5302 9.78263 14.54 9.72895 14.5481C9.71106 14.5513 9.69317 14.5546 9.67527 14.5562C9.60533 14.5643 9.53538 14.5692 9.46381 14.5692H1.78931C0.800308 14.5692 0 13.7693 0 12.7808V3.71484H6.03973C6.1113 3.71484 6.18124 3.71972 6.25119 3.72785C6.26908 3.72948 6.28698 3.73273 6.3065 3.73598C6.35855 3.74411 6.41223 3.75386 6.46428 3.76687C6.48217 3.77012 6.50169 3.775 6.52121 3.7815C6.57326 3.79614 6.62694 3.8124 6.67737 3.83191C6.69201 3.83678 6.70828 3.84166 6.72292 3.84817C6.78798 3.87418 6.85305 3.90507 6.91323 3.93922H6.91649C6.91649 3.93922 6.92299 3.94409 6.92625 3.94572C6.99131 3.98311 7.05475 4.02376 7.11494 4.06929C7.1247 4.07579 7.13446 4.08392 7.14422 4.09205C7.45003 4.32455 7.67776 4.65135 7.78674 5.03018C7.80301 5.07408 7.8209 5.11635 7.84205 5.15863C7.87133 5.21878 7.90711 5.27731 7.96404 5.31308C8.03236 5.35698 8.12346 5.35861 8.20316 5.33585C8.28124 5.31308 8.35281 5.26756 8.42276 5.22366C8.78225 4.99441 9.14173 4.76516 9.4996 4.53591C9.50285 4.53429 9.50448 4.53266 9.5061 4.53104L9.51749 4.52453C9.51749 4.52453 9.52074 4.52453 9.52237 4.52128C9.55653 4.50014 9.59069 4.47738 9.62647 4.45462H9.62973C9.65087 4.43836 9.67202 4.42535 9.69479 4.41072C9.81842 4.33105 9.94367 4.25301 10.0705 4.17172C10.6513 3.80102 11.354 3.84817 11.8664 4.1831C12.2502 4.43348 12.5268 4.84158 12.5691 5.35536C12.5723 5.40413 12.5756 5.45291 12.5756 5.50331Z" fill="#1B1340" fill-opacity="0.1"/>
<path d="M12.5756 5.50331V13.5254C12.3332 13.3709 12.0908 13.2149 11.8468 13.0604C11.7769 13.0165 11.7053 12.971 11.6272 12.9482C11.5475 12.9255 11.4564 12.9271 11.3865 12.971C11.3312 13.0067 11.2938 13.0653 11.2661 13.1254C11.245 13.1677 11.2271 13.21 11.2092 13.2539C11.1018 13.6327 10.8725 13.9595 10.5683 14.1936C10.5585 14.2001 10.5488 14.2083 10.539 14.2148C10.4788 14.2603 10.4154 14.3026 10.3487 14.3383C10.3471 14.3383 10.3438 14.3432 10.3406 14.3448C10.3406 14.3448 10.3389 14.3448 10.3373 14.3465C10.2755 14.379 10.2121 14.4099 10.1454 14.4359C10.1307 14.4424 10.1161 14.4473 10.1015 14.4522C10.051 14.4717 9.99735 14.4896 9.94367 14.5042C9.92578 14.5091 9.90626 14.5139 9.88836 14.5188C9.83631 14.5302 9.78263 14.54 9.72895 14.5481C9.71106 14.5513 9.69317 14.5546 9.67527 14.5562C9.60533 14.5643 9.53538 14.5692 9.46381 14.5692H1.78931C0.800308 14.5692 0 13.7693 0 12.7808V3.71484H6.03973C6.1113 3.71484 6.18124 3.71972 6.25119 3.72785C6.26908 3.72948 6.28698 3.73273 6.3065 3.73598C6.35855 3.74411 6.41223 3.75386 6.46428 3.76687C6.48217 3.77012 6.50169 3.775 6.52121 3.7815C6.57326 3.79614 6.62694 3.8124 6.67737 3.83191C6.69201 3.83678 6.70828 3.84166 6.72292 3.84817C6.78798 3.87418 6.85305 3.90507 6.91323 3.93922H6.91649C6.91649 3.93922 6.92299 3.94409 6.92625 3.94572C6.99131 3.98311 7.05475 4.02376 7.11494 4.06929C7.1247 4.07579 7.13446 4.08392 7.14422 4.09205C7.45003 4.32455 7.67776 4.65135 7.78674 5.03018C7.80301 5.07408 7.8209 5.11635 7.84205 5.15863C7.87133 5.21878 7.90711 5.27731 7.96404 5.31308C8.03236 5.35698 8.12346 5.35861 8.20316 5.33585C8.28124 5.31308 8.35281 5.26756 8.42276 5.22366C8.78225 4.99441 9.14173 4.76516 9.4996 4.53591C9.50285 4.53429 9.50448 4.53266 9.5061 4.53104L9.51749 4.52453C9.51749 4.52453 9.52074 4.52453 9.52237 4.52128C9.55653 4.50014 9.59069 4.47738 9.62647 4.45462H9.62973C9.65087 4.43836 9.67202 4.42535 9.69479 4.41072C9.81842 4.33105 9.94367 4.25301 10.0705 4.17172C10.6513 3.80102 11.354 3.84817 11.8664 4.1831C12.2502 4.43348 12.5268 4.84158 12.5691 5.35536C12.5723 5.40413 12.5756 5.45291 12.5756 5.50331Z" fill="url(#paint1_radial_9137_41757)"/>
<path d="M12.9237 2.25076L9.69479 4.41155C9.67202 4.42618 9.65087 4.43919 9.62973 4.45382H9.62647C9.59069 4.47821 9.55653 4.50098 9.52237 4.52211C9.52074 4.52374 9.51912 4.52374 9.51749 4.52536L9.5061 4.53187C9.5061 4.53187 9.50285 4.53512 9.4996 4.53674C9.14174 4.76599 8.78225 4.99524 8.42276 5.22449C8.35281 5.26839 8.28124 5.31391 8.20316 5.33668C8.12346 5.35944 8.03236 5.35781 7.96405 5.31391C7.90711 5.27815 7.87133 5.21961 7.84205 5.15946C7.8209 5.11718 7.80301 5.07491 7.78674 5.03101C7.67776 4.65218 7.45003 4.32538 7.14422 4.09288C7.13446 4.08475 7.1247 4.07662 7.11494 4.07012C7.05475 4.02459 6.99131 3.98394 6.92625 3.94655C6.92299 3.94655 6.91974 3.94167 6.91649 3.94005H6.91323C6.85305 3.9059 6.78798 3.87501 6.72292 3.849C6.70828 3.84249 6.69201 3.83762 6.67737 3.83274C6.62694 3.81323 6.57327 3.79697 6.52121 3.78234C6.50169 3.77583 6.48217 3.77095 6.46428 3.7677C6.41223 3.7547 6.35855 3.74494 6.3065 3.73681C6.28698 3.73356 6.26908 3.73031 6.25119 3.72868C6.18124 3.72055 6.1113 3.71567 6.03973 3.71567H0V3.21816C0 2.23125 0.800308 1.42969 1.78931 1.42969H9.46381C9.53538 1.42969 9.60533 1.43457 9.67527 1.44269C9.69317 1.44595 9.71106 1.4492 9.72895 1.45082C9.78263 1.45895 9.83631 1.46871 9.88837 1.48172C9.90626 1.48659 9.92578 1.49147 9.94367 1.49635C9.99735 1.51098 10.051 1.52887 10.1015 1.54675C10.1161 1.55325 10.1307 1.55813 10.1454 1.56301C10.2121 1.59065 10.2755 1.61992 10.3373 1.65406C10.3389 1.65406 10.3406 1.65568 10.3406 1.65568C10.3438 1.65731 10.3471 1.65894 10.3487 1.66056C10.4154 1.69796 10.4788 1.74023 10.539 1.78413C10.5488 1.79226 10.5585 1.79876 10.5683 1.80689C10.8725 2.04102 11.1018 2.36782 11.2092 2.74502C11.2271 2.78892 11.245 2.83282 11.2661 2.87347C11.2938 2.93363 11.3312 2.99216 11.3865 3.02793C11.4564 3.07345 11.5475 3.07508 11.6272 3.05069C11.7053 3.02793 11.7769 2.98403 11.8468 2.9385C12.2063 2.71088 12.5642 2.48001 12.9237 2.25076Z" fill="white" fill-opacity="0.2"/>
<path d="M12.9237 2.25076L9.69479 4.41155C9.67202 4.42618 9.65087 4.43919 9.62973 4.45382H9.62647C9.59069 4.47821 9.55653 4.50098 9.52237 4.52211C9.52074 4.52374 9.51912 4.52374 9.51749 4.52536L9.5061 4.53187C9.5061 4.53187 9.50285 4.53512 9.4996 4.53674C9.14174 4.76599 8.78225 4.99524 8.42276 5.22449C8.35281 5.26839 8.28124 5.31391 8.20316 5.33668C8.12346 5.35944 8.03236 5.35781 7.96405 5.31391C7.90711 5.27815 7.87133 5.21961 7.84205 5.15946C7.8209 5.11718 7.80301 5.07491 7.78674 5.03101C7.67776 4.65218 7.45003 4.32538 7.14422 4.09288C7.13446 4.08475 7.1247 4.07662 7.11494 4.07012C7.05475 4.02459 6.99131 3.98394 6.92625 3.94655C6.92299 3.94655 6.91974 3.94167 6.91649 3.94005H6.91323C6.85305 3.9059 6.78798 3.87501 6.72292 3.849C6.70828 3.84249 6.69201 3.83762 6.67737 3.83274C6.62694 3.81323 6.57327 3.79697 6.52121 3.78234C6.50169 3.77583 6.48217 3.77095 6.46428 3.7677C6.41223 3.7547 6.35855 3.74494 6.3065 3.73681C6.28698 3.73356 6.26908 3.73031 6.25119 3.72868C6.18124 3.72055 6.1113 3.71567 6.03973 3.71567H0V3.21816C0 2.23125 0.800308 1.42969 1.78931 1.42969H9.46381C9.53538 1.42969 9.60533 1.43457 9.67527 1.44269C9.69317 1.44595 9.71106 1.4492 9.72895 1.45082C9.78263 1.45895 9.83631 1.46871 9.88837 1.48172C9.90626 1.48659 9.92578 1.49147 9.94367 1.49635C9.99735 1.51098 10.051 1.52887 10.1015 1.54675C10.1161 1.55325 10.1307 1.55813 10.1454 1.56301C10.2121 1.59065 10.2755 1.61992 10.3373 1.65406C10.3389 1.65406 10.3406 1.65568 10.3406 1.65568C10.3438 1.65731 10.3471 1.65894 10.3487 1.66056C10.4154 1.69796 10.4788 1.74023 10.539 1.78413C10.5488 1.79226 10.5585 1.79876 10.5683 1.80689C10.8725 2.04102 11.1018 2.36782 11.2092 2.74502C11.2271 2.78892 11.245 2.83282 11.2661 2.87347C11.2938 2.93363 11.3312 2.99216 11.3865 3.02793C11.4564 3.07345 11.5475 3.07508 11.6272 3.05069C11.7053 3.02793 11.7769 2.98403 11.8468 2.9385C12.2063 2.71088 12.5642 2.48001 12.9237 2.25076Z" fill="url(#paint2_linear_9137_41757)" fill-opacity="0.65"/>
<path d="M16.0002 3.21917V12.7826C16.0002 12.833 15.9969 12.8818 15.9937 12.9306C15.8944 14.1305 14.5085 14.7629 13.4952 14.1142L12.9307 13.7549C12.9307 13.7549 12.9275 13.7516 12.9242 13.75C12.8087 13.6752 12.6916 13.602 12.5761 13.5273V5.50516C12.5761 5.45476 12.5728 5.40598 12.5696 5.3572C12.5273 4.84343 12.2508 4.43533 11.8669 4.18494C11.3545 3.85001 10.6518 3.80286 10.0711 4.17356C9.94419 4.25486 9.81894 4.3329 9.69531 4.41257L12.9242 2.25177L12.9307 2.24852L12.973 2.22088C13.0218 2.18999 13.0706 2.1591 13.1194 2.12821C13.243 2.04854 13.3683 1.96887 13.4952 1.88758C14.5085 1.24048 15.8944 1.87132 15.9937 3.07122C15.9969 3.11999 16.0002 3.16877 16.0002 3.21917Z" fill="white" fill-opacity="0.2"/>
<path d="M16.0002 3.21917V12.7826C16.0002 12.833 15.9969 12.8818 15.9937 12.9306C15.8944 14.1305 14.5085 14.7629 13.4952 14.1142L12.9307 13.7549C12.9307 13.7549 12.9275 13.7516 12.9242 13.75C12.8087 13.6752 12.6916 13.602 12.5761 13.5273V5.50516C12.5761 5.45476 12.5728 5.40598 12.5696 5.3572C12.5273 4.84343 12.2508 4.43533 11.8669 4.18494C11.3545 3.85001 10.6518 3.80286 10.0711 4.17356C9.94419 4.25486 9.81894 4.3329 9.69531 4.41257L12.9242 2.25177L12.9307 2.24852L12.973 2.22088C13.0218 2.18999 13.0706 2.1591 13.1194 2.12821C13.243 2.04854 13.3683 1.96887 13.4952 1.88758C14.5085 1.24048 15.8944 1.87132 15.9937 3.07122C15.9969 3.11999 16.0002 3.16877 16.0002 3.21917Z" fill="url(#paint3_linear_9137_41757)" fill-opacity="0.65"/>
</g>
<defs>
<radialGradient id="paint0_radial_9137_41757" cx="0" cy="0" r="1" gradientTransform="matrix(5.43267 -9.4538 11.6082 8.87181 2.28963 14.2903)" gradientUnits="userSpaceOnUse">
<stop stop-color="#B8C6E5"/>
<stop offset="0.418768" stop-color="#9388F2"/>
<stop offset="0.716275" stop-color="#6D4AFF"/>
</radialGradient>
<radialGradient id="paint1_radial_9137_41757" cx="0" cy="0" r="1" gradientTransform="matrix(11.4147 -11.0915 12.7368 17.1053 -1.00604 15.8293)" gradientUnits="userSpaceOnUse">
<stop stop-color="#82F8E1"/>
<stop offset="1" stop-color="#6E45E2"/>
</radialGradient>
<linearGradient id="paint2_linear_9137_41757" x1="1.23194" y1="-0.357948" x2="1.7333" y2="7.92728" gradientUnits="userSpaceOnUse">
<stop offset="0.1" stop-color="#6E45E2"/>
<stop offset="0.9" stop-color="#45E1CC"/>
</linearGradient>
<linearGradient id="paint3_linear_9137_41757" x1="12.1821" y1="2.83669" x2="18.8052" y2="4.69563" gradientUnits="userSpaceOnUse">
<stop offset="0.1" stop-color="#6E45E2"/>
<stop offset="1" stop-color="#45E1CC" stop-opacity="0.9"/>
</linearGradient>
<clipPath id="clip0_9137_41757">
<rect width="16" height="16" fill="white"/>
</clipPath>
</defs>
</svg>
