<svg width="16" height="16" viewBox="0 0 16 16" fill="none" xmlns="http://www.w3.org/2000/svg">
<path opacity="0.6" d="M8 14C8.82843 14 9.5 13.3284 9.5 12.5C9.5 11.6716 8.82843 11 8 11C7.17157 11 6.5 11.6716 6.5 12.5C6.5 13.3284 7.17157 14 8 14Z" fill="#FC4646"/>
<path opacity="0.2" d="M11.5001 10C10.6001 9 9.3001 8.5 8.0001 8.5C6.7001 8.5 5.4001 9 4.5001 10L3.1001 8.6C4.4001 7.2 6.1001 6.5 8.0001 6.5C9.9001 6.5 11.6001 7.2 12.9001 8.6L11.5001 10Z" fill="#FC4646"/>
<path opacity="0.1" d="M8 2C5 2 2.2 3.1 0 5.2L1.4 6.6C3.2 4.9 5.5 4 8 4C10.5 4 12.8 4.9 14.6 6.7L16 5.2C13.8 3.1 11 2 8 2Z" fill="#FC4646"/>
</svg>
