<svg width="20" height="20" viewBox="0 0 20 20" fill="none" xmlns="http://www.w3.org/2000/svg">
<path fill-rule="evenodd" clip-rule="evenodd" d="M10 17.5C14.1421 17.5 17.5 14.1421 17.5 10C17.5 5.85786 14.1421 2.5 10 2.5C5.85786 2.5 2.5 5.85786 2.5 10C2.5 14.1421 5.85786 17.5 10 17.5ZM10 18.75C14.8325 18.75 18.75 14.8325 18.75 10C18.75 5.16751 14.8325 1.25 10 1.25C5.16751 1.25 1.25 5.16751 1.25 10C1.25 14.8325 5.16751 18.75 10 18.75Z" fill="#FB7878"/>
<path fill-rule="evenodd" clip-rule="evenodd" d="M6.43306 6.43306C6.67714 6.18898 7.07286 6.18898 7.31694 6.43306L10 9.11612L12.6831 6.43306C12.9271 6.18898 13.3229 6.18898 13.5669 6.43306C13.811 6.67714 13.811 7.07286 13.5669 7.31694L10.8839 10L13.5669 12.6831C13.811 12.9271 13.811 13.3229 13.5669 13.5669C13.3229 13.811 12.9271 13.811 12.6831 13.5669L10 10.8839L7.31694 13.5669C7.07286 13.811 6.67714 13.811 6.43306 13.5669C6.18898 13.3229 6.18898 12.9271 6.43306 12.6831L9.11612 10L6.43306 7.31694C6.18898 7.07286 6.18898 6.67714 6.43306 6.43306Z" fill="#FB7878"/>
</svg>
