<svg width="20" height="20" viewBox="0 0 20 20" fill="none" xmlns="http://www.w3.org/2000/svg">
<path fill-rule="evenodd" clip-rule="evenodd" d="M15.5555 9.38338L2.76654 2.99601L4.24618 9.3761L15.5555 9.38338ZM4.23873 10.6261L15.503 10.6333L2.77357 17.0052L4.23873 10.6261ZM1.26797 2.06726C1.14117 1.51808 1.70951 1.06981 2.21267 1.32215L18.3821 9.39787C18.8723 9.64371 18.8727 10.3445 18.3829 10.5897L2.22383 18.6782C1.721 18.9299 1.15208 18.4809 1.27818 17.9319L3.03486 10.2835C3.08014 10.0864 3.08001 9.88146 3.03448 9.68428L1.26797 2.06726Z" fill="#1A1A28"/>
<path d="M3.03486 10.2835L1.27818 17.9319C1.15208 18.4809 1.721 18.9299 2.22383 18.6782L18.3829 10.5897C18.8727 10.3445 18.8723 9.64371 18.3821 9.39787L2.21267 1.32215C1.70951 1.06981 1.14117 1.51808 1.26797 2.06726L3.03448 9.68428C3.08001 9.88146 3.08014 10.0864 3.03486 10.2835ZM3.03486 10.2835L3.03763 10.2842M2.76654 2.99601L15.5555 9.38338L4.24618 9.3761L2.76654 2.99601ZM4.23873 10.6261L15.503 10.6333L2.77357 17.0052L4.23873 10.6261Z" stroke="#1A1A28" stroke-width="0.5"/>
</svg>
