<svg width="20" height="20" viewBox="0 0 20 20" fill="none" xmlns="http://www.w3.org/2000/svg">
<path fill-rule="evenodd" clip-rule="evenodd" d="M3.75 1.875V2.71338C2.29351 3.22818 1.25 4.61723 1.25 6.25V15C1.25 17.0711 2.92893 18.75 5 18.75H15C17.0711 18.75 18.75 17.0711 18.75 15V6.25C18.75 4.61723 17.7065 3.22818 16.25 2.71338V1.875C16.25 1.52982 15.9702 1.25 15.625 1.25C15.2798 1.25 15 1.52982 15 1.875V2.5H5V1.875C5 1.52982 4.72018 1.25 4.375 1.25C4.02982 1.25 3.75 1.52982 3.75 1.875ZM15 3.75H5C3.61929 3.75 2.5 4.86929 2.5 6.25L17.5 6.25C17.5 4.86929 16.3807 3.75 15 3.75ZM2.5 15V7.5H17.5V15C17.5 16.3807 16.3807 17.5 15 17.5H5C3.61929 17.5 2.5 16.3807 2.5 15ZM5.625 11.25C5.27982 11.25 5 10.9702 5 10.625C5 10.2798 5.27982 10 5.625 10C5.97018 10 6.25 10.2798 6.25 10.625C6.25 10.9702 5.97018 11.25 5.625 11.25ZM3.75 10.625C3.75 9.58947 4.58947 8.75 5.625 8.75C6.66053 8.75 7.5 9.58947 7.5 10.625C7.5 11.6605 6.66053 12.5 5.625 12.5C4.58947 12.5 3.75 11.6605 3.75 10.625Z" fill="#7BDCFF"/>
</svg>
