<svg width="70" height="70" viewBox="0 0 70 70" fill="none" xmlns="http://www.w3.org/2000/svg">
<mask id="mask0_7591_23621" style="mask-type:alpha" maskUnits="userSpaceOnUse" x="0" y="0" width="70" height="70">
<rect width="70" height="70" rx="15.1107" fill="url(#paint0_linear_7591_23621)"/>
</mask>
<g mask="url(#mask0_7591_23621)">
<rect x="-8.62109" y="-2.66016" width="87.2401" height="87.2401" rx="15.1107" fill="#3B4173"/>
<path d="M10.8467 47.6582C18.2303 47.6584 24.2157 53.6437 24.2158 61.0273C24.2158 64.0508 23.2128 66.8404 21.5205 69.0801L12.6973 83.2744C11.8224 84.6818 9.77367 84.6808 8.90039 83.2725L-0.899414 67.4639C-0.99539 67.3091 -1.07068 67.1499 -1.125 66.9883C-2.02025 65.1937 -2.52344 63.1691 -2.52344 61.0273C-2.52328 53.6436 3.46286 47.6582 10.8467 47.6582ZM57.9932 47.6582C65.377 47.6582 71.3631 53.6436 71.3633 61.0273C71.3633 64.0509 70.3593 66.8403 68.667 69.0801L59.8438 83.2744C58.9688 84.6818 56.9201 84.6809 56.0469 83.2725L46.2471 67.4639C46.1512 67.3092 46.0768 67.1498 46.0225 66.9883C45.1272 65.1937 44.624 63.1691 44.624 61.0273C44.6242 53.6436 50.6094 47.6583 57.9932 47.6582ZM10.8223 29.9785C15.3131 29.9785 18.9541 33.6195 18.9541 38.1104C18.9539 42.601 15.313 46.2412 10.8223 46.2412C6.3316 46.2411 2.69163 42.601 2.69141 38.1104C2.69141 33.6195 6.33146 29.9786 10.8223 29.9785ZM57.9697 29.9785C62.4604 29.9787 66.1006 33.6196 66.1006 38.1104C66.1004 42.6009 62.4603 46.241 57.9697 46.2412C53.479 46.2412 49.8381 42.601 49.8379 38.1104C49.8379 33.6195 53.4789 29.9785 57.9697 29.9785Z" fill="#C5B7FF"/>
<path d="M10.8467 47.6582C18.2303 47.6584 24.2157 53.6437 24.2158 61.0273C24.2158 64.0508 23.2128 66.8404 21.5205 69.0801L12.6973 83.2744C11.8224 84.6818 9.77367 84.6808 8.90039 83.2725L-0.899414 67.4639C-0.99539 67.3091 -1.07068 67.1499 -1.125 66.9883C-2.02025 65.1937 -2.52344 63.1691 -2.52344 61.0273C-2.52328 53.6436 3.46286 47.6582 10.8467 47.6582ZM57.9932 47.6582C65.377 47.6582 71.3631 53.6436 71.3633 61.0273C71.3633 64.0509 70.3593 66.8403 68.667 69.0801L59.8438 83.2744C58.9688 84.6818 56.9201 84.6809 56.0469 83.2725L46.2471 67.4639C46.1512 67.3092 46.0768 67.1498 46.0225 66.9883C45.1272 65.1937 44.624 63.1691 44.624 61.0273C44.6242 53.6436 50.6094 47.6583 57.9932 47.6582ZM10.8223 29.9785C15.3131 29.9785 18.9541 33.6195 18.9541 38.1104C18.9539 42.601 15.313 46.2412 10.8223 46.2412C6.3316 46.2411 2.69163 42.601 2.69141 38.1104C2.69141 33.6195 6.33146 29.9786 10.8223 29.9785ZM57.9697 29.9785C62.4604 29.9787 66.1006 33.6196 66.1006 38.1104C66.1004 42.6009 62.4603 46.241 57.9697 46.2412C53.479 46.2412 49.8381 42.601 49.8379 38.1104C49.8379 33.6195 53.4789 29.9785 57.9697 29.9785Z" fill="url(#paint1_linear_7591_23621)"/>
<path d="M51.2287 77.9422C53.8934 74.4157 55.4737 70.024 55.4737 65.2633C55.4737 53.637 46.0487 44.212 34.4224 44.212C22.7961 44.212 13.3711 53.637 13.3711 65.2633C13.3711 68.6356 14.1641 71.8228 15.5737 74.6484C15.6593 74.9028 15.7764 75.154 15.9276 75.3978L31.3582 100.288C32.7331 102.506 35.9591 102.508 37.3366 100.292L51.2287 77.9422Z" fill="url(#paint2_linear_7591_23621)"/>
<path d="M47.188 29.1783C47.188 36.2494 41.4558 41.9816 34.3847 41.9816C27.3137 41.9816 21.5814 36.2494 21.5814 29.1783C21.5814 22.1072 27.3137 16.375 34.3847 16.375C41.4558 16.375 47.188 22.1072 47.188 29.1783Z" fill="url(#paint3_linear_7591_23621)"/>
</g>
<defs>
<linearGradient id="paint0_linear_7591_23621" x1="0" y1="35" x2="70" y2="35" gradientUnits="userSpaceOnUse">
<stop stop-color="#C5B7FF"/>
<stop offset="1" stop-color="#6D4AFF"/>
</linearGradient>
<linearGradient id="paint1_linear_7591_23621" x1="22.9991" y1="18.998" x2="43.4991" y2="70.4981" gradientUnits="userSpaceOnUse">
<stop stop-color="white"/>
<stop offset="0.385715" stop-color="#CDCBFC"/>
<stop offset="1" stop-color="#9696F9"/>
</linearGradient>
<linearGradient id="paint2_linear_7591_23621" x1="25" y1="16" x2="42" y2="74" gradientUnits="userSpaceOnUse">
<stop stop-color="white"/>
<stop offset="0.647491" stop-color="#CDCBFC"/>
<stop offset="1" stop-color="#9696F9"/>
</linearGradient>
<linearGradient id="paint3_linear_7591_23621" x1="25" y1="16" x2="42" y2="74" gradientUnits="userSpaceOnUse">
<stop stop-color="white"/>
<stop offset="0.647491" stop-color="#CDCBFC"/>
<stop offset="1" stop-color="#9696F9"/>
</linearGradient>
</defs>
</svg>
