<svg width="20" height="20" viewBox="0 0 20 20" fill="none" xmlns="http://www.w3.org/2000/svg">
<path fill-rule="evenodd" clip-rule="evenodd" d="M17.4168 11.1207C16.8758 14.7313 13.7613 17.5 10 17.5C6.31888 17.5 3.25717 14.848 2.62124 11.3504C3.35183 12.0641 4.39617 12.3831 5.41753 12.1789L5.86721 12.0889C6.18648 12.0251 6.50129 12.217 6.59073 12.5301L7.34587 15.1731C7.51405 15.7617 7.96188 16.2294 8.54265 16.423C9.56755 16.7647 10.6664 16.1615 10.9284 15.1134L11.1141 14.3704C11.1518 14.2196 11.2444 14.0882 11.3738 14.002L12.5705 13.2042C12.842 13.0232 13.0615 12.7745 13.2075 12.4826L13.2811 12.3353C13.642 11.6135 13.5005 10.7417 12.9299 10.171L12.0581 9.29917C11.7064 8.94754 11.2295 8.75 10.7322 8.75H9.61573C9.53622 8.75 9.45743 8.73483 9.38361 8.7053L7.77133 8.06039C7.57763 7.98291 7.52626 7.73262 7.67377 7.58511C7.72827 7.53061 7.80218 7.5 7.87925 7.5H9.17179C9.40245 7.5 9.62995 7.44629 9.83627 7.34314C10.7434 6.88959 10.9395 5.68066 10.2224 4.96354L9.42572 4.16683L10.9332 3.91558C11.5567 3.81168 12.0653 3.40749 12.321 2.86604C13.4824 3.24364 14.5195 3.89698 15.3549 4.74879L14.4402 5.20615C13.6056 5.62344 13.2048 6.59092 13.4999 7.47613L14.1777 9.50946C14.3905 10.1478 14.929 10.6232 15.5887 10.7551L17.4168 11.1207ZM16.172 5.73777C16.9851 6.91298 17.4712 8.3317 17.4988 9.86238L15.8339 9.5294C15.614 9.48541 15.4345 9.32696 15.3635 9.11418L14.6858 7.08084C14.5874 6.78577 14.721 6.46328 14.9992 6.32418L16.172 5.73777ZM10 2.5C10.3391 2.5 10.6729 2.5225 11.0001 2.5661C10.9221 2.62467 10.8295 2.66563 10.7277 2.68259L9.22022 2.93384C8.21734 3.10099 7.82291 4.33179 8.54183 5.05072L9.33854 5.84742C9.45236 5.96124 9.42122 6.15312 9.27725 6.2251C9.2445 6.24148 9.2084 6.25 9.17179 6.25H7.87925C7.47066 6.25 7.07881 6.41231 6.78989 6.70123C6.00782 7.48329 6.28018 8.81022 7.30709 9.22098L8.91937 9.86589C9.14085 9.95448 9.37719 10 9.61573 10H10.7322C10.898 10 11.057 10.0658 11.1742 10.1831L12.046 11.0549C12.2362 11.2451 12.2834 11.5357 12.1631 11.7763L12.0894 11.9236C12.0408 12.0209 11.9676 12.1038 11.8771 12.1641L10.6804 12.9619C10.2923 13.2206 10.0146 13.6147 9.90145 14.0672L9.71571 14.8102C9.63029 15.1519 9.27207 15.3485 8.93794 15.2372C8.7486 15.1741 8.6026 15.0216 8.54777 14.8297L7.79264 12.1867C7.5243 11.2475 6.57987 10.6716 5.62206 10.8632L5.17239 10.9531C4.46435 11.0948 3.7379 10.8172 3.30467 10.2396L2.54006 9.22008C2.93017 5.44444 6.12123 2.5 10 2.5ZM10 18.75C14.8325 18.75 18.75 14.8325 18.75 10C18.75 5.16751 14.8325 1.25 10 1.25C5.16751 1.25 1.25 5.16751 1.25 10C1.25 14.8325 5.16751 18.75 10 18.75Z" fill="#81819A"/>
</svg>
