<svg width="29" height="29" viewBox="0 0 29 29" fill="none" xmlns="http://www.w3.org/2000/svg">
<path d="M10.2515 14.913L10.2887 11.9058C11.5559 11.5994 12.8536 11.4365 14.1572 11.4202C15.4607 11.453 16.7565 11.6304 18.0208 11.9493L18.0261 14.9553C18.0265 15.1374 18.081 15.3153 18.1828 15.4664C18.2846 15.6174 18.429 15.7347 18.5977 15.8035L23.7678 17.9025C23.9718 17.9852 24.1987 17.9918 24.4071 17.9212C24.6156 17.8505 24.7917 17.7074 24.9035 17.5178L27.0214 13.9225C27.1279 13.7437 27.1705 13.534 27.1424 13.3278C27.1143 13.1216 27.017 12.9311 26.8664 12.7874C23.3847 9.632 18.8762 7.84747 14.1781 7.76526C9.47826 7.79519 4.94908 9.53028 1.43217 12.6481C1.2792 12.7896 1.17908 12.979 1.14837 13.185C1.11766 13.3911 1.15819 13.6015 1.26327 13.7814L3.34338 17.4006C3.45273 17.5916 3.6271 17.7368 3.83466 17.8099C4.04222 17.883 4.26913 17.879 4.47399 17.7986L9.66705 15.7555C9.83731 15.6893 9.98391 15.5737 10.0881 15.4236C10.1922 15.2735 10.2491 15.0957 10.2515 14.913Z" stroke="white" stroke-width="2" stroke-miterlimit="10" stroke-linecap="square"/>
</svg>
