<svg width="22" height="22" viewBox="0 0 22 22" fill="none" xmlns="http://www.w3.org/2000/svg">
<path d="M11 21C16.5228 21 21 16.5228 21 11C21 5.47715 16.5228 1 11 1C5.47715 1 1 5.47715 1 11C1 16.5228 5.47715 21 11 21Z" stroke="white" stroke-width="2" stroke-miterlimit="10" stroke-linecap="square"/>
<path d="M11 16V10.5C11 10.224 10.776 10 10.5 10H9" stroke="white" stroke-width="2" stroke-miterlimit="10" stroke-linecap="square"/>
<path d="M11 7.5C11.6904 7.5 12.25 6.94036 12.25 6.25C12.25 5.55964 11.6904 5 11 5C10.3096 5 9.75 5.55964 9.75 6.25C9.75 6.94036 10.3096 7.5 11 7.5Z" fill="white"/>
</svg>
