<svg width="72" height="72" viewBox="0 0 72 72" fill="none" xmlns="http://www.w3.org/2000/svg">
<path d="M17.9994 68.666C14.0813 68.666 10.3988 67.1405 7.62834 64.37C1.91034 58.652 1.91034 49.346 7.62834 43.628L15.1284 36.128C17.8989 33.3575 21.5814 31.832 25.4994 31.832C29.4174 31.832 33.0999 33.3575 35.8704 36.128C41.5884 41.846 41.5884 51.152 35.8704 56.87L28.3704 64.37C25.5999 67.1405 21.9174 68.666 17.9994 68.666ZM25.4994 37.8305C23.1834 37.8305 21.0084 38.732 19.3704 40.3685L11.8703 47.8685C8.49234 51.248 8.49234 56.747 11.8703 60.1265C13.5083 61.763 15.6834 62.6645 17.9994 62.6645C20.3154 62.6645 22.4904 61.763 24.1284 60.1265L31.6284 52.6265C35.0064 49.247 35.0064 43.748 31.6284 40.3685C29.9904 38.732 27.8154 37.8305 25.4994 37.8305Z" fill="url(#paint0_linear_6607_837)"/>
<path d="M46.4993 40.166C42.5813 40.166 38.8988 38.6405 36.1283 35.87C30.4103 30.152 30.4103 20.846 36.1283 15.128L43.6283 7.62803C46.3988 4.85753 50.0813 3.33203 53.9993 3.33203C57.9173 3.33203 61.5998 4.85753 64.3703 7.62803C70.0883 13.346 70.0883 22.652 64.3703 28.37L56.8703 35.87C54.0998 38.6405 50.4173 40.166 46.4993 40.166ZM53.9993 9.33053C51.6833 9.33053 49.5083 10.232 47.8703 11.8685L40.3703 19.3685C36.9923 22.748 36.9923 28.247 40.3703 31.6265C42.0083 33.263 44.1833 34.1645 46.4993 34.1645C48.8153 34.1645 50.9903 33.263 52.6283 31.6265L60.1283 24.1265C63.5063 20.747 63.5063 15.248 60.1283 11.8685C58.4903 10.232 56.3153 9.33053 53.9993 9.33053Z" fill="url(#paint1_linear_6607_837)"/>
<path opacity="0.15" d="M40.3709 31.6265L36.1289 35.8685C37.6169 37.3565 39.3734 38.4725 41.2829 39.1985L46.3334 34.148C44.0804 34.1045 41.9684 33.2225 40.3709 31.625V31.6265Z" fill="black"/>
<path opacity="0.15" d="M35.8709 36.1289L31.6289 40.3709C33.2759 42.0194 34.1069 44.1719 34.1474 46.3379L39.1964 41.2889C38.4839 39.4079 37.3829 37.6409 35.8709 36.1289Z" fill="black"/>
<path d="M25.4996 49.4996C24.7316 49.4996 23.9651 49.2071 23.3786 48.6206C22.2071 47.4491 22.2071 45.5501 23.3786 44.3786L44.3786 23.3786C45.5501 22.2071 47.4491 22.2071 48.6206 23.3786C49.7921 24.5501 49.7921 26.4491 48.6206 27.6206L27.6206 48.6206C27.0341 49.2071 26.2676 49.4996 25.4996 49.4996Z" fill="url(#paint2_linear_6607_837)"/>
<path d="M65.9975 67.5009C65.6 67.5009 65.2175 67.3434 64.937 67.0614L4.93698 7.06128C4.36098 6.46578 4.37748 5.51628 4.97448 4.94028C5.55648 4.37928 6.47748 4.37928 7.05798 4.94028L67.058 64.9402C67.643 65.5267 67.643 66.4764 67.058 67.0614C66.7775 67.3419 66.395 67.5009 65.9975 67.5009Z" fill="url(#paint3_linear_6607_837)"/>
<defs>
<linearGradient id="paint0_linear_6607_837" x1="21.7494" y1="31.832" x2="21.7494" y2="68.666" gradientUnits="userSpaceOnUse">
<stop stop-color="#C2C3CD"/>
<stop offset="1" stop-color="#A2A3B4"/>
</linearGradient>
<linearGradient id="paint1_linear_6607_837" x1="50.2493" y1="3.33203" x2="50.2493" y2="40.166" gradientUnits="userSpaceOnUse">
<stop stop-color="#C2C3CD"/>
<stop offset="1" stop-color="#A2A3B4"/>
</linearGradient>
<linearGradient id="paint2_linear_6607_837" x1="35.9996" y1="22.4999" x2="35.9996" y2="49.4996" gradientUnits="userSpaceOnUse">
<stop stop-color="#E0E0E6"/>
<stop offset="1" stop-color="#C2C3CD"/>
</linearGradient>
<linearGradient id="paint3_linear_6607_837" x1="36.0062" y1="4.51953" x2="36.0062" y2="67.5009" gradientUnits="userSpaceOnUse">
<stop stop-color="#FF666D"/>
<stop offset="1" stop-color="#E0211F"/>
</linearGradient>
</defs>
</svg>
