<svg width="68" height="68" viewBox="0 0 68 68" fill="none" xmlns="http://www.w3.org/2000/svg">
<path d="M0 18.8889C0 8.45684 8.45684 0 18.8889 0H49.1111C59.5432 0 68 8.45684 68 18.8889V49.1111C68 59.5432 59.5432 68 49.1111 68H18.8889C8.45684 68 0 59.5432 0 49.1111V18.8889Z" fill="white"/>
<path d="M45.8893 27.5208V48.3591C45.2597 47.9579 44.6301 47.5525 43.9963 47.1512C43.8146 47.0372 43.6287 46.919 43.4259 46.8598C43.2188 46.8007 42.9822 46.8049 42.8005 46.919C42.6568 47.0119 42.5596 47.1639 42.4878 47.3202C42.4329 47.43 42.3864 47.5398 42.3399 47.6538C42.0611 48.6379 41.4653 49.4868 40.6751 50.095C40.6498 50.1119 40.6244 50.133 40.5991 50.1499C40.4427 50.2681 40.2779 50.3779 40.1047 50.4709C40.1005 50.4709 40.092 50.4835 40.0836 50.4877C40.0836 50.4877 40.0793 50.4877 40.0751 50.492C39.9145 50.5764 39.7498 50.6567 39.5765 50.7243C39.5385 50.7412 39.5005 50.7538 39.4624 50.7665C39.3314 50.8172 39.192 50.8636 39.0526 50.9016C39.0061 50.9143 38.9554 50.927 38.9089 50.9397C38.7737 50.9692 38.6342 50.9946 38.4948 51.0157C38.4483 51.0241 38.4018 51.0326 38.3554 51.0368C38.1737 51.0579 37.992 51.0706 37.8061 51.0706H17.8706C15.3016 51.0706 13.2227 48.9927 13.2227 46.4248V22.875H28.9116C29.0975 22.875 29.2792 22.8877 29.4609 22.9088C29.5074 22.913 29.5539 22.9215 29.6046 22.9299C29.7398 22.951 29.8792 22.9764 30.0144 23.0101C30.0609 23.0186 30.1116 23.0313 30.1623 23.0482C30.2975 23.0862 30.437 23.1284 30.5679 23.1791C30.606 23.1918 30.6482 23.2044 30.6863 23.2213C30.8553 23.2889 31.0243 23.3691 31.1806 23.4578H31.1891C31.1891 23.4578 31.206 23.4705 31.2144 23.4747C31.3835 23.5719 31.5482 23.6775 31.7046 23.7957C31.7299 23.8126 31.7553 23.8337 31.7806 23.8548C32.575 24.4588 33.1666 25.3077 33.4497 26.2917C33.4919 26.4058 33.5384 26.5156 33.5933 26.6254C33.6694 26.7817 33.7624 26.9337 33.9102 27.0266C34.0877 27.1407 34.3243 27.1449 34.5314 27.0858C34.7342 27.0266 34.9201 26.9084 35.1018 26.7943C36.0356 26.1988 36.9694 25.6033 37.899 25.0078C37.9075 25.0036 37.9117 24.9994 37.9159 24.9952L37.9455 24.9783C37.9455 24.9783 37.954 24.9783 37.9582 24.9698C38.0469 24.9149 38.1356 24.8558 38.2286 24.7967H38.2371C38.292 24.7544 38.3469 24.7206 38.4061 24.6826C38.7272 24.4757 39.0526 24.273 39.3821 24.0618C40.8906 23.0988 42.716 23.2213 44.047 24.0913C45.0442 24.7418 45.7625 25.8018 45.8724 27.1364C45.8808 27.2631 45.8893 27.3898 45.8893 27.5208Z" fill="#6D4AFF"/>
<path d="M45.8893 27.5208V48.3591C45.2597 47.9579 44.6301 47.5525 43.9963 47.1512C43.8146 47.0372 43.6287 46.919 43.4259 46.8598C43.2188 46.8007 42.9822 46.8049 42.8005 46.919C42.6568 47.0119 42.5596 47.1639 42.4878 47.3202C42.4329 47.43 42.3864 47.5398 42.3399 47.6538C42.0611 48.6379 41.4653 49.4868 40.6751 50.095C40.6498 50.1119 40.6244 50.133 40.5991 50.1499C40.4427 50.2681 40.2779 50.3779 40.1047 50.4709C40.1005 50.4709 40.092 50.4835 40.0836 50.4877C40.0836 50.4877 40.0793 50.4877 40.0751 50.492C39.9145 50.5764 39.7498 50.6567 39.5765 50.7243C39.5385 50.7412 39.5005 50.7538 39.4624 50.7665C39.3314 50.8172 39.192 50.8636 39.0526 50.9016C39.0061 50.9143 38.9554 50.927 38.9089 50.9397C38.7737 50.9692 38.6342 50.9946 38.4948 51.0157C38.4483 51.0241 38.4018 51.0326 38.3554 51.0368C38.1737 51.0579 37.992 51.0706 37.8061 51.0706H17.8706C15.3016 51.0706 13.2227 48.9927 13.2227 46.4248V22.875H28.9116C29.0975 22.875 29.2792 22.8877 29.4609 22.9088C29.5074 22.913 29.5539 22.9215 29.6046 22.9299C29.7398 22.951 29.8792 22.9764 30.0144 23.0101C30.0609 23.0186 30.1116 23.0313 30.1623 23.0482C30.2975 23.0862 30.437 23.1284 30.5679 23.1791C30.606 23.1918 30.6482 23.2044 30.6863 23.2213C30.8553 23.2889 31.0243 23.3691 31.1806 23.4578H31.1891C31.1891 23.4578 31.206 23.4705 31.2144 23.4747C31.3835 23.5719 31.5482 23.6775 31.7046 23.7957C31.7299 23.8126 31.7553 23.8337 31.7806 23.8548C32.575 24.4588 33.1666 25.3077 33.4497 26.2917C33.4919 26.4058 33.5384 26.5156 33.5933 26.6254C33.6694 26.7817 33.7624 26.9337 33.9102 27.0266C34.0877 27.1407 34.3243 27.1449 34.5314 27.0858C34.7342 27.0266 34.9201 26.9084 35.1018 26.7943C36.0356 26.1988 36.9694 25.6033 37.899 25.0078C37.9075 25.0036 37.9117 24.9994 37.9159 24.9952L37.9455 24.9783C37.9455 24.9783 37.954 24.9783 37.9582 24.9698C38.0469 24.9149 38.1356 24.8558 38.2286 24.7967H38.2371C38.292 24.7544 38.3469 24.7206 38.4061 24.6826C38.7272 24.4757 39.0526 24.273 39.3821 24.0618C40.8906 23.0988 42.716 23.2213 44.047 24.0913C45.0442 24.7418 45.7625 25.8018 45.8724 27.1364C45.8808 27.2631 45.8893 27.3898 45.8893 27.5208Z" fill="url(#paint0_radial_9154_60483)"/>
<path d="M45.8893 27.5208V48.3591C45.2597 47.9579 44.6301 47.5525 43.9963 47.1512C43.8146 47.0372 43.6287 46.919 43.4259 46.8598C43.2188 46.8007 42.9822 46.8049 42.8005 46.919C42.6568 47.0119 42.5596 47.1639 42.4878 47.3202C42.4329 47.43 42.3864 47.5398 42.3399 47.6538C42.0611 48.6379 41.4653 49.4868 40.6751 50.095C40.6498 50.1119 40.6244 50.133 40.5991 50.1499C40.4427 50.2681 40.2779 50.3779 40.1047 50.4709C40.1005 50.4709 40.092 50.4835 40.0836 50.4877C40.0836 50.4877 40.0793 50.4877 40.0751 50.492C39.9145 50.5764 39.7498 50.6567 39.5765 50.7243C39.5385 50.7412 39.5005 50.7538 39.4624 50.7665C39.3314 50.8172 39.192 50.8636 39.0526 50.9016C39.0061 50.9143 38.9554 50.927 38.9089 50.9397C38.7737 50.9692 38.6342 50.9946 38.4948 51.0157C38.4483 51.0241 38.4018 51.0326 38.3554 51.0368C38.1737 51.0579 37.992 51.0706 37.8061 51.0706H17.8706C15.3016 51.0706 13.2227 48.9927 13.2227 46.4248V22.875H28.9116C29.0975 22.875 29.2792 22.8877 29.4609 22.9088C29.5074 22.913 29.5539 22.9215 29.6046 22.9299C29.7398 22.951 29.8792 22.9764 30.0144 23.0101C30.0609 23.0186 30.1116 23.0313 30.1623 23.0482C30.2975 23.0862 30.437 23.1284 30.5679 23.1791C30.606 23.1918 30.6482 23.2044 30.6863 23.2213C30.8553 23.2889 31.0243 23.3691 31.1806 23.4578H31.1891C31.1891 23.4578 31.206 23.4705 31.2144 23.4747C31.3835 23.5719 31.5482 23.6775 31.7046 23.7957C31.7299 23.8126 31.7553 23.8337 31.7806 23.8548C32.575 24.4588 33.1666 25.3077 33.4497 26.2917C33.4919 26.4058 33.5384 26.5156 33.5933 26.6254C33.6694 26.7817 33.7624 26.9337 33.9102 27.0266C34.0877 27.1407 34.3243 27.1449 34.5314 27.0858C34.7342 27.0266 34.9201 26.9084 35.1018 26.7943C36.0356 26.1988 36.9694 25.6033 37.899 25.0078C37.9075 25.0036 37.9117 24.9994 37.9159 24.9952L37.9455 24.9783C37.9455 24.9783 37.954 24.9783 37.9582 24.9698C38.0469 24.9149 38.1356 24.8558 38.2286 24.7967H38.2371C38.292 24.7544 38.3469 24.7206 38.4061 24.6826C38.7272 24.4757 39.0526 24.273 39.3821 24.0618C40.8906 23.0988 42.716 23.2213 44.047 24.0913C45.0442 24.7418 45.7625 25.8018 45.8724 27.1364C45.8808 27.2631 45.8893 27.3898 45.8893 27.5208Z" fill="#1B1340" fill-opacity="0.1"/>
<path d="M45.8893 27.5208V48.3591C45.2597 47.9579 44.6301 47.5525 43.9963 47.1512C43.8146 47.0372 43.6287 46.919 43.4259 46.8598C43.2188 46.8007 42.9822 46.8049 42.8005 46.919C42.6568 47.0119 42.5596 47.1639 42.4878 47.3202C42.4329 47.43 42.3864 47.5398 42.3399 47.6538C42.0611 48.6379 41.4653 49.4868 40.6751 50.095C40.6498 50.1119 40.6244 50.133 40.5991 50.1499C40.4427 50.2681 40.2779 50.3779 40.1047 50.4709C40.1005 50.4709 40.092 50.4835 40.0836 50.4877C40.0836 50.4877 40.0793 50.4877 40.0751 50.492C39.9145 50.5764 39.7498 50.6567 39.5765 50.7243C39.5385 50.7412 39.5005 50.7538 39.4624 50.7665C39.3314 50.8172 39.192 50.8636 39.0526 50.9016C39.0061 50.9143 38.9554 50.927 38.9089 50.9397C38.7737 50.9692 38.6342 50.9946 38.4948 51.0157C38.4483 51.0241 38.4018 51.0326 38.3554 51.0368C38.1737 51.0579 37.992 51.0706 37.8061 51.0706H17.8706C15.3016 51.0706 13.2227 48.9927 13.2227 46.4248V22.875H28.9116C29.0975 22.875 29.2792 22.8877 29.4609 22.9088C29.5074 22.913 29.5539 22.9215 29.6046 22.9299C29.7398 22.951 29.8792 22.9764 30.0144 23.0101C30.0609 23.0186 30.1116 23.0313 30.1623 23.0482C30.2975 23.0862 30.437 23.1284 30.5679 23.1791C30.606 23.1918 30.6482 23.2044 30.6863 23.2213C30.8553 23.2889 31.0243 23.3691 31.1806 23.4578H31.1891C31.1891 23.4578 31.206 23.4705 31.2144 23.4747C31.3835 23.5719 31.5482 23.6775 31.7046 23.7957C31.7299 23.8126 31.7553 23.8337 31.7806 23.8548C32.575 24.4588 33.1666 25.3077 33.4497 26.2917C33.4919 26.4058 33.5384 26.5156 33.5933 26.6254C33.6694 26.7817 33.7624 26.9337 33.9102 27.0266C34.0877 27.1407 34.3243 27.1449 34.5314 27.0858C34.7342 27.0266 34.9201 26.9084 35.1018 26.7943C36.0356 26.1988 36.9694 25.6033 37.899 25.0078C37.9075 25.0036 37.9117 24.9994 37.9159 24.9952L37.9455 24.9783C37.9455 24.9783 37.954 24.9783 37.9582 24.9698C38.0469 24.9149 38.1356 24.8558 38.2286 24.7967H38.2371C38.292 24.7544 38.3469 24.7206 38.4061 24.6826C38.7272 24.4757 39.0526 24.273 39.3821 24.0618C40.8906 23.0988 42.716 23.2213 44.047 24.0913C45.0442 24.7418 45.7625 25.8018 45.8724 27.1364C45.8808 27.2631 45.8893 27.3898 45.8893 27.5208Z" fill="url(#paint1_radial_9154_60483)"/>
<path d="M46.7935 19.0625L38.4061 24.6754C38.3469 24.7135 38.292 24.7472 38.2371 24.7853H38.2286C38.1357 24.8486 38.0469 24.9077 37.9582 24.9626C37.954 24.9669 37.9497 24.9669 37.9455 24.9711L37.9159 24.988C37.9159 24.988 37.9075 24.9964 37.899 25.0007C36.9694 25.5962 36.0356 26.1917 35.1018 26.7872C34.9201 26.9012 34.7342 27.0194 34.5314 27.0786C34.3243 27.1377 34.0877 27.1335 33.9102 27.0194C33.7624 26.9265 33.6694 26.7745 33.5933 26.6182C33.5384 26.5084 33.4919 26.3986 33.4497 26.2846C33.1666 25.3005 32.575 24.4516 31.7806 23.8477C31.7553 23.8265 31.7299 23.8054 31.7046 23.7885C31.5482 23.6703 31.3835 23.5647 31.2144 23.4675C31.206 23.4675 31.1975 23.4549 31.1891 23.4507H31.1806C31.0243 23.362 30.8553 23.2817 30.6863 23.2141C30.6482 23.1972 30.606 23.1846 30.5679 23.1719C30.437 23.1212 30.2975 23.079 30.1623 23.041C30.1116 23.0241 30.0609 23.0114 30.0144 23.003C29.8792 22.9692 29.7398 22.9438 29.6046 22.9227C29.5539 22.9143 29.5074 22.9058 29.4609 22.9016C29.2792 22.8805 29.0975 22.8678 28.9116 22.8678H13.2227V21.5755C13.2227 19.0118 15.3016 16.9297 17.8706 16.9297H37.8061C37.992 16.9297 38.1737 16.9424 38.3554 16.9635C38.4019 16.9719 38.4483 16.9804 38.4948 16.9846C38.6342 17.0057 38.7737 17.031 38.9089 17.0648C38.9554 17.0775 39.0061 17.0902 39.0526 17.1028C39.192 17.1409 39.3314 17.1873 39.4624 17.2338C39.5005 17.2507 39.5385 17.2633 39.5765 17.276C39.7498 17.3478 39.9145 17.4238 40.0751 17.5125C40.0793 17.5125 40.0836 17.5167 40.0836 17.5167C40.092 17.521 40.1005 17.5252 40.1047 17.5294C40.2779 17.6266 40.4427 17.7364 40.5991 17.8504C40.6244 17.8715 40.6498 17.8884 40.6751 17.9095C41.4653 18.5177 42.0611 19.3666 42.3399 20.3464C42.3864 20.4605 42.4329 20.5745 42.4878 20.6801C42.5597 20.8364 42.6568 20.9884 42.8005 21.0813C42.9822 21.1996 43.2188 21.2038 43.4259 21.1404C43.6287 21.0813 43.8146 20.9673 43.9963 20.849C44.9301 20.2577 45.8597 19.658 46.7935 19.0625Z" fill="white"/>
<path d="M46.7935 19.0625L38.4061 24.6754C38.3469 24.7135 38.292 24.7472 38.2371 24.7853H38.2286C38.1357 24.8486 38.0469 24.9077 37.9582 24.9626C37.954 24.9669 37.9497 24.9669 37.9455 24.9711L37.9159 24.988C37.9159 24.988 37.9075 24.9964 37.899 25.0007C36.9694 25.5962 36.0356 26.1917 35.1018 26.7872C34.9201 26.9012 34.7342 27.0194 34.5314 27.0786C34.3243 27.1377 34.0877 27.1335 33.9102 27.0194C33.7624 26.9265 33.6694 26.7745 33.5933 26.6182C33.5384 26.5084 33.4919 26.3986 33.4497 26.2846C33.1666 25.3005 32.575 24.4516 31.7806 23.8477C31.7553 23.8265 31.7299 23.8054 31.7046 23.7885C31.5482 23.6703 31.3835 23.5647 31.2144 23.4675C31.206 23.4675 31.1975 23.4549 31.1891 23.4507H31.1806C31.0243 23.362 30.8553 23.2817 30.6863 23.2141C30.6482 23.1972 30.606 23.1846 30.5679 23.1719C30.437 23.1212 30.2975 23.079 30.1623 23.041C30.1116 23.0241 30.0609 23.0114 30.0144 23.003C29.8792 22.9692 29.7398 22.9438 29.6046 22.9227C29.5539 22.9143 29.5074 22.9058 29.4609 22.9016C29.2792 22.8805 29.0975 22.8678 28.9116 22.8678H13.2227V21.5755C13.2227 19.0118 15.3016 16.9297 17.8706 16.9297H37.8061C37.992 16.9297 38.1737 16.9424 38.3554 16.9635C38.4019 16.9719 38.4483 16.9804 38.4948 16.9846C38.6342 17.0057 38.7737 17.031 38.9089 17.0648C38.9554 17.0775 39.0061 17.0902 39.0526 17.1028C39.192 17.1409 39.3314 17.1873 39.4624 17.2338C39.5005 17.2507 39.5385 17.2633 39.5765 17.276C39.7498 17.3478 39.9145 17.4238 40.0751 17.5125C40.0793 17.5125 40.0836 17.5167 40.0836 17.5167C40.092 17.521 40.1005 17.5252 40.1047 17.5294C40.2779 17.6266 40.4427 17.7364 40.5991 17.8504C40.6244 17.8715 40.6498 17.8884 40.6751 17.9095C41.4653 18.5177 42.0611 19.3666 42.3399 20.3464C42.3864 20.4605 42.4329 20.5745 42.4878 20.6801C42.5597 20.8364 42.6568 20.9884 42.8005 21.0813C42.9822 21.1996 43.2188 21.2038 43.4259 21.1404C43.6287 21.0813 43.8146 20.9673 43.9963 20.849C44.9301 20.2577 45.8597 19.658 46.7935 19.0625Z" fill="url(#paint2_linear_9154_60483)" fill-opacity="0.65"/>
<path d="M54.7829 21.5801V46.4223C54.7829 46.5532 54.7745 46.6799 54.766 46.8066C54.5083 49.9235 50.9082 51.5664 48.2758 49.8813L46.8096 48.9479C46.8096 48.9479 46.8012 48.9395 46.7927 48.9352C46.4927 48.741 46.1885 48.5509 45.8885 48.3566V27.5183C45.8885 27.3873 45.88 27.2606 45.8716 27.1339C45.7617 25.7993 45.0434 24.7393 44.0462 24.0888C42.7152 23.2188 40.8898 23.0963 39.3813 24.0593C39.0518 24.2705 38.7264 24.4732 38.4053 24.6801L46.7927 19.0672L46.8096 19.0587L46.9195 18.9869C47.0462 18.9067 47.173 18.8265 47.2998 18.7462C47.6209 18.5393 47.9462 18.3323 48.2758 18.1211C50.9082 16.4402 54.5083 18.0789 54.766 21.1958C54.7745 21.3225 54.7829 21.4492 54.7829 21.5801Z" fill="white"/>
<path d="M54.7829 21.5801V46.4223C54.7829 46.5532 54.7745 46.6799 54.766 46.8066C54.5083 49.9235 50.9082 51.5664 48.2758 49.8813L46.8096 48.9479C46.8096 48.9479 46.8012 48.9395 46.7927 48.9352C46.4927 48.741 46.1885 48.5509 45.8885 48.3566V27.5183C45.8885 27.3873 45.88 27.2606 45.8716 27.1339C45.7617 25.7993 45.0434 24.7393 44.0462 24.0888C42.7152 23.2188 40.8898 23.0963 39.3813 24.0593C39.0518 24.2705 38.7264 24.4732 38.4053 24.6801L46.7927 19.0672L46.8096 19.0587L46.9195 18.9869C47.0462 18.9067 47.173 18.8265 47.2998 18.7462C47.6209 18.5393 47.9462 18.3323 48.2758 18.1211C50.9082 16.4402 54.5083 18.0789 54.766 21.1958C54.7745 21.3225 54.7829 21.4492 54.7829 21.5801Z" fill="url(#paint3_linear_9154_60483)" fill-opacity="0.65"/>
<g opacity="0.1" style="mix-blend-mode:multiply">
<path fill-rule="evenodd" clip-rule="evenodd" d="M37.8057 16.9336C37.9916 16.9336 38.1738 16.9467 38.3555 16.9678C38.4019 16.9762 38.4487 16.9841 38.4951 16.9883C38.6345 17.0094 38.774 17.0356 38.9092 17.0693C38.9556 17.082 39.0064 17.0948 39.0527 17.1074C39.1921 17.1454 39.332 17.1919 39.4629 17.2383C39.5007 17.255 39.5384 17.2677 39.5762 17.2803C39.7494 17.3521 39.9146 17.4279 40.0752 17.5166C40.0794 17.5167 40.084 17.5205 40.084 17.5205C40.0922 17.5246 40.1002 17.5291 40.1045 17.5332C40.2776 17.6303 40.4424 17.7405 40.5986 17.8545C40.624 17.8756 40.6495 17.8929 40.6748 17.9141C41.465 18.5222 42.061 19.3708 42.3398 20.3506C42.3863 20.4646 42.4334 20.579 42.4883 20.6846C42.5601 20.8407 42.6573 20.9921 42.8008 21.085C42.9825 21.2032 43.2188 21.2079 43.4258 21.1445C43.6285 21.0854 43.8145 20.9717 43.9961 20.8535C44.9227 20.2668 45.845 19.671 46.7715 19.0801L46.793 19.0664L46.8096 19.0576L46.9199 18.9863C47.0466 18.9061 47.1731 18.8253 47.2998 18.7451C47.6209 18.5382 47.9468 18.3313 48.2764 18.1201C50.9087 16.4395 54.5086 18.0778 54.7666 21.1943C54.7751 21.321 54.7832 21.4482 54.7832 21.5791V46.4209C54.7832 46.5518 54.7751 46.679 54.7666 46.8057C54.5089 49.9225 50.9088 51.565 48.2764 49.8799L46.8096 48.9473C46.8096 48.9473 46.8014 48.9388 46.793 48.9346C46.493 48.7403 46.1887 48.5497 45.8887 48.3555V27.5176C45.8887 27.3867 45.8805 27.2595 45.8721 27.1328C45.7622 25.7984 45.0439 24.7383 44.0469 24.0879C42.7159 23.2179 40.8903 23.0957 39.3818 24.0586C39.0683 24.2595 38.758 24.4519 38.4521 24.6484L38.4062 24.6797C38.3472 24.7176 38.2921 24.7511 38.2373 24.7891H38.2285C38.1356 24.8524 38.0467 24.9119 37.958 24.9668C37.9538 24.9709 37.9495 24.9714 37.9453 24.9756L37.916 24.9922C37.916 24.9922 37.9078 25.0006 37.8994 25.0049C36.9698 25.6004 36.0354 26.1955 35.1016 26.791C34.9199 26.905 34.734 27.0239 34.5312 27.083C34.3243 27.1421 34.0876 27.1374 33.9102 27.0234C33.7623 26.9305 33.6698 26.7783 33.5938 26.6221C33.5389 26.5123 33.4914 26.403 33.4492 26.2891C33.1661 25.305 32.5746 24.4555 31.7803 23.8516C31.755 23.8305 31.7293 23.8098 31.7041 23.793C31.5479 23.6748 31.3837 23.5687 31.2148 23.4717C31.2065 23.4717 31.1978 23.4595 31.1895 23.4551H31.1807C31.0244 23.3665 30.8554 23.2863 30.6865 23.2188C30.6486 23.2019 30.6063 23.1884 30.5684 23.1758C30.4374 23.1251 30.2973 23.0829 30.1621 23.0449C30.1115 23.0281 30.061 23.0153 30.0146 23.0068C29.8794 22.973 29.7397 22.9479 29.6045 22.9268C29.5538 22.9183 29.5074 22.9095 29.4609 22.9053C29.2792 22.8842 29.097 22.8721 28.9111 22.8721H13.2227V21.5791C13.2229 19.0159 15.3015 16.9339 17.8701 16.9336H37.8057Z" fill="#6D4AFF"/>
</g>
<defs>
<radialGradient id="paint0_radial_9154_60483" cx="0" cy="0" r="1" gradientTransform="matrix(14.112 -24.5574 30.1538 23.0456 19.1703 50.346)" gradientUnits="userSpaceOnUse">
<stop stop-color="#B8C6E5"/>
<stop offset="0.418768" stop-color="#9388F2"/>
<stop offset="0.716275" stop-color="#6D4AFF"/>
</radialGradient>
<radialGradient id="paint1_radial_9154_60483" cx="0" cy="0" r="1" gradientTransform="matrix(29.651 -28.8115 33.0854 44.4331 10.6094 54.3439)" gradientUnits="userSpaceOnUse">
<stop stop-color="#82F8E1"/>
<stop offset="1" stop-color="#6E45E2"/>
</radialGradient>
<linearGradient id="paint2_linear_9154_60483" x1="16.4228" y1="12.2861" x2="17.7251" y2="33.808" gradientUnits="userSpaceOnUse">
<stop offset="0.1" stop-color="#6E45E2"/>
<stop offset="0.9" stop-color="#45E1CC"/>
</linearGradient>
<linearGradient id="paint3_linear_9154_60483" x1="44.8649" y1="20.5866" x2="62.0694" y2="25.4154" gradientUnits="userSpaceOnUse">
<stop offset="0.1" stop-color="#6E45E2"/>
<stop offset="1" stop-color="#45E1CC" stop-opacity="0.9"/>
</linearGradient>
</defs>
</svg>
