<svg width="57" height="69" viewBox="0 0 57 69" fill="none" xmlns="http://www.w3.org/2000/svg">
<path d="M46.5 37.5H40.5V18C40.5 14.8174 39.2357 11.7652 36.9853 9.51472C34.7348 7.26428 31.6826 6 28.5 6C25.3174 6 22.2652 7.26428 20.0147 9.51472C17.7643 11.7652 16.5 14.8174 16.5 18V37.5H10.5V18C10.5 13.2261 12.3964 8.64773 15.7721 5.27208C19.1477 1.89642 23.7261 0 28.5 0C33.2739 0 37.8523 1.89642 41.2279 5.27208C44.6036 8.64773 46.5 13.2261 46.5 18V37.5Z" fill="url(#paint0_linear_7979_38837)"/>
<path d="M52.5 28.5039H4.5C3.30653 28.5039 2.16193 28.978 1.31802 29.8219C0.474106 30.6658 0 31.8104 0 33.0039V64.5039C0 65.6974 0.474106 66.842 1.31802 67.6859C2.16193 68.5298 3.30653 69.0039 4.5 69.0039H52.5C53.6935 69.0039 54.8381 68.5298 55.682 67.6859C56.5259 66.842 57 65.6974 57 64.5039V33.0039C57 31.8104 56.5259 30.6658 55.682 29.8219C54.8381 28.978 53.6935 28.5039 52.5 28.5039Z" fill="url(#paint1_linear_7979_38837)"/>
<path d="M52.5 28.5039H4.5C3.30653 28.5039 2.16193 28.978 1.31802 29.8219C0.474106 30.6658 0 31.8104 0 33.0039V64.5039C0 65.6974 0.474106 66.842 1.31802 67.6859C2.16193 68.5298 3.30653 69.0039 4.5 69.0039H52.5C53.6935 69.0039 54.8381 68.5298 55.682 67.6859C56.5259 66.842 57 65.6974 57 64.5039V33.0039C57 31.8104 56.5259 30.6658 55.682 29.8219C54.8381 28.978 53.6935 28.5039 52.5 28.5039Z" fill="url(#paint2_linear_7979_38837)"/>
<path d="M34.4999 45.0013C34.505 43.9469 34.232 42.9097 33.7086 41.9944C33.1852 41.079 32.4299 40.3178 31.5186 39.7873C30.6073 39.2568 29.5723 38.9758 28.5179 38.9727C27.4635 38.9695 26.4269 39.2443 25.5124 39.7693C24.598 40.2944 23.8381 41.0511 23.3092 41.9633C22.7804 42.8755 22.5013 43.911 22.5 44.9654C22.4987 46.0199 22.7754 47.056 23.302 47.9695C23.8287 48.883 24.5868 49.6415 25.4999 50.1688V58.5013C25.4999 58.8991 25.658 59.2806 25.9393 59.5619C26.2206 59.8432 26.6021 60.0013 26.9999 60.0013H29.9999C30.3978 60.0013 30.7793 59.8432 31.0606 59.5619C31.3419 59.2806 31.4999 58.8991 31.4999 58.5013V50.1688C32.4097 49.6467 33.1659 48.8942 33.6925 47.9871C34.2192 47.08 34.4976 46.0502 34.4999 45.0013Z" fill="#3B4173"/>
<defs>
<linearGradient id="paint0_linear_7979_38837" x1="28.5" y1="0" x2="28.5" y2="37.5" gradientUnits="userSpaceOnUse">
<stop stop-color="#C2C3CD"/>
<stop offset="1" stop-color="#A2A3B4"/>
</linearGradient>
<linearGradient id="paint1_linear_7979_38837" x1="28.5" y1="28.5039" x2="28.5" y2="69.0039" gradientUnits="userSpaceOnUse">
<stop stop-color="#E2DBFF"/>
<stop offset="1" stop-color="white"/>
</linearGradient>
<linearGradient id="paint2_linear_7979_38837" x1="1.5115" y1="30.896" x2="43.9654" y2="67.0859" gradientUnits="userSpaceOnUse">
<stop stop-color="white"/>
<stop offset="0.502225" stop-color="#CDCBFC"/>
<stop offset="1" stop-color="#9696F9"/>
</linearGradient>
</defs>
</svg>
