<svg width="64" height="64" viewBox="0 0 64 64" fill="none" xmlns="http://www.w3.org/2000/svg">
<g clip-path="url(#clip0_8932_6192)">
<g filter="url(#filter0_d_8932_6192)">
<path d="M40.25 1.25C41.3546 1.25 42.25 2.14543 42.25 3.25V21.25C42.25 22.3546 41.3546 23.25 40.25 23.25C39.1454 23.25 38.25 22.3546 38.25 21.25V5.25H10.1191L26.3242 15.5625C26.9009 15.9296 27.25 16.5663 27.25 17.25V46.25H38.25V33.25C38.25 32.1454 39.1454 31.25 40.25 31.25C41.3546 31.25 42.25 32.1454 42.25 33.25V48.25C42.25 49.3546 41.3546 50.25 40.25 50.25H27.25V60.25C27.25 60.9558 26.8775 61.6094 26.2705 61.9697C25.6636 62.3299 24.9116 62.3438 24.292 62.0059L2.29199 50.0059C1.64961 49.6554 1.25003 48.9818 1.25 48.25V3.25C1.25 3.18868 1.25327 3.12773 1.25879 3.06738C1.26009 3.05299 1.26207 3.03872 1.26367 3.02441C1.27549 2.92013 1.2947 2.81761 1.32227 2.71777L1.33984 2.65527C1.34281 2.64573 1.3465 2.63643 1.34961 2.62695C1.38467 2.52005 1.42827 2.41641 1.48047 2.31738C1.48809 2.30294 1.49594 2.28864 1.50391 2.27441C1.5604 2.1733 1.62592 2.07735 1.69922 1.9873C1.70536 1.97978 1.71153 1.97228 1.71777 1.96484C1.79354 1.87448 1.87722 1.7902 1.96875 1.71387C1.97764 1.70644 1.98707 1.69966 1.99609 1.69238C2.03366 1.66214 2.07235 1.6331 2.1123 1.60547C2.11884 1.60094 2.12525 1.59625 2.13184 1.5918L2.16992 1.56641C2.20797 1.54201 2.24714 1.51903 2.28711 1.49707V1.49609C2.30074 1.48859 2.31528 1.48278 2.3291 1.47559C2.36753 1.45565 2.406 1.43622 2.44531 1.41895C2.46306 1.41114 2.48101 1.40379 2.49902 1.39648C2.53906 1.38027 2.57937 1.36508 2.62012 1.35156C2.63826 1.34554 2.65643 1.33949 2.6748 1.33398C2.72509 1.31889 2.7761 1.30694 2.82715 1.2959C2.84018 1.29309 2.85309 1.28966 2.86621 1.28711C2.98688 1.26353 3.10917 1.25214 3.23145 1.25098C3.23763 1.25092 3.24381 1.25 3.25 1.25H40.25ZM5.25 47.0625L23.25 56.8799V18.3477L5.25 6.89355V47.0625ZM48.8359 14.8359C49.617 14.0549 50.883 14.0549 51.6641 14.8359L62.6641 25.8359C62.7109 25.8827 62.7549 25.9322 62.7969 25.9834C62.8093 25.9985 62.8201 26.0149 62.832 26.0303C62.8599 26.0664 62.8877 26.1026 62.9131 26.1406C62.9255 26.1592 62.9365 26.1784 62.9482 26.1973C63.0046 26.288 63.0552 26.3827 63.0967 26.4824C63.1077 26.509 63.1161 26.5365 63.126 26.5635C63.1611 26.6595 63.1907 26.7581 63.2109 26.8604C63.2164 26.8882 63.2193 26.9164 63.2236 26.9443C63.239 27.0441 63.25 27.1459 63.25 27.25C63.25 27.3538 63.2389 27.4552 63.2236 27.5547C63.2193 27.5827 63.2164 27.6109 63.2109 27.6387C63.19 27.7447 63.159 27.847 63.1221 27.9463C63.114 27.9681 63.1065 27.9901 63.0977 28.0117C63.0558 28.1131 63.0055 28.2096 62.9482 28.3018C62.9368 28.3202 62.9262 28.3393 62.9141 28.3574C62.8406 28.4676 62.7574 28.5707 62.6641 28.6641L51.6641 39.6641C50.8831 40.4451 49.617 40.445 48.8359 39.6641C48.0549 38.883 48.0549 37.617 48.8359 36.8359L56.4219 29.25H32.25C31.1454 29.25 30.25 28.3546 30.25 27.25C30.25 26.1454 31.1454 25.25 32.25 25.25H56.4219L48.8359 17.6641C48.0549 16.883 48.0549 15.617 48.8359 14.8359Z" fill="url(#paint0_linear_8932_6192)"/>
</g>
</g>
<defs>
<filter id="filter0_d_8932_6192" x="-126.75" y="-101.15" width="318" height="317" filterUnits="userSpaceOnUse" color-interpolation-filters="sRGB">
<feFlood flood-opacity="0" result="BackgroundImageFix"/>
<feColorMatrix in="SourceAlpha" type="matrix" values="0 0 0 0 0 0 0 0 0 0 0 0 0 0 0 0 0 0 127 0" result="hardAlpha"/>
<feOffset dy="25.6"/>
<feGaussianBlur stdDeviation="64"/>
<feComposite in2="hardAlpha" operator="out"/>
<feColorMatrix type="matrix" values="0 0 0 0 0 0 0 0 0 0 0 0 0 0 0 0 0 0 0.16 0"/>
<feBlend mode="normal" in2="BackgroundImageFix" result="effect1_dropShadow_8932_6192"/>
<feBlend mode="normal" in="SourceGraphic" in2="effect1_dropShadow_8932_6192" result="shape"/>
</filter>
<linearGradient id="paint0_linear_8932_6192" x1="18.3746" y1="0.982701" x2="24.6183" y2="44.991" gradientUnits="userSpaceOnUse">
<stop stop-color="white"/>
<stop offset="0.647491" stop-color="#CDCBFC"/>
<stop offset="1" stop-color="#9696F9"/>
</linearGradient>
<clipPath id="clip0_8932_6192">
<rect width="64" height="64" fill="white"/>
</clipPath>
</defs>
</svg>
