<svg width="68" height="68" viewBox="0 0 68 68" fill="none" xmlns="http://www.w3.org/2000/svg">
<path d="M0 18.8889C0 8.45684 8.45684 0 18.8889 0H49.1111C59.5432 0 68 8.45684 68 18.8889V49.1111C68 59.5432 59.5432 68 49.1111 68H18.8889C8.45684 68 0 59.5432 0 49.1111V18.8889Z" fill="white"/>
<path d="M45.8893 27.5188V48.3572C45.2597 47.956 44.6301 47.5505 43.9963 47.1493C43.8146 47.0353 43.6287 46.917 43.4259 46.8579C43.2188 46.7987 42.9822 46.803 42.8005 46.917C42.6568 47.0099 42.5596 47.162 42.4878 47.3182C42.4329 47.428 42.3864 47.5378 42.3399 47.6519C42.0611 48.6359 41.4653 49.4848 40.6751 50.093C40.6498 50.1099 40.6244 50.131 40.5991 50.1479C40.4427 50.2662 40.2779 50.376 40.1047 50.4689C40.1005 50.4689 40.092 50.4816 40.0836 50.4858C40.0836 50.4858 40.0793 50.4858 40.0751 50.49C39.9145 50.5745 39.7498 50.6547 39.5765 50.7223C39.5385 50.7392 39.5005 50.7519 39.4624 50.7645C39.3314 50.8152 39.192 50.8617 39.0526 50.8997C39.0061 50.9124 38.9554 50.925 38.9089 50.9377C38.7737 50.9673 38.6342 50.9926 38.4948 51.0137C38.4483 51.0222 38.4018 51.0306 38.3554 51.0348C38.1737 51.056 37.992 51.0686 37.8061 51.0686H17.8706C15.3016 51.0686 13.2227 48.9907 13.2227 46.4229V22.873H28.9116C29.0975 22.873 29.2792 22.8857 29.4609 22.9068C29.5074 22.9111 29.5539 22.9195 29.6046 22.928C29.7398 22.9491 29.8792 22.9744 30.0144 23.0082C30.0609 23.0166 30.1116 23.0293 30.1623 23.0462C30.2975 23.0842 30.437 23.1265 30.5679 23.1771C30.606 23.1898 30.6482 23.2025 30.6863 23.2194C30.8553 23.2869 31.0243 23.3672 31.1806 23.4559H31.1891C31.1891 23.4559 31.206 23.4685 31.2144 23.4728C31.3835 23.5699 31.5482 23.6755 31.7046 23.7938C31.7299 23.8106 31.7553 23.8318 31.7806 23.8529C32.575 24.4568 33.1666 25.3057 33.4497 26.2898C33.4919 26.4038 33.5384 26.5136 33.5933 26.6234C33.6694 26.7797 33.7624 26.9318 33.9102 27.0247C34.0877 27.1387 34.3243 27.1429 34.5314 27.0838C34.7342 27.0247 34.9201 26.9064 35.1018 26.7924C36.0356 26.1969 36.9694 25.6014 37.899 25.0059C37.9075 25.0017 37.9117 24.9974 37.9159 24.9932L37.9455 24.9763C37.9455 24.9763 37.954 24.9763 37.9582 24.9679C38.0469 24.913 38.1356 24.8538 38.2286 24.7947H38.2371C38.292 24.7525 38.3469 24.7187 38.4061 24.6807C38.7272 24.4737 39.0526 24.271 39.3821 24.0598C40.8906 23.0969 42.716 23.2194 44.047 24.0894C45.0442 24.7398 45.7625 25.7999 45.8724 27.1345C45.8808 27.2612 45.8893 27.3879 45.8893 27.5188Z" fill="#6D4AFF"/>
<path d="M45.8893 27.5188V48.3572C45.2597 47.956 44.6301 47.5505 43.9963 47.1493C43.8146 47.0353 43.6287 46.917 43.4259 46.8579C43.2188 46.7987 42.9822 46.803 42.8005 46.917C42.6568 47.0099 42.5596 47.162 42.4878 47.3182C42.4329 47.428 42.3864 47.5378 42.3399 47.6519C42.0611 48.6359 41.4653 49.4848 40.6751 50.093C40.6498 50.1099 40.6244 50.131 40.5991 50.1479C40.4427 50.2662 40.2779 50.376 40.1047 50.4689C40.1005 50.4689 40.092 50.4816 40.0836 50.4858C40.0836 50.4858 40.0793 50.4858 40.0751 50.49C39.9145 50.5745 39.7498 50.6547 39.5765 50.7223C39.5385 50.7392 39.5005 50.7519 39.4624 50.7645C39.3314 50.8152 39.192 50.8617 39.0526 50.8997C39.0061 50.9124 38.9554 50.925 38.9089 50.9377C38.7737 50.9673 38.6342 50.9926 38.4948 51.0137C38.4483 51.0222 38.4018 51.0306 38.3554 51.0348C38.1737 51.056 37.992 51.0686 37.8061 51.0686H17.8706C15.3016 51.0686 13.2227 48.9907 13.2227 46.4229V22.873H28.9116C29.0975 22.873 29.2792 22.8857 29.4609 22.9068C29.5074 22.9111 29.5539 22.9195 29.6046 22.928C29.7398 22.9491 29.8792 22.9744 30.0144 23.0082C30.0609 23.0166 30.1116 23.0293 30.1623 23.0462C30.2975 23.0842 30.437 23.1265 30.5679 23.1771C30.606 23.1898 30.6482 23.2025 30.6863 23.2194C30.8553 23.2869 31.0243 23.3672 31.1806 23.4559H31.1891C31.1891 23.4559 31.206 23.4685 31.2144 23.4728C31.3835 23.5699 31.5482 23.6755 31.7046 23.7938C31.7299 23.8106 31.7553 23.8318 31.7806 23.8529C32.575 24.4568 33.1666 25.3057 33.4497 26.2898C33.4919 26.4038 33.5384 26.5136 33.5933 26.6234C33.6694 26.7797 33.7624 26.9318 33.9102 27.0247C34.0877 27.1387 34.3243 27.1429 34.5314 27.0838C34.7342 27.0247 34.9201 26.9064 35.1018 26.7924C36.0356 26.1969 36.9694 25.6014 37.899 25.0059C37.9075 25.0017 37.9117 24.9974 37.9159 24.9932L37.9455 24.9763C37.9455 24.9763 37.954 24.9763 37.9582 24.9679C38.0469 24.913 38.1356 24.8538 38.2286 24.7947H38.2371C38.292 24.7525 38.3469 24.7187 38.4061 24.6807C38.7272 24.4737 39.0526 24.271 39.3821 24.0598C40.8906 23.0969 42.716 23.2194 44.047 24.0894C45.0442 24.7398 45.7625 25.7999 45.8724 27.1345C45.8808 27.2612 45.8893 27.3879 45.8893 27.5188Z" fill="url(#paint0_radial_7858_18063)"/>
<g style="mix-blend-mode:multiply">
<path d="M45.8893 27.5188V48.3572C45.2597 47.956 44.6301 47.5505 43.9963 47.1493C43.8146 47.0353 43.6287 46.917 43.4259 46.8579C43.2188 46.7987 42.9822 46.803 42.8005 46.917C42.6568 47.0099 42.5596 47.162 42.4878 47.3182C42.4329 47.428 42.3864 47.5378 42.3399 47.6519C42.0611 48.6359 41.4653 49.4848 40.6751 50.093C40.6498 50.1099 40.6244 50.131 40.5991 50.1479C40.4427 50.2662 40.2779 50.376 40.1047 50.4689C40.1005 50.4689 40.092 50.4816 40.0836 50.4858C40.0836 50.4858 40.0793 50.4858 40.0751 50.49C39.9145 50.5745 39.7498 50.6547 39.5765 50.7223C39.5385 50.7392 39.5005 50.7519 39.4624 50.7645C39.3314 50.8152 39.192 50.8617 39.0526 50.8997C39.0061 50.9124 38.9554 50.925 38.9089 50.9377C38.7737 50.9673 38.6342 50.9926 38.4948 51.0137C38.4483 51.0222 38.4018 51.0306 38.3554 51.0348C38.1737 51.056 37.992 51.0686 37.8061 51.0686H17.8706C15.3016 51.0686 13.2227 48.9907 13.2227 46.4229V22.873H28.9116C29.0975 22.873 29.2792 22.8857 29.4609 22.9068C29.5074 22.9111 29.5539 22.9195 29.6046 22.928C29.7398 22.9491 29.8792 22.9744 30.0144 23.0082C30.0609 23.0166 30.1116 23.0293 30.1623 23.0462C30.2975 23.0842 30.437 23.1265 30.5679 23.1771C30.606 23.1898 30.6482 23.2025 30.6863 23.2194C30.8553 23.2869 31.0243 23.3672 31.1806 23.4559H31.1891C31.1891 23.4559 31.206 23.4685 31.2144 23.4728C31.3835 23.5699 31.5482 23.6755 31.7046 23.7938C31.7299 23.8106 31.7553 23.8318 31.7806 23.8529C32.575 24.4568 33.1666 25.3057 33.4497 26.2898C33.4919 26.4038 33.5384 26.5136 33.5933 26.6234C33.6694 26.7797 33.7624 26.9318 33.9102 27.0247C34.0877 27.1387 34.3243 27.1429 34.5314 27.0838C34.7342 27.0247 34.9201 26.9064 35.1018 26.7924C36.0356 26.1969 36.9694 25.6014 37.899 25.0059C37.9075 25.0017 37.9117 24.9974 37.9159 24.9932L37.9455 24.9763C37.9455 24.9763 37.954 24.9763 37.9582 24.9679C38.0469 24.913 38.1356 24.8538 38.2286 24.7947H38.2371C38.292 24.7525 38.3469 24.7187 38.4061 24.6807C38.7272 24.4737 39.0526 24.271 39.3821 24.0598C40.8906 23.0969 42.716 23.2194 44.047 24.0894C45.0442 24.7398 45.7625 25.7999 45.8724 27.1345C45.8808 27.2612 45.8893 27.3879 45.8893 27.5188Z" fill="#1B1340" fill-opacity="0.1"/>
</g>
<path opacity="0.2" d="M45.8893 27.5188V48.3572C45.2597 47.956 44.6301 47.5505 43.9963 47.1493C43.8146 47.0353 43.6287 46.917 43.4259 46.8579C43.2188 46.7987 42.9822 46.803 42.8005 46.917C42.6568 47.0099 42.5596 47.162 42.4878 47.3182C42.4329 47.428 42.3864 47.5378 42.3399 47.6519C42.0611 48.6359 41.4653 49.4848 40.6751 50.093C40.6498 50.1099 40.6244 50.131 40.5991 50.1479C40.4427 50.2662 40.2779 50.376 40.1047 50.4689C40.1005 50.4689 40.092 50.4816 40.0836 50.4858C40.0836 50.4858 40.0793 50.4858 40.0751 50.49C39.9145 50.5745 39.7498 50.6547 39.5765 50.7223C39.5385 50.7392 39.5005 50.7519 39.4624 50.7645C39.3314 50.8152 39.192 50.8617 39.0526 50.8997C39.0061 50.9124 38.9554 50.925 38.9089 50.9377C38.7737 50.9673 38.6342 50.9926 38.4948 51.0137C38.4483 51.0222 38.4018 51.0306 38.3554 51.0348C38.1737 51.056 37.992 51.0686 37.8061 51.0686H17.8706C15.3016 51.0686 13.2227 48.9907 13.2227 46.4229V22.873H28.9116C29.0975 22.873 29.2792 22.8857 29.4609 22.9068C29.5074 22.9111 29.5539 22.9195 29.6046 22.928C29.7398 22.9491 29.8792 22.9744 30.0144 23.0082C30.0609 23.0166 30.1116 23.0293 30.1623 23.0462C30.2975 23.0842 30.437 23.1265 30.5679 23.1771C30.606 23.1898 30.6482 23.2025 30.6863 23.2194C30.8553 23.2869 31.0243 23.3672 31.1806 23.4559H31.1891C31.1891 23.4559 31.206 23.4685 31.2144 23.4728C31.3835 23.5699 31.5482 23.6755 31.7046 23.7938C31.7299 23.8106 31.7553 23.8318 31.7806 23.8529C32.575 24.4568 33.1666 25.3057 33.4497 26.2898C33.4919 26.4038 33.5384 26.5136 33.5933 26.6234C33.6694 26.7797 33.7624 26.9318 33.9102 27.0247C34.0877 27.1387 34.3243 27.1429 34.5314 27.0838C34.7342 27.0247 34.9201 26.9064 35.1018 26.7924C36.0356 26.1969 36.9694 25.6014 37.899 25.0059C37.9075 25.0017 37.9117 24.9974 37.9159 24.9932L37.9455 24.9763C37.9455 24.9763 37.954 24.9763 37.9582 24.9679C38.0469 24.913 38.1356 24.8538 38.2286 24.7947H38.2371C38.292 24.7525 38.3469 24.7187 38.4061 24.6807C38.7272 24.4737 39.0526 24.271 39.3821 24.0598C40.8906 23.0969 42.716 23.2194 44.047 24.0894C45.0442 24.7398 45.7625 25.7999 45.8724 27.1345C45.8808 27.2612 45.8893 27.3879 45.8893 27.5188Z" fill="#6D4AFF"/>
<path d="M46.7935 19.0664L38.4061 24.6794C38.3469 24.7174 38.292 24.7512 38.2371 24.7892H38.2286C38.1357 24.8525 38.0469 24.9116 37.9582 24.9665C37.954 24.9708 37.9497 24.9708 37.9455 24.975L37.9159 24.9919C37.9159 24.9919 37.9075 25.0003 37.899 25.0046C36.9694 25.6001 36.0356 26.1956 35.1018 26.7911C34.9201 26.9051 34.7342 27.0234 34.5314 27.0825C34.3243 27.1416 34.0877 27.1374 33.9102 27.0234C33.7624 26.9304 33.6694 26.7784 33.5933 26.6221C33.5384 26.5123 33.4919 26.4025 33.4497 26.2885C33.1666 25.3044 32.575 24.4555 31.7806 23.8516C31.7553 23.8304 31.7299 23.8093 31.7046 23.7924C31.5482 23.6742 31.3835 23.5686 31.2144 23.4715C31.206 23.4715 31.1975 23.4588 31.1891 23.4546H31.1806C31.0243 23.3659 30.8553 23.2856 30.6863 23.218C30.6482 23.2012 30.606 23.1885 30.5679 23.1758C30.437 23.1251 30.2975 23.0829 30.1623 23.0449C30.1116 23.028 30.0609 23.0153 30.0144 23.0069C29.8792 22.9731 29.7398 22.9477 29.6046 22.9266C29.5539 22.9182 29.5074 22.9097 29.4609 22.9055C29.2792 22.8844 29.0975 22.8717 28.9116 22.8717H13.2227V21.5794C13.2227 19.0157 15.3016 16.9336 17.8706 16.9336H37.8061C37.992 16.9336 38.1737 16.9463 38.3554 16.9674C38.4019 16.9758 38.4483 16.9843 38.4948 16.9885C38.6342 17.0096 38.7737 17.035 38.9089 17.0687C38.9554 17.0814 39.0061 17.0941 39.0526 17.1068C39.192 17.1448 39.3314 17.1912 39.4624 17.2377C39.5005 17.2546 39.5385 17.2672 39.5765 17.2799C39.7498 17.3517 39.9145 17.4277 40.0751 17.5164C40.0793 17.5164 40.0836 17.5206 40.0836 17.5206C40.092 17.5249 40.1005 17.5291 40.1047 17.5333C40.2779 17.6305 40.4427 17.7403 40.5991 17.8543C40.6244 17.8754 40.6498 17.8923 40.6751 17.9134C41.4653 18.5216 42.0611 19.3705 42.3399 20.3503C42.3864 20.4644 42.4329 20.5784 42.4878 20.684C42.5597 20.8403 42.6568 20.9923 42.8005 21.0852C42.9822 21.2035 43.2188 21.2077 43.4259 21.1443C43.6287 21.0852 43.8146 20.9712 43.9963 20.8529C44.9301 20.2617 45.8597 19.6619 46.7935 19.0664Z" fill="url(#paint1_linear_7858_18063)"/>
<path d="M54.7839 21.5801V46.4223C54.7839 46.5532 54.7755 46.6799 54.767 46.8066C54.5093 49.9235 50.9092 51.5664 48.2768 49.8813L46.8106 48.9479C46.8106 48.9479 46.8021 48.9395 46.7937 48.9352C46.4937 48.741 46.1894 48.5509 45.8894 48.3566V27.5183C45.8894 27.3873 45.881 27.2606 45.8725 27.1339C45.7627 25.7993 45.0444 24.7393 44.0472 24.0888C42.7162 23.2188 40.8908 23.0963 39.3823 24.0593C39.0527 24.2705 38.7274 24.4732 38.4062 24.6801L46.7937 19.0672L46.8106 19.0587L46.9204 18.9869C47.0472 18.9067 47.174 18.8265 47.3007 18.7462C47.6219 18.5393 47.9472 18.3323 48.2768 18.1211C50.9092 16.4402 54.5093 18.0789 54.767 21.1958C54.7755 21.3225 54.7839 21.4492 54.7839 21.5801Z" fill="url(#paint2_linear_7858_18063)"/>
<g style="mix-blend-mode:multiply" opacity="0.1">
<path d="M48.2754 18.1221C50.9077 16.4412 54.5076 18.0797 54.7656 21.1963C54.7741 21.323 54.7822 21.4501 54.7822 21.5811V46.4229C54.7822 46.5538 54.7741 46.6809 54.7656 46.8076C54.5078 49.9244 50.9078 51.567 48.2754 49.8818L46.8096 48.9492C46.8096 48.9492 46.8004 48.9407 46.792 48.9365C46.492 48.7423 46.1877 48.5517 45.8877 48.3574V27.5195C45.8877 27.3886 45.8795 27.2615 45.8711 27.1348C45.7612 25.8002 45.043 24.7402 44.0459 24.0898C42.7149 23.2198 40.8893 23.0976 39.3809 24.0605C39.0515 24.2716 38.7262 24.4739 38.4053 24.6807L46.792 19.0684L46.8096 19.0596L46.9189 18.9883C47.0457 18.908 47.173 18.8273 47.2998 18.7471C47.6208 18.5402 47.9459 18.3332 48.2754 18.1221ZM37.8057 16.9336C37.9914 16.9336 38.1729 16.9467 38.3545 16.9678C38.4009 16.9762 38.4477 16.9841 38.4941 16.9883C38.6335 17.0094 38.7731 17.0346 38.9082 17.0684C38.9545 17.081 39.0054 17.0938 39.0518 17.1064C39.1911 17.1444 39.331 17.1909 39.4619 17.2373C39.4999 17.2542 39.5381 17.2676 39.5762 17.2803C39.7492 17.352 39.9138 17.428 40.0742 17.5166C40.078 17.5166 40.0823 17.5198 40.083 17.5205C40.0915 17.5247 40.1003 17.529 40.1045 17.5332C40.2777 17.6303 40.4423 17.7405 40.5986 17.8545C40.6239 17.8755 40.6495 17.892 40.6748 17.9131C41.465 18.5213 42.061 19.3708 42.3398 20.3506C42.3862 20.4644 42.4325 20.5782 42.4873 20.6836C42.5591 20.8398 42.6563 20.992 42.7998 21.085C42.9815 21.2032 43.2187 21.2079 43.4258 21.1445C43.6285 21.0854 43.8145 20.9707 43.9961 20.8525C44.9298 20.2613 45.8593 19.6618 46.793 19.0664L38.4053 24.6797C38.3463 24.7176 38.2911 24.7511 38.2363 24.7891H38.2285C38.1356 24.8524 38.0467 24.9119 37.958 24.9668C37.9539 24.9709 37.9494 24.9707 37.9453 24.9746L37.915 24.9922C37.9133 24.9939 37.9058 25.0012 37.8984 25.0049C36.969 25.6003 36.0352 26.1956 35.1016 26.791C34.92 26.905 34.7339 27.0229 34.5312 27.082C34.3243 27.1411 34.0876 27.1373 33.9102 27.0234C33.7623 26.9305 33.6688 26.7783 33.5928 26.6221C33.5379 26.5123 33.4915 26.4021 33.4492 26.2881C33.1661 25.3042 32.5745 24.4554 31.7803 23.8516C31.7549 23.8304 31.7295 23.8089 31.7041 23.792C31.5478 23.6738 31.3828 23.5688 31.2139 23.4717C31.2055 23.4715 31.1969 23.4583 31.1885 23.4541H31.1807C31.0243 23.3654 30.8546 23.2853 30.6855 23.2178C30.6476 23.201 30.6053 23.1884 30.5674 23.1758C30.4365 23.1251 30.2972 23.0829 30.1621 23.0449C30.1114 23.028 30.0602 23.0153 30.0137 23.0068C29.8787 22.9731 29.7395 22.9478 29.6045 22.9268C29.554 22.9183 29.5073 22.9095 29.4609 22.9053C29.2792 22.8842 29.0971 22.8721 28.9111 22.8721H13.2227V21.5791C13.2228 19.0156 15.3012 16.9336 17.8701 16.9336H37.8057Z" fill="#6D4AFF"/>
</g>
<defs>
<radialGradient id="paint0_radial_7858_18063" cx="0" cy="0" r="1" gradientTransform="matrix(14.112 -24.5574 30.1538 23.0456 19.1703 50.3441)" gradientUnits="userSpaceOnUse">
<stop stop-color="#B8C6E5"/>
<stop offset="0.418768" stop-color="#9388F2"/>
<stop offset="0.716275" stop-color="#6D4AFF"/>
</radialGradient>
<linearGradient id="paint1_linear_7858_18063" x1="15.6005" y1="13.5074" x2="24.038" y2="31.7745" gradientUnits="userSpaceOnUse">
<stop stop-color="#6652F5"/>
<stop offset="0.33754" stop-color="#9A9CF9"/>
<stop offset="0.868809" stop-color="#D9DAFC"/>
</linearGradient>
<linearGradient id="paint2_linear_7858_18063" x1="41.942" y1="14.8302" x2="61.4291" y2="20.8358" gradientUnits="userSpaceOnUse">
<stop stop-color="#6652F5"/>
<stop offset="0.33754" stop-color="#9A9CF9"/>
<stop offset="0.868809" stop-color="#D9DAFC"/>
</linearGradient>
</defs>
</svg>
