<svg width="72" height="72" viewBox="0 0 72 72" fill="none" xmlns="http://www.w3.org/2000/svg">
<path d="M69.13 15.5368C69.0969 15.0079 68.8872 14.5053 68.5345 14.1097C68.1818 13.7141 67.7066 13.4483 67.1849 13.355C54.4593 11.074 49.1045 9.29003 37.6126 4.11864C36.4647 3.69114 35.7532 3.69854 34.6542 4.11864C23.1622 9.29595 17.8075 11.071 5.08186 13.355C4.56016 13.4483 4.0849 13.7141 3.73221 14.1097C3.37952 14.5053 3.16982 15.0079 3.13671 15.5368C2.56721 24.5749 3.77868 32.9918 6.74005 40.558C9.16167 46.7278 12.749 52.3733 17.306 57.1861C23.9136 64.2021 31.2401 68.2981 35.018 69.8483C35.7344 70.1406 36.5368 70.1406 37.2531 69.8483C41.247 68.233 48.3013 64.2539 54.9607 57.1831C59.5174 52.3712 63.1047 46.7267 65.5267 40.558C68.488 32.9932 69.6995 24.5749 69.13 15.5368Z" fill="#222247"/>
<path d="M69.13 12.736C69.0969 12.2071 68.8872 11.7045 68.5345 11.3089C68.1818 10.9133 67.7066 10.6476 67.1849 10.5542C54.4593 8.2732 49.1045 6.48925 37.6126 1.31786C36.4647 0.890358 35.7532 0.897754 34.6542 1.31786C23.1622 6.49517 17.8075 8.27025 5.08186 10.5542C4.56016 10.6476 4.0849 10.9133 3.73221 11.3089C3.37952 11.7045 3.16982 12.2071 3.13671 12.736C2.56721 21.7742 3.77868 30.191 6.74005 37.7573C9.16167 43.927 12.749 49.5725 17.306 54.3853C23.9136 61.4013 31.2401 65.4973 35.018 67.0475C35.7344 67.3398 36.5368 67.3398 37.2531 67.0475C41.247 65.4322 48.3013 61.4531 54.9607 54.3823C59.5174 49.5704 63.1047 43.9259 65.5267 37.7573C68.488 30.1925 69.6995 21.7742 69.13 12.736Z" fill="#3B4173"/>
<mask id="mask0_6607_13606" style="mask-type:alpha" maskUnits="userSpaceOnUse" x="3" y="1" width="67" height="67">
<path d="M69.13 12.736C69.0969 12.2071 68.8872 11.7045 68.5345 11.3089C68.1818 10.9133 67.7066 10.6476 67.1849 10.5542C54.4593 8.2732 49.1045 6.48925 37.6126 1.31786C36.4647 0.890358 35.7532 0.897754 34.6542 1.31786C23.1622 6.49517 17.8075 8.27025 5.08186 10.5542C4.56016 10.6476 4.0849 10.9133 3.73221 11.3089C3.37952 11.7045 3.16982 12.2071 3.13671 12.736C2.56721 21.7742 3.77868 30.191 6.74005 37.7573C9.16167 43.927 12.749 49.5725 17.306 54.3853C23.9136 61.4013 31.2401 65.4973 35.018 67.0475C35.7344 67.3398 36.5368 67.3398 37.2531 67.0475C41.247 65.4322 48.3013 61.4531 54.9607 54.3823C59.5174 49.5704 63.1047 43.9259 65.5267 37.7573C68.488 30.1925 69.6995 21.7742 69.13 12.736Z" fill="#3B4173"/>
</mask>
<g mask="url(#mask0_6607_13606)">
<path d="M36.4414 42.5156C50.2721 42.5156 61.4841 53.728 61.4844 67.5586C61.4844 73.2168 59.607 78.4366 56.4424 82.6299L39.9102 109.229C38.2714 111.865 34.4335 111.863 32.7979 109.225L14.4414 79.6143C14.2645 79.3288 14.1287 79.0341 14.0273 78.7363C12.3462 75.3716 11.3984 71.5758 11.3984 67.5586C11.3987 53.728 22.6107 42.5157 36.4414 42.5156Z" fill="url(#paint0_linear_6607_13606)"/>
<path d="M36.4414 42.5156C50.2721 42.5156 61.4841 53.728 61.4844 67.5586C61.4844 73.2168 59.607 78.4366 56.4424 82.6299L39.9102 109.229C38.2714 111.865 34.4335 111.863 32.7979 109.225L14.4414 79.6143C14.2645 79.3288 14.1287 79.0341 14.0273 78.7363C12.3462 75.3716 11.3984 71.5758 11.3984 67.5586C11.3987 53.728 22.6107 42.5157 36.4414 42.5156Z" fill="url(#paint1_linear_6607_13606)"/>
<circle cx="36.399" cy="24.6314" r="15.231" fill="url(#paint2_linear_6607_13606)"/>
<circle cx="36.399" cy="24.6314" r="15.231" fill="url(#paint3_linear_6607_13606)"/>
</g>
<circle cx="56.3093" cy="57.823" r="13.1765" fill="#D9D9D9"/>
<circle cx="56.3093" cy="57.823" r="13.1765" fill="#222247"/>
<circle cx="56.3093" cy="56.1765" r="13.1765" fill="#D9D9D9"/>
<circle cx="56.3093" cy="56.1765" r="13.1765" fill="url(#paint4_linear_6607_13606)"/>
<path d="M48.8984 56.7543L54.7141 61.6007L64.0242 50.4121" stroke="url(#paint5_radial_6607_13606)" stroke-width="3.87713"/>
<path d="M48.8984 56.7543L54.7141 61.6007L64.0242 50.4121" stroke="#3B4173" stroke-width="3.87713"/>
<defs>
<linearGradient id="paint0_linear_6607_13606" x1="36.4414" y1="42.5156" x2="36.4414" y2="111.205" gradientUnits="userSpaceOnUse">
<stop stop-color="#E2DBFF"/>
<stop offset="1" stop-color="white"/>
</linearGradient>
<linearGradient id="paint1_linear_6607_13606" x1="11.7733" y1="43.9145" x2="35.6736" y2="63.2203" gradientUnits="userSpaceOnUse">
<stop stop-color="white"/>
<stop offset="0.312037" stop-color="#CDCBFC"/>
<stop offset="1" stop-color="#9696F9"/>
</linearGradient>
<linearGradient id="paint2_linear_6607_13606" x1="36.399" y1="9.40039" x2="36.399" y2="39.8624" gradientUnits="userSpaceOnUse">
<stop stop-color="#E2DBFF"/>
<stop offset="1" stop-color="white"/>
</linearGradient>
<linearGradient id="paint3_linear_6607_13606" x1="21.9757" y1="11.1996" x2="50.6366" y2="28.5592" gradientUnits="userSpaceOnUse">
<stop stop-color="white"/>
<stop offset="0.502225" stop-color="#CDCBFC"/>
<stop offset="1" stop-color="#9696F9"/>
</linearGradient>
<linearGradient id="paint4_linear_6607_13606" x1="46.4269" y1="46.7059" x2="78.8536" y2="61.3159" gradientUnits="userSpaceOnUse">
<stop stop-color="white"/>
<stop offset="0.502225" stop-color="#CDCBFC"/>
<stop offset="1" stop-color="#9696F9"/>
</linearGradient>
<radialGradient id="paint5_radial_6607_13606" cx="0" cy="0" r="1" gradientUnits="userSpaceOnUse" gradientTransform="translate(54.4929 60.7722) rotate(-90.8814) scale(13.4697 18.4817)">
<stop stop-color="#666666"/>
<stop offset="1"/>
</radialGradient>
</defs>
</svg>
