<svg width="20" height="20" viewBox="0 0 20 20" fill="none" xmlns="http://www.w3.org/2000/svg">
<path fill-rule="evenodd" clip-rule="evenodd" d="M16.4775 2.5L17.5005 3.523L9.26553 11.7579C9.08882 11.9346 8.86319 12.0543 8.61777 12.1015L7.72769 12.2727L7.89891 11.3826C7.94612 11.1372 8.06581 10.9116 8.24252 10.7349L16.4775 2.5ZM18.3844 2.63911L17.3614 1.61612C16.8732 1.12796 16.0817 1.12796 15.5936 1.61612L7.35864 9.851C7.00521 10.2044 6.76583 10.6557 6.67141 11.1465L6.32589 12.9427C6.24239 13.3768 6.62361 13.758 7.0577 13.6745L8.8539 13.329C9.34473 13.2346 9.79599 12.9952 10.1494 12.6418L18.3844 4.40688C18.8725 3.91872 18.8725 3.12727 18.3844 2.63911ZM2.5 5.625C2.5 4.58947 3.33947 3.75 4.375 3.75H11.7419V2.5H4.375C2.64911 2.5 1.25 3.89911 1.25 5.625L1.25 15.6236C1.25 17.3495 2.64911 18.7486 4.375 18.7486H14.2364C15.9622 18.7486 17.3614 17.3495 17.3614 15.6236V8.25678H16.1114V15.6236C16.1114 16.6591 15.2719 17.4986 14.2364 17.4986H4.375C3.33947 17.4986 2.5 16.6591 2.5 15.6236V5.625Z" fill="white"/>
</svg>
