<svg width="20" height="20" viewBox="0 0 20 20" fill="none" xmlns="http://www.w3.org/2000/svg">
<path fill-rule="evenodd" clip-rule="evenodd" d="M4.58042 2.50253L4.58042 2.50253L3.17752 3.90545C2.62111 4.46187 2.4051 5.15371 2.53955 5.74498C3.79099 11.2485 8.75153 16.209 14.2551 17.4604C14.8464 17.5949 15.5382 17.3789 16.0946 16.8225L17.4975 15.4196L17.4991 15.4178L17.4995 15.4174C17.4995 15.4172 17.5 15.4159 17.5 15.4135C17.5 15.4121 17.4998 15.411 17.4997 15.4103C17.4996 15.4099 17.4995 15.4096 17.4995 15.4096L17.4991 15.4091L17.4975 15.4074L14.9617 12.8716C14.9588 12.8687 14.9544 12.8682 14.951 12.8703L12.9395 14.1133C12.1981 14.5715 11.239 14.4598 10.6227 13.8435L6.2637 9.48454C5.66883 8.88967 5.54176 7.97193 5.95264 7.23781L7.16064 5.07944C7.16253 5.07607 7.16195 5.07185 7.15921 5.06911L4.59263 2.50253L4.59087 2.50091L4.59041 2.50054L4.59036 2.50052C4.5904 2.50054 4.59043 2.50055 4.59041 2.50054M17.4995 15.4097C17.4995 15.4097 17.4995 15.4097 17.4995 15.4096L17.4995 15.4097ZM4.58042 2.50253L4.58218 2.50091L4.58042 2.50253ZM4.58218 2.50091L4.58264 2.50054L4.58218 2.50091ZM4.58264 2.50054L4.58269 2.50052C4.58267 2.50053 4.58265 2.50054 4.58264 2.50054ZM13.9779 18.6793C8.00545 17.3212 2.67873 11.9946 1.32066 6.02214C1.07182 4.92777 1.50004 3.81517 2.29363 3.02158L3.69652 1.61865C4.18805 1.12712 4.98498 1.12712 5.47651 1.61865L8.0431 4.18523C8.4415 4.58363 8.5266 5.19827 8.25142 5.68993L7.04342 7.8483C6.90583 8.09413 6.94838 8.40145 7.14758 8.60065L11.5066 12.9596C11.7129 13.166 12.0341 13.2034 12.2824 13.05L14.2939 11.807C14.7905 11.5001 15.4328 11.5749 15.8455 11.9877L18.3814 14.5235C18.8729 15.015 18.8729 15.8119 18.3814 16.3035L16.9785 17.7063C16.1849 18.4999 15.0723 18.9282 13.9779 18.6793Z" fill="#ABABF8"/>
</svg>
