<svg width="40" height="40" viewBox="0 0 40 40" fill="none" xmlns="http://www.w3.org/2000/svg">
<rect width="40" height="40" rx="16" fill="url(#paint0_linear_8365_63050)"/>
<g clip-path="url(#clip0_8365_63050)">
<path d="M20 16.5C20 15.1193 18.8807 14 17.5 14C16.1193 14 15 15.1193 15 16.5C15 17.8807 16.1193 19 17.5 19C18.8807 19 20 17.8807 20 16.5ZM21 16.5C21 18.433 19.433 20 17.5 20C15.567 20 14 18.433 14 16.5C14 14.567 15.567 13 17.5 13C19.433 13 21 14.567 21 16.5Z" fill="white"/>
<path d="M26 16.5C26 15.6716 25.3284 15 24.5 15C23.6716 15 23 15.6716 23 16.5C23 17.3284 23.6716 18 24.5 18C25.3284 18 26 17.3284 26 16.5ZM27 16.5C27 17.8807 25.8807 19 24.5 19C23.1193 19 22 17.8807 22 16.5C22 15.1193 23.1193 14 24.5 14C25.8807 14 27 15.1193 27 16.5Z" fill="white"/>
<path d="M17.5 21C18.9587 21 20.3572 21.5799 21.3887 22.6113C22.4201 23.6428 23 25.0413 23 26.5C23 26.6326 22.9473 26.7597 22.8535 26.8535C22.7597 26.9473 22.6326 27 22.5 27H12.5C12.3674 27 12.2403 26.9473 12.1465 26.8535C12.0527 26.7597 12 26.6326 12 26.5C12 25.0413 12.5799 23.6428 13.6113 22.6113C14.6428 21.5799 16.0413 21 17.5 21ZM17.5 22C16.3065 22 15.1623 22.4744 14.3184 23.3184C13.5932 24.0435 13.1422 24.9906 13.0293 26H21.9707C21.8578 24.9906 21.4068 24.0435 20.6816 23.3184C19.8377 22.4744 18.6935 22 17.5 22Z" fill="white"/>
<path d="M27.0028 23.499C27.0028 22.836 26.7392 22.2003 26.2704 21.7314C25.8016 21.2627 25.1658 20.9991 24.5028 20.999H24.5018C24.0106 20.9982 23.53 21.143 23.121 21.415C22.8912 21.5679 22.5807 21.506 22.4276 21.2764C22.2747 21.0466 22.3367 20.7361 22.5663 20.583C23.1398 20.2014 23.8139 19.999 24.5028 20C25.431 20.0001 26.3211 20.3681 26.9774 21.0244C27.6337 21.6808 28.0028 22.5708 28.0028 23.499V24.499C28.0028 24.7751 27.7789 24.9989 27.5028 24.999H24.5028C24.2267 24.999 24.0028 24.7752 24.0028 24.499C24.0028 24.2229 24.2267 23.999 24.5028 23.999H27.0028V23.499Z" fill="white"/>
</g>
<defs>
<linearGradient id="paint0_linear_8365_63050" x1="4.66667" y1="2.33333" x2="34.3333" y2="40" gradientUnits="userSpaceOnUse">
<stop stop-color="#968AEF"/>
<stop offset="1" stop-color="#4A4478"/>
</linearGradient>
<clipPath id="clip0_8365_63050">
<rect width="16" height="16" fill="white" transform="translate(12 12)"/>
</clipPath>
</defs>
</svg>
