<svg width="16" height="16" viewBox="0 0 16 16" fill="none" xmlns="http://www.w3.org/2000/svg">
<path fill-rule="evenodd" clip-rule="evenodd" d="M9.13279 12.437L10.8801 7.77764C11.2051 6.91087 12.0337 6.33664 12.9594 6.33664H13.1521L9.66062 2.8452V3.03783C9.66062 3.96354 9.08639 4.79215 8.21962 5.11719L3.56021 6.86447L9.13279 12.437ZM8.85355 13.572C9.16745 13.8859 9.70079 13.7704 9.85667 13.3547L11.8164 8.12876C11.9951 7.6523 12.4506 7.33664 12.9594 7.33664H14.0927C14.6365 7.33664 14.9088 6.67918 14.5243 6.29466L9.7026 1.47297C9.31809 1.08845 8.66062 1.36078 8.66062 1.90457V3.03783C8.66062 3.54669 8.34497 4.00218 7.8685 4.18086L2.64253 6.1406C2.22688 6.29647 2.11135 6.82982 2.42525 7.14372L5.17497 9.89344L1.75299 13.3154C1.51463 13.5538 1.51463 13.9403 1.75299 14.1786C1.99136 14.417 2.37783 14.417 2.6162 14.1786L6.03818 10.7566L8.85355 13.572Z" fill="black"/>
</svg>
