<svg width="12" height="12" viewBox="0 0 12 12" fill="none" xmlns="http://www.w3.org/2000/svg">
<path d="M9.31416 2.25442C7.34969 0.514325 4.34354 0.584117 2.46263 2.4638C1.52626 3.39956 1.03894 4.61288 1.00008 5.83921C0.991338 6.11512 0.760432 6.33172 0.484338 6.32298C0.208245 6.31424 -0.00848712 6.08349 0.000255463 5.80757C0.0468404 4.33729 0.632046 2.87944 1.7553 1.75692C4.03085 -0.517156 7.67893 -0.583638 10.0347 1.55747V0.554957C10.0347 0.278814 10.2586 0.0549567 10.5347 0.0549567C10.8109 0.0549567 11.0347 0.278814 11.0347 0.554957V2.55442C11.0347 2.94102 10.7213 3.25442 10.3347 3.25442H8.33383C8.05769 3.25442 7.83384 3.03056 7.83384 2.75442C7.83384 2.47828 8.05769 2.25442 8.33383 2.25442H9.31416Z" fill="#81819A"/>
<path d="M12.0017 5.93854C11.999 5.6625 11.7729 5.44095 11.4966 5.4437C11.2204 5.44644 10.9987 5.67244 11.0015 5.94847C11.0144 7.24523 10.5262 8.54433 9.53664 9.5332C7.65569 11.4129 4.64944 11.4827 2.68498 9.74246H3.53239C3.80854 9.74246 4.03239 9.5186 4.03239 9.24246C4.03239 8.96631 3.80854 8.74246 3.53239 8.74246H1.5315C1.1449 8.74246 0.831497 9.05586 0.831497 9.44246L0.831497 11.4419C0.831497 11.7181 1.05535 11.9419 1.3315 11.9419C1.60764 11.9419 1.8315 11.7181 1.8315 11.4419L1.8315 10.3149C4.18103 12.5824 7.92513 12.5574 10.244 10.2401C11.4312 9.05362 12.0172 7.49279 12.0017 5.93854Z" fill="#81819A"/>
</svg>
