<svg width="20" height="20" viewBox="0 0 20 20" fill="none" xmlns="http://www.w3.org/2000/svg">
<path d="M9.16797 13.334L11.668 15.834L9.16797 18.334" stroke="white" stroke-width="1.66667" stroke-miterlimit="10" stroke-linecap="square"/>
<path d="M4.16732 9.92773C2.13148 10.5394 0.833984 11.4644 0.833984 12.4994C0.833984 14.3402 4.93815 15.8327 10.0007 15.8327C10.5515 15.8327 11.089 15.8127 11.6132 15.7786" stroke="white" stroke-width="1.66667" stroke-miterlimit="10"/>
<path d="M15.668 15.1169C17.7955 14.5061 19.168 13.5619 19.168 12.4994C19.168 11.4644 17.8705 10.5394 15.8346 9.92773" stroke="white" stroke-width="1.66667" stroke-miterlimit="10" stroke-linecap="square"/>
<path d="M15.0013 10.834H5.0013C4.78029 10.834 4.56833 10.7462 4.41205 10.5899C4.25577 10.4336 4.16797 10.2217 4.16797 10.0007V3.33398C4.16797 3.11297 4.25577 2.90101 4.41205 2.74473C4.56833 2.58845 4.78029 2.50065 5.0013 2.50065H7.5013L8.33464 0.833984H11.668L12.5013 2.50065H15.0013C15.2223 2.50065 15.4343 2.58845 15.5906 2.74473C15.7468 2.90101 15.8346 3.11297 15.8346 3.33398V10.0007C15.8346 10.2217 15.7468 10.4336 15.5906 10.5899C15.4343 10.7462 15.2223 10.834 15.0013 10.834Z" stroke="white" stroke-width="1.66667" stroke-miterlimit="10" stroke-linecap="square"/>
<path d="M10.0007 8.33333C10.9211 8.33333 11.6673 7.58714 11.6673 6.66667C11.6673 5.74619 10.9211 5 10.0007 5C9.08018 5 8.33398 5.74619 8.33398 6.66667C8.33398 7.58714 9.08018 8.33333 10.0007 8.33333Z" stroke="white" stroke-width="1.66667" stroke-miterlimit="10" stroke-linecap="square"/>
</svg>
