<svg width="12" height="12" viewBox="0 0 12 12" fill="none" xmlns="http://www.w3.org/2000/svg">
<g clip-path="url(#clip0_5013_11180)">
<path d="M11.142 2.34379C9.48051 2.15862 7.92411 1.43885 6.707 0.292786C6.51947 0.105315 6.26516 0 6 0C5.73484 0 5.48053 0.105315 5.293 0.292786C4.07589 1.43885 2.51949 2.15862 0.858 2.34379C0.619971 2.37793 0.402217 2.49671 0.244638 2.67834C0.0870592 2.85998 0.000208414 3.09232 0 3.33279C0 3.59179 0.0639997 9.70279 5.628 11.9328C5.86697 12.0275 6.13303 12.0275 6.372 11.9328C11.936 9.69979 12 3.59179 12 3.33279C11.9998 3.09232 11.9129 2.85998 11.7554 2.67834C11.5978 2.49671 11.38 2.37793 11.142 2.34379ZM6 9.91079C4.91521 9.35672 3.98686 8.53921 3.30005 7.5332C2.61324 6.52719 2.18996 5.36486 2.069 4.15279C3.49828 3.84517 4.84112 3.22311 6 2.33179C7.15777 3.22166 8.49872 3.84329 9.926 4.15179C9.80059 5.36203 9.37609 6.52206 8.69073 7.52739C8.00538 8.53273 7.08071 9.35179 6 9.91079Z" fill="white" fill-opacity="0.6"/>
</g>
<defs>
<clipPath id="clip0_5013_11180">
<rect width="12" height="12" fill="white"/>
</clipPath>
</defs>
</svg>
