<svg width="24" height="24" viewBox="0 0 24 24" fill="none" xmlns="http://www.w3.org/2000/svg">
<path d="M10.375 4.21932C10.6752 3.97918 11.0867 3.93209 11.4332 4.09861C11.7795 4.26521 11.9992 4.61552 11.9992 4.99978V19.0002C11.9991 19.3843 11.7794 19.7348 11.4332 19.9013C11.0868 20.0679 10.6752 20.0207 10.375 19.7806L5.64883 16.0002H1.99961C1.44732 16.0002 1 15.5517 1 14.9994V8.99939C1.00021 8.44729 1.44745 7.99978 1.99961 7.99978H5.64883L10.375 4.21932ZM6.62383 9.78103C6.4466 9.92264 6.22609 10.0002 5.99922 10.0002H2.99922V13.9998H5.99922L6.16797 14.0138C6.33397 14.0422 6.49087 14.1126 6.62383 14.2189L10 16.9189V7.07869L6.62383 9.78103Z" fill="white"/>
<path d="M22.2929 8.29289C22.6834 7.90237 23.3156 7.90237 23.7062 8.29289C24.0967 8.68342 24.0967 9.31565 23.7062 9.70617L17.7062 15.7062C17.3157 16.0967 16.6834 16.0967 16.2929 15.7062C15.9024 15.3156 15.9024 14.6834 16.2929 14.2929L22.2929 8.29289Z" fill="white"/>
<path d="M16.2929 8.29289C16.6834 7.90237 17.3157 7.90237 17.7062 8.29289L23.7062 14.2929C24.0967 14.6834 24.0967 15.3156 23.7062 15.7062C23.3156 16.0967 22.6834 16.0967 22.2929 15.7062L16.2929 9.70617C15.9024 9.31565 15.9024 8.68342 16.2929 8.29289Z" fill="white"/>
</svg>
