<svg width="20" height="20" viewBox="0 0 20 20" fill="none" xmlns="http://www.w3.org/2000/svg">
<path fill-rule="evenodd" clip-rule="evenodd" d="M8.52274 1.25C7.26754 1.25 6.25 2.26754 6.25 3.52274V5.00002H7.5V3.52274C7.5 2.9579 7.9579 2.5 8.52274 2.5H16.25C16.9404 2.5 17.5 3.05964 17.5 3.75V11.25C17.5 11.9404 16.9404 12.5 16.25 12.5H15V13.75H16.25C17.6307 13.75 18.75 12.6307 18.75 11.25V3.75C18.75 2.36929 17.6307 1.25 16.25 1.25H8.52274ZM2.5 8.75C2.5 8.05964 3.05964 7.5 3.75 7.5H11.25C11.9404 7.5 12.5 8.05964 12.5 8.75V16.25C12.5 16.9404 11.9404 17.5 11.25 17.5H3.75C3.05964 17.5 2.5 16.9404 2.5 16.25V8.75ZM1.25 8.75C1.25 7.36929 2.36929 6.25 3.75 6.25H11.25C12.6307 6.25 13.75 7.36929 13.75 8.75V16.25C13.75 17.6307 12.6307 18.75 11.25 18.75H3.75C2.36929 18.75 1.25 17.6307 1.25 16.25V8.75Z" fill="#968AEF"/>
</svg>
