<svg width="14" height="12" viewBox="0 0 14 12" fill="none" xmlns="http://www.w3.org/2000/svg">
<path d="M6.81713 7.93709C6.60015 7.75545 6.24721 7.78282 6.05637 7.98934L4.04334 10.1491V1.51754C4.04334 1.23389 3.7976 1 3.49956 1C3.20153 1 2.95579 1.23389 2.95579 1.51754V10.1491L0.942759 7.98934C0.725771 7.78282 0.398981 7.75545 0.181993 7.93709C-0.0349959 8.14361 -0.0637534 8.45464 0.127092 8.66116L3.09173 11.8187C3.31395 12.0799 3.70609 12.0401 3.88125 11.8187L6.87204 8.66116C7.06288 8.45712 7.03674 8.11873 6.81713 7.93709Z" fill="#BFBFD0"/>
<path d="M13.8729 3.35533L10.934 0.194333C10.6726 -0.0572511 10.3457 -0.0721966 10.1183 0.194333L7.12711 3.35533C6.93624 3.56207 6.965 3.89835 7.18202 4.08019C7.51669 4.33426 7.85398 4.1599 7.94288 4.02788L9.95615 1.86575V10.4819C9.95615 10.7659 10.2019 11 10.5 11C10.7981 11 11.0438 10.7933 11.0438 10.5068V1.86824L13.0571 4.03037C13.2741 4.23712 13.601 4.26452 13.818 4.08268C14.035 3.87344 14.0638 3.56207 13.8729 3.35533Z" fill="#BFBFD0"/>
</svg>
