<svg width="20" height="20" viewBox="0 0 20 20" fill="none" xmlns="http://www.w3.org/2000/svg">
<path fill-rule="evenodd" clip-rule="evenodd" d="M1.25 3.125C1.25 2.77982 1.52982 2.5 1.875 2.5L9.375 2.5C9.72018 2.5 10 2.77982 10 3.125C10 3.47018 9.72018 3.75 9.375 3.75L1.875 3.75C1.52982 3.75 1.25 3.47018 1.25 3.125ZM18.75 7.5C18.75 7.84518 18.4702 8.125 18.125 8.125L1.875 8.125C1.52982 8.125 1.25 7.84518 1.25 7.5C1.25 7.15482 1.52982 6.875 1.875 6.875L18.125 6.875C18.4702 6.875 18.75 7.15482 18.75 7.5ZM1.25 12.5C1.25 12.1548 1.52982 11.875 1.875 11.875H9.375C9.72018 11.875 10 12.1548 10 12.5C10 12.8452 9.72018 13.125 9.375 13.125L1.875 13.125C1.52982 13.125 1.25 12.8452 1.25 12.5ZM18.75 16.875C18.75 17.2202 18.4702 17.5 18.125 17.5L1.875 17.5C1.52982 17.5 1.25 17.2202 1.25 16.875C1.25 16.5298 1.52982 16.25 1.875 16.25L18.125 16.25C18.4702 16.25 18.75 16.5298 18.75 16.875Z" fill="#81819A"/>
</svg>
