<svg width="20" height="20" viewBox="0 0 20 20" fill="none" xmlns="http://www.w3.org/2000/svg">
<path fill-rule="evenodd" clip-rule="evenodd" d="M8.125 1.25C7.88827 1.25 7.67185 1.38375 7.56598 1.59549L6.48873 3.75H2.5C2.15482 3.75 1.875 4.02982 1.875 4.375C1.875 4.72018 2.15482 5 2.5 5H3.77776L4.32141 16.9601C4.36692 17.9615 5.19204 18.75 6.19447 18.75H13.8055C14.808 18.75 15.6331 17.9615 15.6786 16.9601L16.2222 5H17.5C17.8452 5 18.125 4.72018 18.125 4.375C18.125 4.02982 17.8452 3.75 17.5 3.75H13.5113L12.434 1.59549C12.3281 1.38375 12.1117 1.25 11.875 1.25H8.125ZM12.1137 3.75L11.4887 2.5H8.51127L7.88627 3.75H12.1137ZM5.02905 5H14.9709L14.4299 16.9034C14.4147 17.2372 14.1397 17.5 13.8055 17.5H6.19447C5.86033 17.5 5.58529 17.2372 5.57012 16.9034L5.02905 5ZM8.75 7.5C8.75 7.15482 8.47018 6.875 8.125 6.875C7.77982 6.875 7.5 7.15482 7.5 7.5V15C7.5 15.3452 7.77982 15.625 8.125 15.625C8.47018 15.625 8.75 15.3452 8.75 15V7.5ZM12.5 7.5C12.5 7.15482 12.2202 6.875 11.875 6.875C11.5298 6.875 11.25 7.15482 11.25 7.5V15C11.25 15.3452 11.5298 15.625 11.875 15.625C12.2202 15.625 12.5 15.3452 12.5 15V7.5Z" fill="#FB8686"/>
</svg>
