<svg width="48" height="48" viewBox="0 0 48 48" fill="none" xmlns="http://www.w3.org/2000/svg">
<path d="M27.415 8.63867C27.5819 8.63867 27.7451 8.64996 27.9082 8.66895C27.9498 8.67652 27.9916 8.68839 28.0332 8.68848C28.1583 8.70746 28.2839 8.73038 28.4053 8.76074C28.447 8.77214 28.4934 8.78352 28.5352 8.79492C28.6603 8.82911 28.7858 8.87132 28.9033 8.91309C28.9371 8.92809 28.9711 8.93891 29.0049 8.9502C29.1605 9.01482 29.3089 9.08424 29.4531 9.16406C29.4565 9.16406 29.4602 9.16633 29.4609 9.16699C29.4683 9.17068 29.4756 9.17829 29.4795 9.17871C29.6351 9.26614 29.7834 9.36514 29.9238 9.46777C29.9465 9.48671 29.9695 9.50159 29.9922 9.52051C30.7018 10.0678 31.2367 10.8322 31.4873 11.7139C31.529 11.8165 31.5708 11.9196 31.6201 12.0146C31.6846 12.1553 31.7723 12.2923 31.9014 12.376C32.0543 12.4757 32.2506 12.4846 32.4277 12.4385L32.4629 12.4287C32.5995 12.3888 32.7282 12.3214 32.8525 12.2451L32.9756 12.167C33.3948 11.901 33.8131 11.6326 34.2314 11.3643L35.4883 10.5586L35.5029 10.5508L35.6025 10.4863C35.7162 10.4142 35.8297 10.3416 35.9434 10.2695C36.2318 10.0833 36.5243 9.89707 36.8203 9.70703C39.1849 8.19418 42.4188 9.6693 42.6504 12.4746C42.658 12.5886 42.666 12.7026 42.666 12.8203V35.1797L42.6641 35.2676C42.6616 35.3546 42.6561 35.44 42.6504 35.5254C42.4189 38.3307 39.185 39.8096 36.8203 38.293L35.5029 37.4531C35.5011 37.4513 35.4994 37.4491 35.4971 37.4473L35.4883 37.4414C35.2188 37.2666 34.9452 37.0957 34.6758 36.9209C34.1103 36.5598 33.5448 36.195 32.9756 35.834C32.8532 35.757 32.7282 35.6783 32.5967 35.6211C32.5529 35.6021 32.5084 35.5855 32.4629 35.5723C32.2769 35.5191 32.0645 35.5224 31.9014 35.625C31.7723 35.7086 31.6846 35.8457 31.6201 35.9863C31.5709 36.085 31.529 36.1837 31.4873 36.2861C31.4247 36.5074 31.3445 36.7212 31.248 36.9258C31.1997 37.0283 31.1479 37.1288 31.0918 37.2266C31.0357 37.3242 30.9756 37.4192 30.9121 37.5117C30.6583 37.8818 30.347 38.2098 29.9922 38.4834L29.9238 38.5322C29.7834 38.6387 29.6351 38.7377 29.4795 38.8213C29.4757 38.8252 29.4684 38.8368 29.4609 38.8369H29.459C29.4582 38.8371 29.4571 38.8372 29.4561 38.8379C29.4551 38.8384 29.4541 38.8398 29.4531 38.8408C29.309 38.9168 29.1604 38.989 29.0049 39.0498C28.971 39.0649 28.9372 39.0766 28.9033 39.0879C28.7858 39.1335 28.6603 39.1748 28.5352 39.209L28.4053 39.2432L28.3135 39.2627C28.2213 39.2812 28.127 39.2973 28.0332 39.3115C27.9916 39.3191 27.9498 39.3273 27.9082 39.3311C27.7451 39.35 27.5819 39.3613 27.415 39.3613H9.50781L9.39941 39.3604C9.37132 39.3596 9.34338 39.3567 9.31543 39.3555C9.29879 39.3547 9.28221 39.3535 9.26562 39.3525C9.2116 39.3495 9.15795 39.345 9.10449 39.3398C9.08919 39.3384 9.07385 39.3376 9.05859 39.3359C9.00357 39.3301 8.94889 39.3234 8.89453 39.3154C8.88213 39.3136 8.86979 39.3115 8.85742 39.3096C8.79643 39.3 8.73587 39.2895 8.67578 39.2773C8.66889 39.276 8.66215 39.2739 8.65527 39.2725C8.60019 39.261 8.54548 39.2489 8.49121 39.2354C8.47757 39.2319 8.46378 39.2291 8.4502 39.2256C8.32842 39.1938 8.20896 39.1565 8.0918 39.1143C8.08133 39.1105 8.07098 39.1064 8.06055 39.1025C8.0053 39.0821 7.9506 39.0607 7.89648 39.0381C7.88962 39.0352 7.88282 39.0322 7.87598 39.0293C7.82264 39.0066 7.76995 38.9828 7.71777 38.958C7.70804 38.9534 7.69817 38.949 7.68848 38.9443C7.33475 38.7728 7.00904 38.5529 6.71973 38.293C6.57727 38.165 6.44404 38.0271 6.32031 37.8809C6.26965 37.8209 6.22014 37.76 6.17285 37.6973C6.16909 37.6923 6.16487 37.6876 6.16113 37.6826L6.05859 37.5391C6.01744 37.4788 5.97846 37.417 5.94043 37.3545C5.91208 37.3079 5.88495 37.2606 5.8584 37.2129C5.85506 37.2069 5.85096 37.2013 5.84766 37.1953C5.8344 37.1712 5.82236 37.1465 5.80957 37.1221C5.76222 37.0317 5.71755 36.9398 5.67676 36.8457C5.65581 36.7974 5.63634 36.7484 5.61719 36.6992C5.60818 36.6761 5.59845 36.6532 5.58984 36.6299C5.58152 36.6073 5.57435 36.5843 5.56641 36.5615C5.55296 36.523 5.53969 36.4844 5.52734 36.4453C5.51974 36.4213 5.51206 36.3973 5.50488 36.373C5.49252 36.3313 5.48081 36.2893 5.46973 36.2471C5.46326 36.2224 5.4572 36.1977 5.45117 36.1729C5.44206 36.1353 5.43388 36.0975 5.42578 36.0596C5.41653 36.0162 5.40829 35.9726 5.40039 35.9287C5.39874 35.9195 5.39612 35.9106 5.39453 35.9014L5.38086 35.8174C5.37789 35.7979 5.37574 35.7783 5.37305 35.7588C5.36741 35.7179 5.36188 35.677 5.35742 35.6357C5.35396 35.6036 5.35137 35.5714 5.34863 35.5391C5.34582 35.5059 5.34286 35.4728 5.34082 35.4395C5.33874 35.4054 5.33719 35.3712 5.33594 35.3369C5.33534 35.3207 5.3344 35.3044 5.33398 35.2881L5.33203 35.1797V12.8203C5.3321 10.513 7.20015 8.63868 9.50781 8.63867H27.415ZM40.7383 12.6221C40.6272 11.3764 39.0947 10.5332 37.8555 11.3232C37.5515 11.5184 37.2689 11.6988 36.9824 11.8838L36.9697 11.8916C36.9129 11.9277 36.8557 11.9639 36.7988 12C36.7451 12.0341 36.6914 12.0685 36.6377 12.1025L36.5527 12.1582L36.46 12.2188L36.4365 12.2305C35.9986 12.5105 35.5521 12.7947 35.1055 13.0811L34.6719 13.3701C34.6688 15.2561 34.6612 17.8078 34.6611 17.8252C34.6611 17.8252 34.6758 18.053 34.6758 18.1709V34.6416C34.7374 34.681 34.7989 34.7204 34.8604 34.7598L35.707 35.3018L35.7188 35.3096C35.8457 35.3919 35.9747 35.4744 36.1113 35.5615C36.2458 35.6472 36.388 35.7378 36.5303 35.8301C36.5505 35.8431 36.5704 35.8563 36.5889 35.8691L37.8506 36.6738L37.8545 36.6758C39.0906 37.4686 40.6269 36.628 40.7383 35.3779C40.7454 35.2692 40.748 35.221 40.748 35.1797V12.8203C40.748 12.779 40.7454 12.7308 40.7383 12.6221ZM9.50781 10.5586C8.26012 10.5586 7.25007 11.5723 7.25 12.8203V13.9912H19.4258C19.5926 13.9912 19.7559 14.0025 19.9189 14.0215C19.9606 14.0253 20.0024 14.0325 20.0479 14.04C20.1693 14.059 20.2946 14.0819 20.416 14.1123C20.4577 14.1199 20.5033 14.1313 20.5488 14.1465C20.6703 14.1807 20.7954 14.2191 20.9131 14.2646C20.9472 14.276 20.9854 14.2875 21.0195 14.3027C21.1713 14.3635 21.3235 14.4358 21.4639 14.5156H21.4707C21.4707 14.5156 21.4865 14.5265 21.4941 14.5303C21.6459 14.6177 21.7942 14.7129 21.9346 14.8193C21.9573 14.8345 21.9802 14.8541 22.0029 14.873C22.7162 15.4164 23.2477 16.1802 23.502 17.0654C23.5399 17.1679 23.5816 17.2666 23.6309 17.3652C23.6991 17.5057 23.7823 17.6429 23.915 17.7266C24.0745 17.8292 24.2876 17.8325 24.4736 17.7793C24.6556 17.7261 24.8224 17.6201 24.9854 17.5176C25.642 17.0981 26.2983 16.6773 26.9531 16.2578L30.6182 13.8066C30.2214 13.4741 30.0054 13.0851 29.8965 12.8545C29.8105 12.6827 29.7443 12.5181 29.7119 12.4385L29.6729 12.3408L29.6436 12.2393C29.5102 11.77 29.2205 11.3491 28.8223 11.042L28.793 11.0195L28.7891 11.0166L28.7705 11.002C28.6903 10.9442 28.6199 10.8982 28.5576 10.8623C28.5518 10.8591 28.5462 10.8564 28.541 10.8535L28.3564 10.7607C28.3437 10.7551 28.3301 10.7491 28.3164 10.7432C28.2914 10.7342 28.2622 10.7234 28.2305 10.7109C28.1488 10.6824 28.0835 10.662 28.0303 10.6475C28.0215 10.6451 28.0101 10.642 27.9863 10.6357C27.9736 10.6324 27.9555 10.6274 27.9355 10.6221C27.9037 10.6143 27.8618 10.6051 27.8057 10.5957C27.727 10.5875 27.665 10.578 27.6279 10.5713C27.6266 10.571 27.6253 10.5706 27.624 10.5703C27.5464 10.5629 27.4778 10.5586 27.415 10.5586H9.50781Z" fill="#56566D"/>
</svg>
