<svg width="150" height="40" viewBox="0 0 150 40" fill="none" xmlns="http://www.w3.org/2000/svg">
<path d="M0 24.56V29.688H3.66542V24.784C3.66542 24.308 3.85684 23.848 4.20302 23.512C4.54513 23.176 5.01349 22.984 5.49814 22.984H9.25723C11.0085 22.984 12.6905 22.3 13.9286 21.08C15.1667 19.864 15.8631 18.212 15.8631 16.492C15.8631 14.772 15.1667 13.12 13.9286 11.9C12.6905 10.684 11.0085 10 9.25316 10H0V16.408H3.66542V13.388H9.0088C9.83963 13.388 10.6338 13.712 11.2203 14.288C11.8067 14.864 12.1366 15.644 12.1366 16.46C12.1366 17.276 11.8067 18.056 11.2203 18.632C10.6338 19.208 9.83963 19.532 9.0088 19.532H5.12752C4.45553 19.532 3.78761 19.66 3.16856 19.916C2.54544 20.168 1.9834 20.54 1.5069 21.008C1.03039 21.476 0.655707 22.032 0.395054 22.64C0.134402 23.244 0 23.9 0 24.56Z" fill="white"/>
<path d="M16.4293 29.6879V21.876C16.4293 18.688 18.3231 16.152 22.1148 16.152C22.7216 16.144 23.3284 16.208 23.923 16.348V19.56C23.4913 19.532 23.1207 19.532 22.9456 19.532C20.9378 19.532 20.0743 20.436 20.0743 22.268V29.6879H16.4293Z" fill="white"/>
<path d="M25.0144 23.064C25.0144 19.144 28.0282 16.156 32.223 16.156C36.4179 16.156 39.4317 19.144 39.4317 23.064C39.4317 26.984 36.4179 30 32.223 30C28.0282 30 25.0144 26.98 25.0144 23.064ZM35.8396 23.064C35.8396 20.836 34.3164 19.256 32.223 19.256C30.1256 19.256 28.6065 20.832 28.6065 23.064C28.6065 25.32 30.1297 26.872 32.223 26.872C34.3205 26.872 35.8396 25.316 35.8396 23.064Z" fill="white"/>
<path d="M51.0879 23.064C51.0879 19.144 54.1017 16.156 58.2965 16.156C62.4873 16.156 65.5011 19.144 65.5011 23.064C65.5011 26.984 62.4873 30 58.2965 30C54.1017 30 51.0879 26.98 51.0879 23.064ZM61.909 23.064C61.909 20.836 60.3858 19.256 58.2925 19.256C56.1991 19.256 54.6759 20.832 54.6759 23.064C54.6759 25.32 56.1991 26.872 58.2925 26.872C60.3858 26.872 61.909 25.316 61.909 23.064Z" fill="white"/>
<path d="M67.395 29.688V22.16C67.395 18.664 69.6635 16.152 73.7118 16.152C77.7315 16.152 80 18.66 80 22.16V29.688H76.3834V22.44C76.3834 20.496 75.4915 19.28 73.7118 19.28C71.932 19.28 71.0401 20.492 71.0401 22.44V29.688H67.395Z" fill="white"/>
<path d="M49.9964 19.2838H46.0622V24.2198C46.0622 25.9398 46.6934 26.7278 48.5017 26.7278C48.6728 26.7278 49.1045 26.7278 49.6502 26.6998V29.6038C48.9049 29.7998 48.2451 29.9158 47.5243 29.9158C44.482 29.9158 42.413 28.1118 42.413 24.6998V19.2838H39.9694V16.4358H40.5803C40.8206 16.4358 41.0609 16.3878 41.2808 16.2998C41.5048 16.2078 41.7044 16.0758 41.8754 15.9078C42.0465 15.7398 42.1809 15.5438 42.2746 15.3238C42.3682 15.1038 42.413 14.8718 42.413 14.6358V11.9519H46.0581V16.4358H49.9923V19.2838H49.9964Z" fill="white"/>
<path d="M147.296 30C146.455 30 145.695 29.83 145.015 29.49C144.352 29.1499 143.815 28.6309 143.404 27.9329C143.01 27.2349 142.813 26.3938 142.813 25.4094V19.0202H139.994V16.2819C140.943 16.2819 141.614 16.2103 142.008 16.0671C142.402 15.9061 142.661 15.5929 142.786 15.1276C142.912 14.6622 142.974 13.8748 142.974 12.7651H146.303V16.2014H149.954V19.0202H146.303V25.0873C146.303 25.8211 146.482 26.358 146.84 26.698C147.198 27.0202 147.681 27.1812 148.29 27.1812C148.845 27.1812 149.399 27.0828 149.954 26.8859V29.4094C149.578 29.5884 149.167 29.7316 148.719 29.839C148.29 29.9463 147.815 30 147.296 30Z" fill="white"/>
<path d="M133.915 30.0002C132.483 30.0002 131.203 29.7049 130.076 29.1143C128.966 28.5237 128.098 27.6825 127.472 26.5908C126.845 25.4812 126.532 24.1926 126.532 22.725C126.532 21.4543 126.81 20.291 127.364 19.2351C127.937 18.1792 128.716 17.3469 129.7 16.7384C130.684 16.1299 131.776 15.8257 132.975 15.8257C134.103 15.8257 135.096 16.0762 135.955 16.5774C136.814 17.0606 137.476 17.7675 137.942 18.6982C138.407 19.6109 138.639 20.7026 138.639 21.9733V23.3425H128.975V21.0337H137.056L135.23 21.5438C135.23 20.8279 135.132 20.2373 134.935 19.772C134.756 19.2888 134.487 18.9308 134.129 18.6982C133.771 18.4476 133.333 18.3223 132.814 18.3223C132.313 18.3223 131.856 18.4655 131.445 18.7519C131.033 19.0203 130.702 19.4498 130.452 20.0404C130.201 20.6132 130.076 21.329 130.076 22.1881C130.076 23.3872 130.273 24.3626 130.666 25.1143C131.078 25.8481 131.624 26.376 132.304 26.6982C132.984 27.0203 133.745 27.1814 134.586 27.1814C135.194 27.1814 135.812 27.1009 136.438 26.9398C137.065 26.7608 137.709 26.4834 138.371 26.1076V28.7116C137.691 29.159 136.966 29.4812 136.197 29.678C135.445 29.8928 134.684 30.0002 133.915 30.0002Z" fill="white"/>
<path d="M119.679 30.0002C118.247 30.0002 116.968 29.7049 115.84 29.1143C114.731 28.5237 113.863 27.6825 113.236 26.5908C112.61 25.4812 112.297 24.1926 112.297 22.725C112.297 21.4543 112.574 20.291 113.129 19.2351C113.702 18.1792 114.48 17.3469 115.464 16.7384C116.449 16.1299 117.541 15.8257 118.74 15.8257C119.867 15.8257 120.86 16.0762 121.72 16.5774C122.579 17.0606 123.241 17.7675 123.706 18.6982C124.171 19.6109 124.404 20.7026 124.404 21.9733V23.3425H114.74V21.0337H122.82L120.995 21.5438C120.995 20.8279 120.896 20.2373 120.699 19.772C120.52 19.2888 120.252 18.9308 119.894 18.6982C119.536 18.4476 119.098 18.3223 118.579 18.3223C118.077 18.3223 117.621 18.4655 117.209 18.7519C116.798 19.0203 116.467 19.4498 116.216 20.0404C115.966 20.6132 115.84 21.329 115.84 22.1881C115.84 23.3872 116.037 24.3626 116.431 25.1143C116.843 25.8481 117.388 26.376 118.069 26.6982C118.749 27.0203 119.509 27.1814 120.35 27.1814C120.959 27.1814 121.576 27.1009 122.203 26.9398C122.829 26.7608 123.473 26.4834 124.136 26.1076V28.7116C123.456 29.159 122.731 29.4812 121.961 29.678C121.209 29.8928 120.449 30.0002 119.679 30.0002Z" fill="white"/>
<path d="M91.1242 13.8121H91.0436V23.5302C91.0436 24.9083 91.0436 25.9284 91.0436 26.5906C91.0436 27.2528 91.0436 28.255 91.0436 29.5973H87.5C87.5 28.2192 87.5 27.1991 87.5 26.5369C87.5 25.8747 87.5 24.8725 87.5 23.5302V16.0671C87.5 14.689 87.5 13.6689 87.5 13.0067C87.5 12.3445 87.5 11.3423 87.5 10H93.5134L98.5067 25.5705H98.5872L103.661 10H109.299C109.299 11.3781 109.299 12.3982 109.299 13.0604C109.299 13.7226 109.299 14.7248 109.299 16.0671V23.5302C109.299 24.9083 109.299 25.9284 109.299 26.5906C109.299 27.2528 109.299 28.255 109.299 29.5973H105.728C105.728 28.2192 105.728 27.1991 105.728 26.5369C105.728 25.8747 105.728 24.8725 105.728 23.5302V14.1342H105.648L100.547 29.5973H96.2517L91.1242 13.8121Z" fill="white"/>
</svg>
