<svg width="56" height="56" viewBox="0 0 56 56" fill="none" xmlns="http://www.w3.org/2000/svg">
<g clip-path="url(#clip0_8740_71514)">
<rect width="56" height="56" rx="12" fill="#094A62"/>
<path d="M10.3984 37.3291C16.1415 37.3291 20.7979 41.9845 20.7979 47.7275C20.7978 50.0792 20.0165 52.2482 18.7002 53.9902L11.8379 65.0303C11.1574 66.125 9.56392 66.1238 8.88477 65.0283L1.2627 52.7334C1.18811 52.613 1.13012 52.4889 1.08789 52.3633C0.391622 50.9676 1.43929e-05 49.3933 0 47.7275C0 41.9846 4.65551 37.3292 10.3984 37.3291ZM47.0684 37.3291C52.8114 37.3291 57.4668 41.9845 57.4668 47.7275C57.4668 50.0792 56.6864 52.2482 55.3701 53.9902L48.5078 65.0303C47.8274 66.125 46.2338 66.1238 45.5547 65.0283L37.9326 52.7334C37.858 52.613 37.8 52.4889 37.7578 52.3633C37.0615 50.9676 36.6699 49.3933 36.6699 47.7275C36.6699 41.9846 41.3254 37.3292 47.0684 37.3291ZM10.3799 23.5781C13.8727 23.5781 16.704 26.4096 16.7041 29.9023C16.7041 33.3952 13.8728 36.2266 10.3799 36.2266C6.88709 36.2264 4.05566 33.3952 4.05566 29.9023C4.05579 26.4096 6.88716 23.5782 10.3799 23.5781ZM47.0498 23.5781C50.5426 23.5781 53.3739 26.4096 53.374 29.9023C53.374 33.3952 50.5427 36.2266 47.0498 36.2266C43.557 36.2265 40.7256 33.3952 40.7256 29.9023C40.7257 26.4096 43.5571 23.5782 47.0498 23.5781Z" fill="#00A9E7"/>
<path d="M41.8042 60.8856C43.8767 58.1428 45.1058 54.727 45.1058 51.0242C45.1058 41.9815 37.7753 34.651 28.7326 34.651C19.6899 34.651 12.3594 41.9815 12.3594 51.0242C12.3594 53.6472 12.9761 56.126 14.0725 58.3238C14.1391 58.5217 14.2302 58.717 14.3477 58.9066L26.3494 78.266C27.4187 79.9909 29.9278 79.9924 30.9992 78.2687L41.8042 60.8856Z" fill="#7BDCFF"/>
<path d="M38.6614 22.9581C38.6614 28.4578 34.203 32.9163 28.7033 32.9163C23.2036 32.9163 18.7452 28.4578 18.7452 22.9581C18.7452 17.4584 23.2036 13 28.7033 13C34.203 13 38.6614 17.4584 38.6614 22.9581Z" fill="#7BDCFF"/>
</g>
<defs>
<clipPath id="clip0_8740_71514">
<rect width="56" height="56" rx="12" fill="white"/>
</clipPath>
</defs>
</svg>
