<svg width="56" height="56" viewBox="0 0 56 56" fill="none" xmlns="http://www.w3.org/2000/svg">
<rect x="0.546875" y="8.08203" width="48.5947" height="31.5973" rx="8.16688" fill="#FFB35F"/>
<path d="M45.9688 18.2852C47.7206 18.2852 49.1413 19.7052 49.1416 21.457V43.4482C49.1415 47.9586 45.485 51.6152 40.9746 51.6152H8.71387C4.20351 51.6152 0.547013 47.9586 0.546875 43.4482V21.457C0.547128 19.7054 1.96708 18.2854 3.71875 18.2852H45.9688Z" fill="#523A2E"/>
<rect x="11.6953" y="4" width="8.16688" height="3.62973" rx="1.81486" transform="rotate(90 11.6953 4)" fill="#FF7A00"/>
<rect x="21.6719" y="4" width="8.16688" height="3.62973" rx="1.81486" transform="rotate(90 21.6719 4)" fill="#FF7A00"/>
<rect x="31.6562" y="4" width="8.16688" height="3.62973" rx="1.81486" transform="rotate(90 31.6562 4)" fill="#FF7A00"/>
<rect x="41.6406" y="4" width="8.16688" height="3.62973" rx="1.81486" transform="rotate(90 41.6406 4)" fill="#FF7A00"/>
<rect x="7.09375" y="23.6055" width="5.83417" height="4.53716" rx="2.26858" fill="#FF7A00"/>
<rect x="7.09375" y="23.6055" width="5.83417" height="4.53716" rx="2.26858" fill="#FF7A00"/>
<rect x="16.5547" y="23.6055" width="5.83417" height="4.53716" rx="2.26858" fill="#FF7A00"/>
<rect x="26.0234" y="23.6055" width="5.83417" height="4.53716" rx="2.26858" fill="#FF7A00"/>
<rect x="35.4844" y="23.6055" width="5.83417" height="4.53716" rx="2.26858" fill="#FF7A00"/>
<rect x="7.09375" y="30.8633" width="5.83417" height="4.53716" rx="2.26858" fill="#FF7A00"/>
<rect x="16.5547" y="30.8633" width="5.83417" height="4.53716" rx="2.26858" fill="#FF7A00"/>
<rect x="26.0234" y="30.8633" width="5.83417" height="4.53716" rx="2.26858" fill="#523A2E"/>
<rect x="35.4844" y="30.8633" width="5.83417" height="4.53716" rx="2.26858" fill="#523A2E"/>
<rect x="7.09375" y="38.125" width="5.83417" height="4.53716" rx="2.26858" fill="#FF7A00"/>
<rect x="16.5547" y="38.125" width="5.83417" height="4.53716" rx="2.26858" fill="#FF7A00"/>
<rect x="26.0234" y="38.125" width="5.83417" height="4.53716" rx="2.26858" fill="#523A2E"/>
<rect x="35.4844" y="38.125" width="5.83417" height="4.53716" rx="2.26858" fill="#523A2E"/>
<path d="M54.5088 25.627L36.5391 47.2227L24.375 37.0859L27.6348 33.1748L35.8838 40.0488L50.5947 22.3711L54.5088 25.627Z" fill="#FFB35F"/>
</svg>
