<svg width="148" height="36" viewBox="0 0 148 36" fill="none" xmlns="http://www.w3.org/2000/svg">
<path d="M26.0193 13.6327V27.6713C25.5952 27.401 25.1711 27.1278 24.7441 26.8575C24.6217 26.7807 24.4964 26.701 24.3598 26.6612C24.2203 26.6213 24.0609 26.6242 23.9385 26.701C23.8417 26.7636 23.7762 26.866 23.7278 26.9713C23.6908 27.0453 23.6595 27.1193 23.6282 27.1961C23.4403 27.859 23.0389 28.4309 22.5066 28.8407C22.4895 28.852 22.4725 28.8663 22.4554 28.8776C22.3501 28.9573 22.239 29.0313 22.1223 29.0939C22.1195 29.0939 22.1138 29.1024 22.1081 29.1053C22.1081 29.1053 22.1053 29.1053 22.1024 29.1081C21.9942 29.165 21.8832 29.2191 21.7665 29.2646C21.7409 29.276 21.7153 29.2845 21.6897 29.2931C21.6014 29.3272 21.5075 29.3585 21.4135 29.3841C21.3822 29.3926 21.3481 29.4012 21.3167 29.4097C21.2257 29.4296 21.1317 29.4467 21.0378 29.4609C21.0065 29.4666 20.9752 29.4723 20.9438 29.4752C20.8214 29.4894 20.699 29.4979 20.5738 29.4979H7.14348C5.41274 29.4979 4.01221 28.098 4.01221 26.3681V10.5029H14.5817C14.7069 10.5029 14.8293 10.5114 14.9517 10.5256C14.983 10.5285 15.0144 10.5342 15.0485 10.5399C15.1396 10.5541 15.2335 10.5712 15.3246 10.5939C15.3559 10.5996 15.3901 10.6081 15.4243 10.6195C15.5154 10.6451 15.6093 10.6736 15.6975 10.7077C15.7232 10.7163 15.7516 10.7248 15.7772 10.7362C15.8911 10.7817 16.005 10.8358 16.1103 10.8955H16.116C16.116 10.8955 16.1274 10.9041 16.1331 10.9069C16.2469 10.9723 16.358 11.0435 16.4633 11.1231C16.4804 11.1345 16.4974 11.1487 16.5145 11.163C17.0497 11.5698 17.4482 12.1417 17.6389 12.8047C17.6674 12.8815 17.6987 12.9555 17.7357 13.0295C17.7869 13.1347 17.8496 13.2372 17.9492 13.2998C18.0688 13.3766 18.2282 13.3794 18.3677 13.3396C18.5043 13.2998 18.6295 13.2201 18.752 13.1433C19.3811 12.7421 20.0102 12.3409 20.6364 11.9397C20.6421 11.9369 20.6449 11.934 20.6478 11.9312L20.6677 11.9198C20.6677 11.9198 20.6734 11.9198 20.6763 11.9141C20.736 11.8771 20.7958 11.8373 20.8584 11.7975H20.8641C20.9011 11.769 20.9381 11.7463 20.978 11.7206C21.1943 11.5812 21.4135 11.4447 21.6356 11.3024C22.6518 10.6537 23.8815 10.7362 24.7782 11.3223C25.45 11.7605 25.9339 12.4746 26.008 13.3737C26.0136 13.4591 26.0193 13.5445 26.0193 13.6327Z" fill="#6D4AFF"/>
<path d="M26.0193 13.6327V27.6713C25.5952 27.401 25.1711 27.1278 24.7441 26.8575C24.6217 26.7807 24.4964 26.701 24.3598 26.6612C24.2203 26.6213 24.0609 26.6242 23.9385 26.701C23.8417 26.7636 23.7762 26.866 23.7278 26.9713C23.6908 27.0453 23.6595 27.1193 23.6282 27.1961C23.4403 27.859 23.0389 28.4309 22.5066 28.8407C22.4895 28.852 22.4725 28.8663 22.4554 28.8776C22.3501 28.9573 22.239 29.0313 22.1223 29.0939C22.1195 29.0939 22.1138 29.1024 22.1081 29.1053C22.1081 29.1053 22.1053 29.1053 22.1024 29.1081C21.9942 29.165 21.8832 29.2191 21.7665 29.2646C21.7409 29.276 21.7153 29.2845 21.6897 29.2931C21.6014 29.3272 21.5075 29.3585 21.4135 29.3841C21.3822 29.3926 21.3481 29.4012 21.3167 29.4097C21.2257 29.4296 21.1317 29.4467 21.0378 29.4609C21.0065 29.4666 20.9752 29.4723 20.9438 29.4752C20.8214 29.4894 20.699 29.4979 20.5738 29.4979H7.14348C5.41274 29.4979 4.01221 28.098 4.01221 26.3681V10.5029H14.5817C14.7069 10.5029 14.8293 10.5114 14.9517 10.5256C14.983 10.5285 15.0144 10.5342 15.0485 10.5399C15.1396 10.5541 15.2335 10.5712 15.3246 10.5939C15.3559 10.5996 15.3901 10.6081 15.4243 10.6195C15.5154 10.6451 15.6093 10.6736 15.6975 10.7077C15.7232 10.7163 15.7516 10.7248 15.7772 10.7362C15.8911 10.7817 16.005 10.8358 16.1103 10.8955H16.116C16.116 10.8955 16.1274 10.9041 16.1331 10.9069C16.2469 10.9723 16.358 11.0435 16.4633 11.1231C16.4804 11.1345 16.4974 11.1487 16.5145 11.163C17.0497 11.5698 17.4482 12.1417 17.6389 12.8047C17.6674 12.8815 17.6987 12.9555 17.7357 13.0295C17.7869 13.1347 17.8496 13.2372 17.9492 13.2998C18.0688 13.3766 18.2282 13.3794 18.3677 13.3396C18.5043 13.2998 18.6295 13.2201 18.752 13.1433C19.3811 12.7421 20.0102 12.3409 20.6364 11.9397C20.6421 11.9369 20.6449 11.934 20.6478 11.9312L20.6677 11.9198C20.6677 11.9198 20.6734 11.9198 20.6763 11.9141C20.736 11.8771 20.7958 11.8373 20.8584 11.7975H20.8641C20.9011 11.769 20.9381 11.7463 20.978 11.7206C21.1943 11.5812 21.4135 11.4447 21.6356 11.3024C22.6518 10.6537 23.8815 10.7362 24.7782 11.3223C25.45 11.7605 25.9339 12.4746 26.008 13.3737C26.0136 13.4591 26.0193 13.5445 26.0193 13.6327Z" fill="url(#paint0_radial_4758_2851)"/>
<g style="mix-blend-mode:multiply">
<path d="M26.0193 13.6327V27.6713C25.5952 27.401 25.1711 27.1278 24.7441 26.8575C24.6217 26.7807 24.4964 26.701 24.3598 26.6612C24.2203 26.6213 24.0609 26.6242 23.9385 26.701C23.8417 26.7636 23.7762 26.866 23.7278 26.9713C23.6908 27.0453 23.6595 27.1193 23.6282 27.1961C23.4403 27.859 23.0389 28.4309 22.5066 28.8407C22.4895 28.852 22.4725 28.8663 22.4554 28.8776C22.3501 28.9573 22.239 29.0313 22.1223 29.0939C22.1195 29.0939 22.1138 29.1024 22.1081 29.1053C22.1081 29.1053 22.1053 29.1053 22.1024 29.1081C21.9942 29.165 21.8832 29.2191 21.7665 29.2646C21.7409 29.276 21.7153 29.2845 21.6897 29.2931C21.6014 29.3272 21.5075 29.3585 21.4135 29.3841C21.3822 29.3926 21.3481 29.4012 21.3167 29.4097C21.2257 29.4296 21.1317 29.4467 21.0378 29.4609C21.0065 29.4666 20.9752 29.4723 20.9438 29.4752C20.8214 29.4894 20.699 29.4979 20.5738 29.4979H7.14348C5.41274 29.4979 4.01221 28.098 4.01221 26.3681V10.5029H14.5817C14.7069 10.5029 14.8293 10.5114 14.9517 10.5256C14.983 10.5285 15.0144 10.5342 15.0485 10.5399C15.1396 10.5541 15.2335 10.5712 15.3246 10.5939C15.3559 10.5996 15.3901 10.6081 15.4243 10.6195C15.5154 10.6451 15.6093 10.6736 15.6975 10.7077C15.7232 10.7163 15.7516 10.7248 15.7772 10.7362C15.8911 10.7817 16.005 10.8358 16.1103 10.8955H16.116C16.116 10.8955 16.1274 10.9041 16.1331 10.9069C16.2469 10.9723 16.358 11.0435 16.4633 11.1231C16.4804 11.1345 16.4974 11.1487 16.5145 11.163C17.0497 11.5698 17.4482 12.1417 17.6389 12.8047C17.6674 12.8815 17.6987 12.9555 17.7357 13.0295C17.7869 13.1347 17.8496 13.2372 17.9492 13.2998C18.0688 13.3766 18.2282 13.3794 18.3677 13.3396C18.5043 13.2998 18.6295 13.2201 18.752 13.1433C19.3811 12.7421 20.0102 12.3409 20.6364 11.9397C20.6421 11.9369 20.6449 11.934 20.6478 11.9312L20.6677 11.9198C20.6677 11.9198 20.6734 11.9198 20.6763 11.9141C20.736 11.8771 20.7958 11.8373 20.8584 11.7975H20.8641C20.9011 11.769 20.9381 11.7463 20.978 11.7206C21.1943 11.5812 21.4135 11.4447 21.6356 11.3024C22.6518 10.6537 23.8815 10.7362 24.7782 11.3223C25.45 11.7605 25.9339 12.4746 26.008 13.3737C26.0136 13.4591 26.0193 13.5445 26.0193 13.6327Z" fill="#1B1340" fill-opacity="0.1"/>
</g>
<path opacity="0.2" d="M26.0193 13.6327V27.6713C25.5952 27.401 25.1711 27.1278 24.7441 26.8575C24.6217 26.7807 24.4964 26.701 24.3598 26.6612C24.2203 26.6213 24.0609 26.6242 23.9385 26.701C23.8417 26.7636 23.7762 26.866 23.7278 26.9713C23.6908 27.0453 23.6595 27.1193 23.6282 27.1961C23.4403 27.859 23.0389 28.4309 22.5066 28.8407C22.4895 28.852 22.4725 28.8663 22.4554 28.8776C22.3501 28.9573 22.239 29.0313 22.1223 29.0939C22.1195 29.0939 22.1138 29.1024 22.1081 29.1053C22.1081 29.1053 22.1053 29.1053 22.1024 29.1081C21.9942 29.165 21.8832 29.2191 21.7665 29.2646C21.7409 29.276 21.7153 29.2845 21.6897 29.2931C21.6014 29.3272 21.5075 29.3585 21.4135 29.3841C21.3822 29.3926 21.3481 29.4012 21.3167 29.4097C21.2257 29.4296 21.1317 29.4467 21.0378 29.4609C21.0065 29.4666 20.9752 29.4723 20.9438 29.4752C20.8214 29.4894 20.699 29.4979 20.5738 29.4979H7.14348C5.41274 29.4979 4.01221 28.098 4.01221 26.3681V10.5029H14.5817C14.7069 10.5029 14.8293 10.5114 14.9517 10.5256C14.983 10.5285 15.0144 10.5342 15.0485 10.5399C15.1396 10.5541 15.2335 10.5712 15.3246 10.5939C15.3559 10.5996 15.3901 10.6081 15.4243 10.6195C15.5154 10.6451 15.6093 10.6736 15.6975 10.7077C15.7232 10.7163 15.7516 10.7248 15.7772 10.7362C15.8911 10.7817 16.005 10.8358 16.1103 10.8955H16.116C16.116 10.8955 16.1274 10.9041 16.1331 10.9069C16.2469 10.9723 16.358 11.0435 16.4633 11.1231C16.4804 11.1345 16.4974 11.1487 16.5145 11.163C17.0497 11.5698 17.4482 12.1417 17.6389 12.8047C17.6674 12.8815 17.6987 12.9555 17.7357 13.0295C17.7869 13.1347 17.8496 13.2372 17.9492 13.2998C18.0688 13.3766 18.2282 13.3794 18.3677 13.3396C18.5043 13.2998 18.6295 13.2201 18.752 13.1433C19.3811 12.7421 20.0102 12.3409 20.6364 11.9397C20.6421 11.9369 20.6449 11.934 20.6478 11.9312L20.6677 11.9198C20.6677 11.9198 20.6734 11.9198 20.6763 11.9141C20.736 11.8771 20.7958 11.8373 20.8584 11.7975H20.8641C20.9011 11.769 20.9381 11.7463 20.978 11.7206C21.1943 11.5812 21.4135 11.4447 21.6356 11.3024C22.6518 10.6537 23.8815 10.7362 24.7782 11.3223C25.45 11.7605 25.9339 12.4746 26.008 13.3737C26.0136 13.4591 26.0193 13.5445 26.0193 13.6327Z" fill="#6D4AFF"/>
<path d="M26.6285 7.93888L20.978 11.7202C20.9381 11.7459 20.9011 11.7686 20.8641 11.7942H20.8584C20.7958 11.8369 20.736 11.8767 20.6763 11.9137C20.6734 11.9166 20.6706 11.9166 20.6677 11.9194L20.6478 11.9308C20.6478 11.9308 20.6421 11.9365 20.6364 11.9393C20.0102 12.3405 19.3811 12.7417 18.752 13.1429C18.6295 13.2197 18.5043 13.2994 18.3677 13.3392C18.2282 13.379 18.0688 13.3762 17.9492 13.2994C17.8496 13.2368 17.7869 13.1343 17.7357 13.0291C17.6987 12.9551 17.6674 12.8811 17.6389 12.8043C17.4482 12.1413 17.0497 11.5694 16.5145 11.1626C16.4974 11.1483 16.4804 11.1341 16.4633 11.1227C16.358 11.0431 16.2469 10.9719 16.1331 10.9065C16.1274 10.9065 16.1217 10.898 16.116 10.8951H16.1103C16.005 10.8354 15.8911 10.7813 15.7772 10.7358C15.7516 10.7244 15.7232 10.7159 15.6975 10.7073C15.6093 10.6732 15.5154 10.6447 15.4243 10.6191C15.3901 10.6077 15.3559 10.5992 15.3246 10.5935C15.2335 10.5708 15.1396 10.5537 15.0485 10.5395C15.0144 10.5338 14.983 10.5281 14.9517 10.5252C14.8293 10.511 14.7069 10.5025 14.5817 10.5025H4.01221V9.63182C4.01221 7.90473 5.41274 6.50201 7.14348 6.50201H20.5738C20.699 6.50201 20.8214 6.51055 20.9438 6.52478C20.9752 6.53047 21.0065 6.53616 21.0378 6.539C21.1317 6.55323 21.2257 6.5703 21.3167 6.59306C21.3481 6.6016 21.3822 6.61013 21.4135 6.61867C21.5075 6.64428 21.6014 6.67558 21.6897 6.70687C21.7153 6.71825 21.7409 6.72679 21.7665 6.73533C21.8832 6.7837 21.9942 6.83491 22.1024 6.89466C22.1053 6.89466 22.1081 6.89751 22.1081 6.89751C22.1138 6.90035 22.1195 6.9032 22.1223 6.90604C22.239 6.97148 22.3501 7.04546 22.4554 7.12228C22.4725 7.13651 22.4895 7.14789 22.5066 7.16212C23.0389 7.57184 23.4403 8.14374 23.6282 8.80384C23.6595 8.88066 23.6908 8.95749 23.7278 9.02862C23.7762 9.13389 23.8417 9.23632 23.9385 9.29892C24.0609 9.37859 24.2203 9.38143 24.3598 9.33875C24.4964 9.29892 24.6217 9.2221 24.7441 9.14243C25.3732 8.74409 25.9994 8.34006 26.6285 7.93888Z" fill="url(#paint1_linear_4758_2851)"/>
<path d="M32.0122 9.63219V26.3681C32.0122 26.4563 32.0065 26.5417 32.0008 26.627C31.8272 28.7268 29.4019 29.8336 27.6284 28.6984L26.6407 28.0696C26.6407 28.0696 26.635 28.0639 26.6293 28.061C26.4272 27.9301 26.2222 27.8021 26.0201 27.6712V13.6326C26.0201 13.5444 26.0144 13.4591 26.0087 13.3737C25.9347 12.4746 25.4508 11.7605 24.779 11.3223C23.8823 10.7362 22.6526 10.6536 21.6363 11.3024C21.4143 11.4446 21.1951 11.5812 20.9788 11.7206L26.6293 7.93926L26.6407 7.93356L26.7147 7.88519C26.8001 7.83113 26.8855 7.77707 26.9709 7.72301C27.1872 7.5836 27.4064 7.44418 27.6284 7.30191C29.4019 6.1695 31.8272 7.27346 32.0008 9.37327C32.0065 9.45863 32.0122 9.54399 32.0122 9.63219Z" fill="url(#paint2_linear_4758_2851)"/>
<g style="mix-blend-mode:multiply" opacity="0.1">
<path d="M20.5737 6.50378C20.699 6.50379 20.8215 6.513 20.9438 6.52722C20.9751 6.5329 21.0064 6.53805 21.0376 6.54089C21.1315 6.55512 21.2258 6.57184 21.3169 6.5946C21.3482 6.60313 21.3823 6.61245 21.4136 6.62097C21.5074 6.64657 21.6018 6.67759 21.6899 6.70886C21.7153 6.72012 21.7407 6.72872 21.7661 6.73718C21.8827 6.78551 21.994 6.83668 22.1021 6.89636C22.1045 6.89636 22.1073 6.89875 22.1079 6.89929C22.1136 6.90214 22.1197 6.90524 22.1226 6.90808C22.2392 6.97348 22.3503 7.04714 22.4556 7.1239C22.4726 7.13808 22.4893 7.14978 22.5063 7.16394C23.0386 7.57363 23.4405 8.1455 23.6284 8.80554C23.6597 8.88229 23.6911 8.95908 23.728 9.03015C23.7764 9.1353 23.8414 9.23804 23.938 9.30066C24.0604 9.38033 24.2204 9.38338 24.3599 9.3407C24.4963 9.30087 24.6214 9.22399 24.7437 9.14441C25.3727 8.74611 25.9994 8.34243 26.6284 7.94128L26.6294 7.94031L26.6401 7.93445L26.7144 7.8866C26.7998 7.83254 26.8858 7.77855 26.9712 7.72449C27.1875 7.5851 27.4064 7.44484 27.6284 7.30261C29.4018 6.17049 31.8269 7.27518 32.0005 9.37488C32.0062 9.46009 32.0122 9.54561 32.0122 9.63367V26.369C32.0122 26.4571 32.0062 26.5426 32.0005 26.6278C31.8268 28.7276 29.4019 29.8344 27.6284 28.6991L26.6401 28.0712C26.6401 28.0712 26.635 28.0653 26.6294 28.0624C26.4273 27.9315 26.2221 27.8036 26.02 27.6727V13.6337C26.02 13.5455 26.014 13.4602 26.0083 13.3749C25.9343 12.4758 25.4506 11.7613 24.7788 11.3231C23.8821 10.7371 22.6524 10.6549 21.6362 11.3036C21.4143 11.4458 21.1952 11.5822 20.979 11.7216L20.978 11.7225C20.9382 11.7481 20.9008 11.7702 20.8638 11.7958H20.8579C20.7953 11.8384 20.736 11.8789 20.6763 11.9159C20.6734 11.9187 20.6703 11.9189 20.6675 11.9218L20.6479 11.9325C20.6479 11.9325 20.6419 11.9384 20.6362 11.9413C20.01 12.3425 19.3806 12.7432 18.7515 13.1444C18.6292 13.2212 18.5042 13.3008 18.3677 13.3407C18.2282 13.3805 18.0683 13.3785 17.9487 13.3016C17.8492 13.2391 17.787 13.1363 17.7358 13.0311C17.6989 12.9573 17.6676 12.8832 17.6392 12.8065C17.4484 12.1436 17.0493 11.5718 16.5142 11.1649C16.4972 11.1508 16.4804 11.1362 16.4634 11.1249C16.3581 11.0452 16.2471 10.9735 16.1333 10.9081C16.1276 10.9081 16.1214 10.9002 16.1157 10.8973H16.1099C16.0046 10.8376 15.8907 10.7837 15.7769 10.7382C15.7513 10.7268 15.7233 10.7174 15.6978 10.7089C15.6096 10.6747 15.5154 10.6466 15.4243 10.621C15.3902 10.6096 15.356 10.6013 15.3247 10.5956C15.2336 10.5728 15.1394 10.5561 15.0483 10.5419C15.0142 10.5362 14.983 10.5301 14.9517 10.5272C14.8293 10.513 14.7068 10.5048 14.5815 10.5048H4.01221V9.63367C4.01227 7.90674 5.4125 6.50394 7.14307 6.50378H20.5737Z" fill="#6D4AFF"/>
</g>
<g clip-path="url(#clip0_4758_2851)">
<path d="M42.0122 21.3048V24.9682H44.57V21.4649C44.57 21.1245 44.7038 20.7961 44.945 20.5559C45.1841 20.3158 45.5104 20.179 45.8489 20.179H48.4726C49.6947 20.179 50.8682 19.6905 51.7326 18.819C52.597 17.9505 53.0825 16.7699 53.0825 15.5407C53.0825 14.3114 52.596 13.1319 51.7326 12.2603C50.8692 11.3909 49.6947 10.9024 48.4695 10.9024H42.0122V15.4809H44.57V13.3234H48.2993C48.8789 13.3234 49.4332 13.5544 49.8427 13.9659C50.2521 14.3773 50.4821 14.9347 50.4821 15.5174C50.4821 16.1001 50.2521 16.6574 49.8427 17.0689C49.4332 17.4803 48.8789 17.7114 48.2993 17.7114H45.5905C45.1213 17.7114 44.6551 17.8026 44.2234 17.986C43.7887 18.1664 43.3965 18.4319 43.0641 18.7663C42.7317 19.1007 42.4703 19.498 42.2878 19.9327C42.1054 20.3644 42.0122 20.8326 42.0122 21.3048Z" fill="#1B1340"/>
<path d="M53.4778 24.9682V19.3875C53.4778 17.1094 54.7992 15.2984 57.4452 15.2984C57.8688 15.2924 58.2924 15.338 58.7069 15.4383V17.7326C58.4059 17.7123 58.1465 17.7123 58.0249 17.7123C56.6233 17.7123 56.0214 18.3579 56.0214 19.6672V24.9682H53.4778Z" fill="#1B1340"/>
<path d="M59.4698 20.2357C59.4698 17.4347 61.5736 15.3005 64.5003 15.3005C67.427 15.3005 69.5308 17.4347 69.5308 20.2357C69.5308 23.0367 67.427 25.1912 64.5003 25.1912C61.5736 25.1912 59.4698 23.0337 59.4698 20.2357ZM67.0247 20.2357C67.0247 18.6437 65.9616 17.5148 64.5003 17.5148C63.039 17.5148 61.976 18.6407 61.976 20.2357C61.976 21.8308 63.039 22.9567 64.5003 22.9567C65.9616 22.9567 67.0247 21.845 67.0247 20.2357Z" fill="#1B1340"/>
<path d="M77.6661 20.2357C77.6661 17.4347 79.7699 15.3005 82.6966 15.3005C85.6233 15.3005 87.725 17.4347 87.725 20.2357C87.725 23.0367 85.6212 25.1912 82.6966 25.1912C79.772 25.1912 77.6661 23.0337 77.6661 20.2357ZM85.2179 20.2357C85.2179 18.6437 84.1549 17.5148 82.6936 17.5148C81.2323 17.5148 80.1692 18.6407 80.1692 20.2357C80.1692 21.8308 81.2323 22.9567 82.6936 22.9567C84.1549 22.9567 85.2179 21.845 85.2179 20.2357Z" fill="#1B1340"/>
<path d="M89.0465 24.9682V19.5902C89.0465 17.0922 90.6294 15.2975 93.4547 15.2975C96.2801 15.2975 97.8437 17.0892 97.8437 19.5902V24.9682H95.3194V19.7898C95.3194 18.4005 94.6972 17.532 93.4547 17.532C92.2123 17.532 91.5901 18.3974 91.5901 19.7898V24.9682H89.0465Z" fill="#1B1340"/>
<path d="M76.9042 17.5351H74.1589V21.0617C74.1589 22.2909 74.5997 22.8533 75.8614 22.8533C75.981 22.8533 76.282 22.8533 76.663 22.8331V24.9075C76.1431 25.0473 75.682 25.1304 75.1794 25.1304C73.0563 25.1304 71.6123 23.8414 71.6123 21.4042V17.5351H69.9067V15.5002H70.3334C70.5016 15.5002 70.6688 15.4657 70.8218 15.4029C70.9779 15.337 71.1177 15.2428 71.2363 15.1232C71.3559 15.0036 71.4491 14.8628 71.515 14.7057C71.5809 14.5486 71.6113 14.3824 71.6113 14.2142V12.2969H74.1549V15.5002H76.9001V17.5351H76.9032H76.9042Z" fill="#1B1340"/>
<path d="M146.517 17.5351H143.771V21.0617C143.771 22.2909 144.212 22.8533 145.474 22.8533C145.594 22.8533 145.895 22.8533 146.276 22.8331V24.9075C145.756 25.0473 145.295 25.1304 144.792 25.1304C142.669 25.1304 141.225 23.8414 141.225 21.4042V17.5351H139.519V15.5002H139.946C140.114 15.5002 140.281 15.4657 140.434 15.4029C140.59 15.337 140.73 15.2428 140.849 15.1232C140.968 15.0036 141.062 14.8628 141.128 14.7057C141.193 14.5486 141.224 14.3824 141.224 14.2142V12.2969H143.767V15.5002H146.513V17.5351H146.516H146.517Z" fill="#6D4AFF"/>
<path d="M102.883 11.2257H106.449L109.795 19.4676C110.097 20.2134 110.379 20.938 110.561 21.5835H110.601C110.783 20.939 111.064 20.2134 111.367 19.4676L114.712 11.2257H118.278V24.9683H115.678V15.7596C115.678 15.4576 115.678 15.2154 115.719 14.8526H115.678C115.597 15.1749 115.497 15.4566 115.356 15.8001L111.648 24.8071H109.512L105.804 15.8001C105.663 15.4576 105.562 15.1759 105.461 14.8526H105.421C105.461 15.2154 105.461 15.4566 105.461 15.7596V24.9683H102.882V11.2257H102.883Z" fill="#6D4AFF"/>
<path d="M119.425 20.2347C119.425 17.3932 121.44 15.2985 124.281 15.2985C127.123 15.2985 129.037 17.4145 129.037 20.2347C129.037 20.5975 129.037 20.7384 128.997 21.1012H121.843C122.145 22.3912 123.052 23.0763 124.281 23.0763C125.39 23.0763 126.014 22.7743 126.397 22.1095H128.755C128.17 24.2052 126.256 25.1922 124.341 25.1922C121.399 25.1922 119.424 23.0965 119.424 20.2357L119.425 20.2347ZM126.639 19.3278C126.477 18.2191 125.51 17.4135 124.281 17.4135C123.053 17.4135 122.106 18.1796 121.823 19.3278H126.639Z" fill="#6D4AFF"/>
<path d="M129.825 20.2347C129.825 17.3932 131.84 15.2985 134.682 15.2985C137.523 15.2985 139.437 17.4145 139.437 20.2347C139.437 20.5975 139.437 20.7384 139.397 21.1012H132.243C132.545 22.3912 133.452 23.0763 134.682 23.0763C135.79 23.0763 136.415 22.7743 136.798 22.1095H139.155C138.57 24.2052 136.656 25.1922 134.741 25.1922C131.8 25.1922 129.824 23.0965 129.824 20.2357L129.825 20.2347ZM137.04 19.3278C136.879 18.2191 135.911 17.4135 134.683 17.4135C133.454 17.4135 132.507 18.1796 132.224 19.3278H137.04Z" fill="#6D4AFF"/>
</g>
<defs>
<radialGradient id="paint0_radial_4758_2851" cx="0" cy="0" r="1" gradientTransform="matrix(9.50712 -16.5441 20.3143 15.5256 8.01904 29.0098)" gradientUnits="userSpaceOnUse">
<stop stop-color="#B8C6E5"/>
<stop offset="0.418768" stop-color="#9388F2"/>
<stop offset="0.716275" stop-color="#6D4AFF"/>
</radialGradient>
<linearGradient id="paint1_linear_4758_2851" x1="5.61415" y1="4.19381" x2="11.2984" y2="16.5002" gradientUnits="userSpaceOnUse">
<stop stop-color="#6652F5"/>
<stop offset="0.33754" stop-color="#9A9CF9"/>
<stop offset="0.868809" stop-color="#D9DAFC"/>
</linearGradient>
<linearGradient id="paint2_linear_4758_2851" x1="23.3608" y1="5.08481" x2="36.489" y2="9.13075" gradientUnits="userSpaceOnUse">
<stop stop-color="#6652F5"/>
<stop offset="0.33754" stop-color="#9A9CF9"/>
<stop offset="0.868809" stop-color="#D9DAFC"/>
</linearGradient>
<clipPath id="clip0_4758_2851">
<rect width="104.505" height="14.2888" fill="white" transform="translate(42.0122 10.9024)"/>
</clipPath>
</defs>
</svg>
